<?xml version="1.0" encoding="UTF-8" standalone="no"?>
<svg xmlns="http://www.w3.org/2000/svg" xmlns:xlink="http://www.w3.org/1999/xlink" contentScriptType="application/ecmascript" contentStyleType="text/css" height="1082px" preserveAspectRatio="none" style="width:2441px;height:1082px;" version="1.1" viewBox="0 0 2441 1082" width="2441px" zoomAndPan="magnify"><defs><filter height="300%" id="f1bmala9v7x1vf" width="300%" x="-1" y="-1"><feGaussianBlur result="blurOut" stdDeviation="2.0"/><feColorMatrix in="blurOut" result="blurOut2" type="matrix" values="0 0 0 0 0 0 0 0 0 0 0 0 0 0 0 0 0 0 .4 0"/><feOffset dx="4.0" dy="4.0" in="blurOut2" result="blurOut3"/><feBlend in="SourceGraphic" in2="blurOut3" mode="normal"/></filter></defs><g><!--cluster Gui--><polygon fill="#DD00DD" filter="url(#f1bmala9v7x1vf)" points="30,325,62,325,69,347.2969,1077,347.2969,1077,686.5,30,686.5,30,325" style="stroke: #000000; stroke-width: 1.5;"/><line style="stroke: #000000; stroke-width: 1.5;" x1="30" x2="69" y1="347.2969" y2="347.2969"/><text fill="#000000" font-family="sans-serif" font-size="14" font-weight="bold" lengthAdjust="spacingAndGlyphs" textLength="26" x="34" y="339.9951">Gui</text><!--cluster CoffeeMachine--><polygon fill="#0000DD" filter="url(#f1bmala9v7x1vf)" points="1815,325,1939,325,1946,347.2969,2419,347.2969,2419,900,1815,900,1815,325" style="stroke: #000000; stroke-width: 1.5;"/><line style="stroke: #000000; stroke-width: 1.5;" x1="1815" x2="1946" y1="347.2969" y2="347.2969"/><text fill="#000000" font-family="sans-serif" font-size="14" font-weight="bold" lengthAdjust="spacingAndGlyphs" textLength="118" x="1819" y="339.9951">CoffeeMachine</text><!--cluster Subscriber--><polygon fill="#DDDD00" filter="url(#f1bmala9v7x1vf)" points="1117,299,1209,299,1216,321.2969,1323,321.2969,1323,725,1117,725,1117,299" style="stroke: #000000; stroke-width: 1.5;"/><line style="stroke: #000000; stroke-width: 1.5;" x1="1117" x2="1216" y1="321.2969" y2="321.2969"/><text fill="#000000" font-family="sans-serif" font-size="14" font-weight="bold" lengthAdjust="spacingAndGlyphs" textLength="86" x="1121" y="313.9951">Subscriber</text><!--cluster Publisher--><polygon fill="#00DDDD" filter="url(#f1bmala9v7x1vf)" points="1355,24,1435,24,1442,46.2969,1783,46.2969,1783,1070,1355,1070,1355,24" style="stroke: #000000; stroke-width: 1.5;"/><line style="stroke: #000000; stroke-width: 1.5;" x1="1355" x2="1442" y1="46.2969" y2="46.2969"/><text fill="#000000" font-family="sans-serif" font-size="14" font-weight="bold" lengthAdjust="spacingAndGlyphs" textLength="74" x="1359" y="38.9951">Publisher</text><!--class UIFactory--><rect fill="#FEFECE" filter="url(#f1bmala9v7x1vf)" height="86.4141" id="UIFactory" style="stroke: #A80036; stroke-width: 1.5;" width="124" x="313" y="387"/><ellipse cx="343.3" cy="403" fill="#ADD1B2" rx="11" ry="11" style="stroke: #A80036; stroke-width: 1.0;"/><path d="M345.6438,398.6719 L345.8156,398.75 C346.0344,398.4375 346.2375,398.3438 346.5344,398.3438 C346.8313,398.3438 347.1125,398.4844 347.2688,398.75 C347.3625,398.9063 347.3781,399.0313 347.3781,399.4688 L347.3781,400.8906 C347.3781,401.3125 347.3469,401.5 347.2375,401.6563 C347.0656,401.875 346.8,402.0156 346.5344,402.0156 C346.3156,402.0156 346.0813,401.9063 345.9406,401.7656 C345.8,401.6406 345.7688,401.5156 345.7063,401.1094 C345.6125,400.7031 345.4406,400.4844 344.9563,400.2031 C344.4875,399.9531 343.8781,399.7969 343.3,399.7969 C341.5656,399.7969 340.3156,401.1094 340.3156,402.8906 L340.3156,403.9844 C340.3156,405.6875 341.6125,406.7813 343.6594,406.7813 C344.425,406.7813 345.1125,406.6563 345.5344,406.3906 C345.7219,406.2969 345.7219,406.2969 346.175,405.8125 C346.3625,405.625 346.5656,405.5469 346.7844,405.5469 C347.2531,405.5469 347.6438,405.9375 347.6438,406.3906 C347.6438,406.7813 347.3156,407.2344 346.7375,407.6406 C345.9875,408.1875 344.8313,408.4844 343.6125,408.4844 C340.7219,408.4844 338.6125,406.5938 338.6125,404.0156 L338.6125,402.8906 C338.6125,400.1719 340.6125,398.0938 343.2375,398.0938 C344.1125,398.0938 344.7063,398.2344 345.6438,398.6719 Z "/><text fill="#000000" font-family="sans-serif" font-size="12" lengthAdjust="spacingAndGlyphs" textLength="58" x="360.7" y="407.1543">UIFactory</text><line style="stroke: #A80036; stroke-width: 1.5;" x1="314" x2="436" y1="419" y2="419"/><line style="stroke: #A80036; stroke-width: 1.5;" x1="314" x2="436" y1="427" y2="427"/><text fill="#000000" font-family="sans-serif" font-size="11" lengthAdjust="spacingAndGlyphs" textLength="106" x="319" y="441.2104">getLayersWindow()</text><text fill="#000000" font-family="sans-serif" font-size="11" lengthAdjust="spacingAndGlyphs" textLength="94" x="319" y="454.0151">getMainWindow()</text><text fill="#000000" font-family="sans-serif" font-size="11" lengthAdjust="spacingAndGlyphs" textLength="112" x="319" y="466.8198">getToolboxWindow()</text><!--class GtkUIFactory--><rect fill="#FEFECE" filter="url(#f1bmala9v7x1vf)" height="86.4141" id="GtkUIFactory" style="stroke: #A80036; stroke-width: 1.5;" width="237" x="815.5" y="387"/><ellipse cx="890.25" cy="403" fill="#ADD1B2" rx="11" ry="11" style="stroke: #A80036; stroke-width: 1.0;"/><path d="M892.5938,398.6719 L892.7656,398.75 C892.9844,398.4375 893.1875,398.3438 893.4844,398.3438 C893.7813,398.3438 894.0625,398.4844 894.2188,398.75 C894.3125,398.9063 894.3281,399.0313 894.3281,399.4688 L894.3281,400.8906 C894.3281,401.3125 894.2969,401.5 894.1875,401.6563 C894.0156,401.875 893.75,402.0156 893.4844,402.0156 C893.2656,402.0156 893.0313,401.9063 892.8906,401.7656 C892.75,401.6406 892.7188,401.5156 892.6563,401.1094 C892.5625,400.7031 892.3906,400.4844 891.9063,400.2031 C891.4375,399.9531 890.8281,399.7969 890.25,399.7969 C888.5156,399.7969 887.2656,401.1094 887.2656,402.8906 L887.2656,403.9844 C887.2656,405.6875 888.5625,406.7813 890.6094,406.7813 C891.375,406.7813 892.0625,406.6563 892.4844,406.3906 C892.6719,406.2969 892.6719,406.2969 893.125,405.8125 C893.3125,405.625 893.5156,405.5469 893.7344,405.5469 C894.2031,405.5469 894.5938,405.9375 894.5938,406.3906 C894.5938,406.7813 894.2656,407.2344 893.6875,407.6406 C892.9375,408.1875 891.7813,408.4844 890.5625,408.4844 C887.6719,408.4844 885.5625,406.5938 885.5625,404.0156 L885.5625,402.8906 C885.5625,400.1719 887.5625,398.0938 890.1875,398.0938 C891.0625,398.0938 891.6563,398.2344 892.5938,398.6719 Z "/><text fill="#000000" font-family="sans-serif" font-size="12" lengthAdjust="spacingAndGlyphs" textLength="79" x="910.75" y="407.1543">GtkUIFactory</text><line style="stroke: #A80036; stroke-width: 1.5;" x1="816.5" x2="1051.5" y1="419" y2="419"/><line style="stroke: #A80036; stroke-width: 1.5;" x1="816.5" x2="1051.5" y1="427" y2="427"/><text fill="#000000" font-family="sans-serif" font-size="11" lengthAdjust="spacingAndGlyphs" textLength="213" x="821.5" y="441.2104">getLayersWindow(): GtkLayersWindow</text><text fill="#000000" font-family="sans-serif" font-size="11" lengthAdjust="spacingAndGlyphs" textLength="189" x="821.5" y="454.0151">getMainWindow(): GtkMainWindow</text><text fill="#000000" font-family="sans-serif" font-size="11" lengthAdjust="spacingAndGlyphs" textLength="225" x="821.5" y="466.8198">getToolboxWindow(): GtkToolboxWindow</text><!--class QtUIFactory--><rect fill="#FEFECE" filter="url(#f1bmala9v7x1vf)" height="86.4141" id="QtUIFactory" style="stroke: #A80036; stroke-width: 1.5;" width="231" x="549.5" y="387"/><ellipse cx="624.75" cy="403" fill="#ADD1B2" rx="11" ry="11" style="stroke: #A80036; stroke-width: 1.0;"/><path d="M627.0938,398.6719 L627.2656,398.75 C627.4844,398.4375 627.6875,398.3438 627.9844,398.3438 C628.2813,398.3438 628.5625,398.4844 628.7188,398.75 C628.8125,398.9063 628.8281,399.0313 628.8281,399.4688 L628.8281,400.8906 C628.8281,401.3125 628.7969,401.5 628.6875,401.6563 C628.5156,401.875 628.25,402.0156 627.9844,402.0156 C627.7656,402.0156 627.5313,401.9063 627.3906,401.7656 C627.25,401.6406 627.2188,401.5156 627.1563,401.1094 C627.0625,400.7031 626.8906,400.4844 626.4063,400.2031 C625.9375,399.9531 625.3281,399.7969 624.75,399.7969 C623.0156,399.7969 621.7656,401.1094 621.7656,402.8906 L621.7656,403.9844 C621.7656,405.6875 623.0625,406.7813 625.1094,406.7813 C625.875,406.7813 626.5625,406.6563 626.9844,406.3906 C627.1719,406.2969 627.1719,406.2969 627.625,405.8125 C627.8125,405.625 628.0156,405.5469 628.2344,405.5469 C628.7031,405.5469 629.0938,405.9375 629.0938,406.3906 C629.0938,406.7813 628.7656,407.2344 628.1875,407.6406 C627.4375,408.1875 626.2813,408.4844 625.0625,408.4844 C622.1719,408.4844 620.0625,406.5938 620.0625,404.0156 L620.0625,402.8906 C620.0625,400.1719 622.0625,398.0938 624.6875,398.0938 C625.5625,398.0938 626.1563,398.2344 627.0938,398.6719 Z "/><text fill="#000000" font-family="sans-serif" font-size="12" lengthAdjust="spacingAndGlyphs" textLength="72" x="645.25" y="407.1543">QtUIFactory</text><line style="stroke: #A80036; stroke-width: 1.5;" x1="550.5" x2="779.5" y1="419" y2="419"/><line style="stroke: #A80036; stroke-width: 1.5;" x1="550.5" x2="779.5" y1="427" y2="427"/><text fill="#000000" font-family="sans-serif" font-size="11" lengthAdjust="spacingAndGlyphs" textLength="207" x="555.5" y="441.2104">getLayersWindow(): QtLayersWindow</text><text fill="#000000" font-family="sans-serif" font-size="11" lengthAdjust="spacingAndGlyphs" textLength="183" x="555.5" y="454.0151">getMainWindow(): QtMainWindow</text><text fill="#000000" font-family="sans-serif" font-size="11" lengthAdjust="spacingAndGlyphs" textLength="219" x="555.5" y="466.8198">getToolboxWindow(): QtToolboxWindow</text><!--class Window--><rect fill="#FEFECE" filter="url(#f1bmala9v7x1vf)" height="73.6094" id="Window" style="stroke: #A80036; stroke-width: 1.5;" width="117" x="160.5" y="393"/><ellipse cx="192.6" cy="409" fill="#ADD1B2" rx="11" ry="11" style="stroke: #A80036; stroke-width: 1.0;"/><path d="M194.9438,404.6719 L195.1156,404.75 C195.3344,404.4375 195.5375,404.3438 195.8344,404.3438 C196.1313,404.3438 196.4125,404.4844 196.5688,404.75 C196.6625,404.9063 196.6781,405.0313 196.6781,405.4688 L196.6781,406.8906 C196.6781,407.3125 196.6469,407.5 196.5375,407.6563 C196.3656,407.875 196.1,408.0156 195.8344,408.0156 C195.6156,408.0156 195.3813,407.9063 195.2406,407.7656 C195.1,407.6406 195.0688,407.5156 195.0063,407.1094 C194.9125,406.7031 194.7406,406.4844 194.2563,406.2031 C193.7875,405.9531 193.1781,405.7969 192.6,405.7969 C190.8656,405.7969 189.6156,407.1094 189.6156,408.8906 L189.6156,409.9844 C189.6156,411.6875 190.9125,412.7813 192.9594,412.7813 C193.725,412.7813 194.4125,412.6563 194.8344,412.3906 C195.0219,412.2969 195.0219,412.2969 195.475,411.8125 C195.6625,411.625 195.8656,411.5469 196.0844,411.5469 C196.5531,411.5469 196.9438,411.9375 196.9438,412.3906 C196.9438,412.7813 196.6156,413.2344 196.0375,413.6406 C195.2875,414.1875 194.1313,414.4844 192.9125,414.4844 C190.0219,414.4844 187.9125,412.5938 187.9125,410.0156 L187.9125,408.8906 C187.9125,406.1719 189.9125,404.0938 192.5375,404.0938 C193.4125,404.0938 194.0063,404.2344 194.9438,404.6719 Z "/><text fill="#000000" font-family="sans-serif" font-size="12" lengthAdjust="spacingAndGlyphs" textLength="47" x="210.4" y="413.1543">Window</text><line style="stroke: #A80036; stroke-width: 1.5;" x1="161.5" x2="276.5" y1="425" y2="425"/><line style="stroke: #A80036; stroke-width: 1.5;" x1="161.5" x2="276.5" y1="433" y2="433"/><text fill="#000000" font-family="sans-serif" font-size="11" lengthAdjust="spacingAndGlyphs" textLength="105" x="166.5" y="447.2104">getToolkit(): String</text><text fill="#000000" font-family="sans-serif" font-size="11" lengthAdjust="spacingAndGlyphs" textLength="95" x="166.5" y="460.0151">getType(): String</text><!--class GtkLayersWindow--><rect fill="#FEFECE" filter="url(#f1bmala9v7x1vf)" height="48" id="GtkLayersWindow" style="stroke: #A80036; stroke-width: 1.5;" width="140" x="62" y="614.5"/><ellipse cx="77" cy="630.5" fill="#ADD1B2" rx="11" ry="11" style="stroke: #A80036; stroke-width: 1.0;"/><path d="M79.3438,626.1719 L79.5156,626.25 C79.7344,625.9375 79.9375,625.8438 80.2344,625.8438 C80.5313,625.8438 80.8125,625.9844 80.9688,626.25 C81.0625,626.4063 81.0781,626.5313 81.0781,626.9688 L81.0781,628.3906 C81.0781,628.8125 81.0469,629 80.9375,629.1563 C80.7656,629.375 80.5,629.5156 80.2344,629.5156 C80.0156,629.5156 79.7813,629.4063 79.6406,629.2656 C79.5,629.1406 79.4688,629.0156 79.4063,628.6094 C79.3125,628.2031 79.1406,627.9844 78.6563,627.7031 C78.1875,627.4531 77.5781,627.2969 77,627.2969 C75.2656,627.2969 74.0156,628.6094 74.0156,630.3906 L74.0156,631.4844 C74.0156,633.1875 75.3125,634.2813 77.3594,634.2813 C78.125,634.2813 78.8125,634.1563 79.2344,633.8906 C79.4219,633.7969 79.4219,633.7969 79.875,633.3125 C80.0625,633.125 80.2656,633.0469 80.4844,633.0469 C80.9531,633.0469 81.3438,633.4375 81.3438,633.8906 C81.3438,634.2813 81.0156,634.7344 80.4375,635.1406 C79.6875,635.6875 78.5313,635.9844 77.3125,635.9844 C74.4219,635.9844 72.3125,634.0938 72.3125,631.5156 L72.3125,630.3906 C72.3125,627.6719 74.3125,625.5938 76.9375,625.5938 C77.8125,625.5938 78.4063,625.7344 79.3438,626.1719 Z "/><text fill="#000000" font-family="sans-serif" font-size="12" lengthAdjust="spacingAndGlyphs" textLength="108" x="91" y="634.6543">GtkLayersWindow</text><line style="stroke: #A80036; stroke-width: 1.5;" x1="63" x2="201" y1="646.5" y2="646.5"/><line style="stroke: #A80036; stroke-width: 1.5;" x1="63" x2="201" y1="654.5" y2="654.5"/><!--class GtkMainWindow--><rect fill="#FEFECE" filter="url(#f1bmala9v7x1vf)" height="48" id="GtkMainWindow" style="stroke: #A80036; stroke-width: 1.5;" width="129" x="237.5" y="614.5"/><ellipse cx="252.5" cy="630.5" fill="#ADD1B2" rx="11" ry="11" style="stroke: #A80036; stroke-width: 1.0;"/><path d="M254.8438,626.1719 L255.0156,626.25 C255.2344,625.9375 255.4375,625.8438 255.7344,625.8438 C256.0313,625.8438 256.3125,625.9844 256.4688,626.25 C256.5625,626.4063 256.5781,626.5313 256.5781,626.9688 L256.5781,628.3906 C256.5781,628.8125 256.5469,629 256.4375,629.1563 C256.2656,629.375 256,629.5156 255.7344,629.5156 C255.5156,629.5156 255.2813,629.4063 255.1406,629.2656 C255,629.1406 254.9688,629.0156 254.9063,628.6094 C254.8125,628.2031 254.6406,627.9844 254.1563,627.7031 C253.6875,627.4531 253.0781,627.2969 252.5,627.2969 C250.7656,627.2969 249.5156,628.6094 249.5156,630.3906 L249.5156,631.4844 C249.5156,633.1875 250.8125,634.2813 252.8594,634.2813 C253.625,634.2813 254.3125,634.1563 254.7344,633.8906 C254.9219,633.7969 254.9219,633.7969 255.375,633.3125 C255.5625,633.125 255.7656,633.0469 255.9844,633.0469 C256.4531,633.0469 256.8438,633.4375 256.8438,633.8906 C256.8438,634.2813 256.5156,634.7344 255.9375,635.1406 C255.1875,635.6875 254.0313,635.9844 252.8125,635.9844 C249.9219,635.9844 247.8125,634.0938 247.8125,631.5156 L247.8125,630.3906 C247.8125,627.6719 249.8125,625.5938 252.4375,625.5938 C253.3125,625.5938 253.9063,625.7344 254.8438,626.1719 Z "/><text fill="#000000" font-family="sans-serif" font-size="12" lengthAdjust="spacingAndGlyphs" textLength="97" x="266.5" y="634.6543">GtkMainWindow</text><line style="stroke: #A80036; stroke-width: 1.5;" x1="238.5" x2="365.5" y1="646.5" y2="646.5"/><line style="stroke: #A80036; stroke-width: 1.5;" x1="238.5" x2="365.5" y1="654.5" y2="654.5"/><!--class GtkToolboxWindow--><rect fill="#FEFECE" filter="url(#f1bmala9v7x1vf)" height="48" id="GtkToolboxWindow" style="stroke: #A80036; stroke-width: 1.5;" width="148" x="402" y="614.5"/><ellipse cx="417" cy="630.5" fill="#ADD1B2" rx="11" ry="11" style="stroke: #A80036; stroke-width: 1.0;"/><path d="M419.3438,626.1719 L419.5156,626.25 C419.7344,625.9375 419.9375,625.8438 420.2344,625.8438 C420.5313,625.8438 420.8125,625.9844 420.9688,626.25 C421.0625,626.4063 421.0781,626.5313 421.0781,626.9688 L421.0781,628.3906 C421.0781,628.8125 421.0469,629 420.9375,629.1563 C420.7656,629.375 420.5,629.5156 420.2344,629.5156 C420.0156,629.5156 419.7813,629.4063 419.6406,629.2656 C419.5,629.1406 419.4688,629.0156 419.4063,628.6094 C419.3125,628.2031 419.1406,627.9844 418.6563,627.7031 C418.1875,627.4531 417.5781,627.2969 417,627.2969 C415.2656,627.2969 414.0156,628.6094 414.0156,630.3906 L414.0156,631.4844 C414.0156,633.1875 415.3125,634.2813 417.3594,634.2813 C418.125,634.2813 418.8125,634.1563 419.2344,633.8906 C419.4219,633.7969 419.4219,633.7969 419.875,633.3125 C420.0625,633.125 420.2656,633.0469 420.4844,633.0469 C420.9531,633.0469 421.3438,633.4375 421.3438,633.8906 C421.3438,634.2813 421.0156,634.7344 420.4375,635.1406 C419.6875,635.6875 418.5313,635.9844 417.3125,635.9844 C414.4219,635.9844 412.3125,634.0938 412.3125,631.5156 L412.3125,630.3906 C412.3125,627.6719 414.3125,625.5938 416.9375,625.5938 C417.8125,625.5938 418.4063,625.7344 419.3438,626.1719 Z "/><text fill="#000000" font-family="sans-serif" font-size="12" lengthAdjust="spacingAndGlyphs" textLength="116" x="431" y="634.6543">GtkToolboxWindow</text><line style="stroke: #A80036; stroke-width: 1.5;" x1="403" x2="549" y1="646.5" y2="646.5"/><line style="stroke: #A80036; stroke-width: 1.5;" x1="403" x2="549" y1="654.5" y2="654.5"/><!--class QtLayersWindow--><rect fill="#FEFECE" filter="url(#f1bmala9v7x1vf)" height="48" id="QtLayersWindow" style="stroke: #A80036; stroke-width: 1.5;" width="133" x="585.5" y="614.5"/><ellipse cx="600.5" cy="630.5" fill="#ADD1B2" rx="11" ry="11" style="stroke: #A80036; stroke-width: 1.0;"/><path d="M602.8438,626.1719 L603.0156,626.25 C603.2344,625.9375 603.4375,625.8438 603.7344,625.8438 C604.0313,625.8438 604.3125,625.9844 604.4688,626.25 C604.5625,626.4063 604.5781,626.5313 604.5781,626.9688 L604.5781,628.3906 C604.5781,628.8125 604.5469,629 604.4375,629.1563 C604.2656,629.375 604,629.5156 603.7344,629.5156 C603.5156,629.5156 603.2813,629.4063 603.1406,629.2656 C603,629.1406 602.9688,629.0156 602.9063,628.6094 C602.8125,628.2031 602.6406,627.9844 602.1563,627.7031 C601.6875,627.4531 601.0781,627.2969 600.5,627.2969 C598.7656,627.2969 597.5156,628.6094 597.5156,630.3906 L597.5156,631.4844 C597.5156,633.1875 598.8125,634.2813 600.8594,634.2813 C601.625,634.2813 602.3125,634.1563 602.7344,633.8906 C602.9219,633.7969 602.9219,633.7969 603.375,633.3125 C603.5625,633.125 603.7656,633.0469 603.9844,633.0469 C604.4531,633.0469 604.8438,633.4375 604.8438,633.8906 C604.8438,634.2813 604.5156,634.7344 603.9375,635.1406 C603.1875,635.6875 602.0313,635.9844 600.8125,635.9844 C597.9219,635.9844 595.8125,634.0938 595.8125,631.5156 L595.8125,630.3906 C595.8125,627.6719 597.8125,625.5938 600.4375,625.5938 C601.3125,625.5938 601.9063,625.7344 602.8438,626.1719 Z "/><text fill="#000000" font-family="sans-serif" font-size="12" lengthAdjust="spacingAndGlyphs" textLength="101" x="614.5" y="634.6543">QtLayersWindow</text><line style="stroke: #A80036; stroke-width: 1.5;" x1="586.5" x2="717.5" y1="646.5" y2="646.5"/><line style="stroke: #A80036; stroke-width: 1.5;" x1="586.5" x2="717.5" y1="654.5" y2="654.5"/><!--class QtMainWindow--><rect fill="#FEFECE" filter="url(#f1bmala9v7x1vf)" height="48" id="QtMainWindow" style="stroke: #A80036; stroke-width: 1.5;" width="122" x="754" y="614.5"/><ellipse cx="769" cy="630.5" fill="#ADD1B2" rx="11" ry="11" style="stroke: #A80036; stroke-width: 1.0;"/><path d="M771.3438,626.1719 L771.5156,626.25 C771.7344,625.9375 771.9375,625.8438 772.2344,625.8438 C772.5313,625.8438 772.8125,625.9844 772.9688,626.25 C773.0625,626.4063 773.0781,626.5313 773.0781,626.9688 L773.0781,628.3906 C773.0781,628.8125 773.0469,629 772.9375,629.1563 C772.7656,629.375 772.5,629.5156 772.2344,629.5156 C772.0156,629.5156 771.7813,629.4063 771.6406,629.2656 C771.5,629.1406 771.4688,629.0156 771.4063,628.6094 C771.3125,628.2031 771.1406,627.9844 770.6563,627.7031 C770.1875,627.4531 769.5781,627.2969 769,627.2969 C767.2656,627.2969 766.0156,628.6094 766.0156,630.3906 L766.0156,631.4844 C766.0156,633.1875 767.3125,634.2813 769.3594,634.2813 C770.125,634.2813 770.8125,634.1563 771.2344,633.8906 C771.4219,633.7969 771.4219,633.7969 771.875,633.3125 C772.0625,633.125 772.2656,633.0469 772.4844,633.0469 C772.9531,633.0469 773.3438,633.4375 773.3438,633.8906 C773.3438,634.2813 773.0156,634.7344 772.4375,635.1406 C771.6875,635.6875 770.5313,635.9844 769.3125,635.9844 C766.4219,635.9844 764.3125,634.0938 764.3125,631.5156 L764.3125,630.3906 C764.3125,627.6719 766.3125,625.5938 768.9375,625.5938 C769.8125,625.5938 770.4063,625.7344 771.3438,626.1719 Z "/><text fill="#000000" font-family="sans-serif" font-size="12" lengthAdjust="spacingAndGlyphs" textLength="90" x="783" y="634.6543">QtMainWindow</text><line style="stroke: #A80036; stroke-width: 1.5;" x1="755" x2="875" y1="646.5" y2="646.5"/><line style="stroke: #A80036; stroke-width: 1.5;" x1="755" x2="875" y1="654.5" y2="654.5"/><!--class QtToolboxWindow--><rect fill="#FEFECE" filter="url(#f1bmala9v7x1vf)" height="48" id="QtToolboxWindow" style="stroke: #A80036; stroke-width: 1.5;" width="141" x="911.5" y="614.5"/><ellipse cx="926.5" cy="630.5" fill="#ADD1B2" rx="11" ry="11" style="stroke: #A80036; stroke-width: 1.0;"/><path d="M928.8438,626.1719 L929.0156,626.25 C929.2344,625.9375 929.4375,625.8438 929.7344,625.8438 C930.0313,625.8438 930.3125,625.9844 930.4688,626.25 C930.5625,626.4063 930.5781,626.5313 930.5781,626.9688 L930.5781,628.3906 C930.5781,628.8125 930.5469,629 930.4375,629.1563 C930.2656,629.375 930,629.5156 929.7344,629.5156 C929.5156,629.5156 929.2813,629.4063 929.1406,629.2656 C929,629.1406 928.9688,629.0156 928.9063,628.6094 C928.8125,628.2031 928.6406,627.9844 928.1563,627.7031 C927.6875,627.4531 927.0781,627.2969 926.5,627.2969 C924.7656,627.2969 923.5156,628.6094 923.5156,630.3906 L923.5156,631.4844 C923.5156,633.1875 924.8125,634.2813 926.8594,634.2813 C927.625,634.2813 928.3125,634.1563 928.7344,633.8906 C928.9219,633.7969 928.9219,633.7969 929.375,633.3125 C929.5625,633.125 929.7656,633.0469 929.9844,633.0469 C930.4531,633.0469 930.8438,633.4375 930.8438,633.8906 C930.8438,634.2813 930.5156,634.7344 929.9375,635.1406 C929.1875,635.6875 928.0313,635.9844 926.8125,635.9844 C923.9219,635.9844 921.8125,634.0938 921.8125,631.5156 L921.8125,630.3906 C921.8125,627.6719 923.8125,625.5938 926.4375,625.5938 C927.3125,625.5938 927.9063,625.7344 928.8438,626.1719 Z "/><text fill="#000000" font-family="sans-serif" font-size="12" lengthAdjust="spacingAndGlyphs" textLength="109" x="940.5" y="634.6543">QtToolboxWindow</text><line style="stroke: #A80036; stroke-width: 1.5;" x1="912.5" x2="1051.5" y1="646.5" y2="646.5"/><line style="stroke: #A80036; stroke-width: 1.5;" x1="912.5" x2="1051.5" y1="654.5" y2="654.5"/><!--class Abstract_Coffee--><rect fill="#FEFECE" filter="url(#f1bmala9v7x1vf)" height="86.4141" id="Abstract_Coffee" style="stroke: #A80036; stroke-width: 1.5;" width="148" x="1932" y="387"/><ellipse cx="1954.65" cy="403" fill="#ADD1B2" rx="11" ry="11" style="stroke: #A80036; stroke-width: 1.0;"/><path d="M1956.9938,398.6719 L1957.1656,398.75 C1957.3844,398.4375 1957.5875,398.3438 1957.8844,398.3438 C1958.1813,398.3438 1958.4625,398.4844 1958.6188,398.75 C1958.7125,398.9063 1958.7281,399.0313 1958.7281,399.4688 L1958.7281,400.8906 C1958.7281,401.3125 1958.6969,401.5 1958.5875,401.6563 C1958.4156,401.875 1958.15,402.0156 1957.8844,402.0156 C1957.6656,402.0156 1957.4313,401.9063 1957.2906,401.7656 C1957.15,401.6406 1957.1188,401.5156 1957.0563,401.1094 C1956.9625,400.7031 1956.7906,400.4844 1956.3063,400.2031 C1955.8375,399.9531 1955.2281,399.7969 1954.65,399.7969 C1952.9156,399.7969 1951.6656,401.1094 1951.6656,402.8906 L1951.6656,403.9844 C1951.6656,405.6875 1952.9625,406.7813 1955.0094,406.7813 C1955.775,406.7813 1956.4625,406.6563 1956.8844,406.3906 C1957.0719,406.2969 1957.0719,406.2969 1957.525,405.8125 C1957.7125,405.625 1957.9156,405.5469 1958.1344,405.5469 C1958.6031,405.5469 1958.9938,405.9375 1958.9938,406.3906 C1958.9938,406.7813 1958.6656,407.2344 1958.0875,407.6406 C1957.3375,408.1875 1956.1813,408.4844 1954.9625,408.4844 C1952.0719,408.4844 1949.9625,406.5938 1949.9625,404.0156 L1949.9625,402.8906 C1949.9625,400.1719 1951.9625,398.0938 1954.5875,398.0938 C1955.4625,398.0938 1956.0563,398.2344 1956.9938,398.6719 Z "/><text fill="#000000" font-family="sans-serif" font-size="12" lengthAdjust="spacingAndGlyphs" textLength="99" x="1970.35" y="407.1543">Abstract_Coffee</text><line style="stroke: #A80036; stroke-width: 1.5;" x1="1933" x2="2079" y1="419" y2="419"/><line style="stroke: #A80036; stroke-width: 1.5;" x1="1933" x2="2079" y1="427" y2="427"/><text fill="#000000" font-family="sans-serif" font-size="11" lengthAdjust="spacingAndGlyphs" textLength="96" x="1938" y="441.2104">+get_cost(): void</text><text fill="#000000" font-family="sans-serif" font-size="11" lengthAdjust="spacingAndGlyphs" textLength="136" x="1938" y="454.0151">+get_ingredients(): void</text><text fill="#000000" font-family="sans-serif" font-size="11" lengthAdjust="spacingAndGlyphs" textLength="89" x="1938" y="466.8198">+get_tax(): void</text><!--class Concrete_Coffee--><rect fill="#FEFECE" filter="url(#f1bmala9v7x1vf)" height="73.6094" id="Concrete_Coffee" style="stroke: #A80036; stroke-width: 1.5;" width="159" x="1847.5" y="601.5"/><ellipse cx="1873.3" cy="617.5" fill="#ADD1B2" rx="11" ry="11" style="stroke: #A80036; stroke-width: 1.0;"/><path d="M1875.6438,613.1719 L1875.8156,613.25 C1876.0344,612.9375 1876.2375,612.8438 1876.5344,612.8438 C1876.8313,612.8438 1877.1125,612.9844 1877.2688,613.25 C1877.3625,613.4063 1877.3781,613.5313 1877.3781,613.9688 L1877.3781,615.3906 C1877.3781,615.8125 1877.3469,616 1877.2375,616.1563 C1877.0656,616.375 1876.8,616.5156 1876.5344,616.5156 C1876.3156,616.5156 1876.0813,616.4063 1875.9406,616.2656 C1875.8,616.1406 1875.7688,616.0156 1875.7063,615.6094 C1875.6125,615.2031 1875.4406,614.9844 1874.9563,614.7031 C1874.4875,614.4531 1873.8781,614.2969 1873.3,614.2969 C1871.5656,614.2969 1870.3156,615.6094 1870.3156,617.3906 L1870.3156,618.4844 C1870.3156,620.1875 1871.6125,621.2813 1873.6594,621.2813 C1874.425,621.2813 1875.1125,621.1563 1875.5344,620.8906 C1875.7219,620.7969 1875.7219,620.7969 1876.175,620.3125 C1876.3625,620.125 1876.5656,620.0469 1876.7844,620.0469 C1877.2531,620.0469 1877.6438,620.4375 1877.6438,620.8906 C1877.6438,621.2813 1877.3156,621.7344 1876.7375,622.1406 C1875.9875,622.6875 1874.8313,622.9844 1873.6125,622.9844 C1870.7219,622.9844 1868.6125,621.0938 1868.6125,618.5156 L1868.6125,617.3906 C1868.6125,614.6719 1870.6125,612.5938 1873.2375,612.5938 C1874.1125,612.5938 1874.7063,612.7344 1875.6438,613.1719 Z "/><text fill="#000000" font-family="sans-serif" font-size="12" lengthAdjust="spacingAndGlyphs" textLength="103" x="1889.7" y="621.6543">Concrete_Coffee</text><line style="stroke: #A80036; stroke-width: 1.5;" x1="1848.5" x2="2005.5" y1="633.5" y2="633.5"/><line style="stroke: #A80036; stroke-width: 1.5;" x1="1848.5" x2="2005.5" y1="641.5" y2="641.5"/><text fill="#000000" font-family="sans-serif" font-size="11" lengthAdjust="spacingAndGlyphs" textLength="98" x="1853.5" y="655.7104">+get_cost(): float</text><text fill="#000000" font-family="sans-serif" font-size="11" lengthAdjust="spacingAndGlyphs" textLength="147" x="1853.5" y="668.5151">+get_ingredients(): String</text><!--class Abstract_Coffee_Decorator--><rect fill="#FEFECE" filter="url(#f1bmala9v7x1vf)" height="86.4141" id="Abstract_Coffee_Decorator" style="stroke: #A80036; stroke-width: 1.5;" width="200" x="2042" y="595.5"/><ellipse cx="2057" cy="611.5" fill="#ADD1B2" rx="11" ry="11" style="stroke: #A80036; stroke-width: 1.0;"/><path d="M2059.3438,607.1719 L2059.5156,607.25 C2059.7344,606.9375 2059.9375,606.8438 2060.2344,606.8438 C2060.5313,606.8438 2060.8125,606.9844 2060.9688,607.25 C2061.0625,607.4063 2061.0781,607.5313 2061.0781,607.9688 L2061.0781,609.3906 C2061.0781,609.8125 2061.0469,610 2060.9375,610.1563 C2060.7656,610.375 2060.5,610.5156 2060.2344,610.5156 C2060.0156,610.5156 2059.7813,610.4063 2059.6406,610.2656 C2059.5,610.1406 2059.4688,610.0156 2059.4063,609.6094 C2059.3125,609.2031 2059.1406,608.9844 2058.6563,608.7031 C2058.1875,608.4531 2057.5781,608.2969 2057,608.2969 C2055.2656,608.2969 2054.0156,609.6094 2054.0156,611.3906 L2054.0156,612.4844 C2054.0156,614.1875 2055.3125,615.2813 2057.3594,615.2813 C2058.125,615.2813 2058.8125,615.1563 2059.2344,614.8906 C2059.4219,614.7969 2059.4219,614.7969 2059.875,614.3125 C2060.0625,614.125 2060.2656,614.0469 2060.4844,614.0469 C2060.9531,614.0469 2061.3438,614.4375 2061.3438,614.8906 C2061.3438,615.2813 2061.0156,615.7344 2060.4375,616.1406 C2059.6875,616.6875 2058.5313,616.9844 2057.3125,616.9844 C2054.4219,616.9844 2052.3125,615.0938 2052.3125,612.5156 L2052.3125,611.3906 C2052.3125,608.6719 2054.3125,606.5938 2056.9375,606.5938 C2057.8125,606.5938 2058.4063,606.7344 2059.3438,607.1719 Z "/><text fill="#000000" font-family="sans-serif" font-size="12" lengthAdjust="spacingAndGlyphs" textLength="168" x="2071" y="615.6543">Abstract_Coffee_Decorator</text><line style="stroke: #A80036; stroke-width: 1.5;" x1="2043" x2="2241" y1="627.5" y2="627.5"/><text fill="#000000" font-family="sans-serif" font-size="11" lengthAdjust="spacingAndGlyphs" textLength="107" x="2048" y="641.7104">+decorated_coffee</text><line style="stroke: #A80036; stroke-width: 1.5;" x1="2043" x2="2241" y1="648.3047" y2="648.3047"/><text fill="#000000" font-family="sans-serif" font-size="11" lengthAdjust="spacingAndGlyphs" textLength="98" x="2048" y="662.5151">+get_cost(): float</text><text fill="#000000" font-family="sans-serif" font-size="11" lengthAdjust="spacingAndGlyphs" textLength="147" x="2048" y="675.3198">+get_ingredients(): String</text><!--class Milk--><rect fill="#FEFECE" filter="url(#f1bmala9v7x1vf)" height="73.6094" id="Milk" style="stroke: #A80036; stroke-width: 1.5;" width="159" x="1847.5" y="802"/><ellipse cx="1911.25" cy="818" fill="#ADD1B2" rx="11" ry="11" style="stroke: #A80036; stroke-width: 1.0;"/><path d="M1913.5938,813.6719 L1913.7656,813.75 C1913.9844,813.4375 1914.1875,813.3438 1914.4844,813.3438 C1914.7813,813.3438 1915.0625,813.4844 1915.2188,813.75 C1915.3125,813.9063 1915.3281,814.0313 1915.3281,814.4688 L1915.3281,815.8906 C1915.3281,816.3125 1915.2969,816.5 1915.1875,816.6563 C1915.0156,816.875 1914.75,817.0156 1914.4844,817.0156 C1914.2656,817.0156 1914.0313,816.9063 1913.8906,816.7656 C1913.75,816.6406 1913.7188,816.5156 1913.6563,816.1094 C1913.5625,815.7031 1913.3906,815.4844 1912.9063,815.2031 C1912.4375,814.9531 1911.8281,814.7969 1911.25,814.7969 C1909.5156,814.7969 1908.2656,816.1094 1908.2656,817.8906 L1908.2656,818.9844 C1908.2656,820.6875 1909.5625,821.7813 1911.6094,821.7813 C1912.375,821.7813 1913.0625,821.6563 1913.4844,821.3906 C1913.6719,821.2969 1913.6719,821.2969 1914.125,820.8125 C1914.3125,820.625 1914.5156,820.5469 1914.7344,820.5469 C1915.2031,820.5469 1915.5938,820.9375 1915.5938,821.3906 C1915.5938,821.7813 1915.2656,822.2344 1914.6875,822.6406 C1913.9375,823.1875 1912.7813,823.4844 1911.5625,823.4844 C1908.6719,823.4844 1906.5625,821.5938 1906.5625,819.0156 L1906.5625,817.8906 C1906.5625,815.1719 1908.5625,813.0938 1911.1875,813.0938 C1912.0625,813.0938 1912.6563,813.2344 1913.5938,813.6719 Z "/><text fill="#000000" font-family="sans-serif" font-size="12" lengthAdjust="spacingAndGlyphs" textLength="23" x="1931.75" y="822.1543">Milk</text><line style="stroke: #A80036; stroke-width: 1.5;" x1="1848.5" x2="2005.5" y1="834" y2="834"/><line style="stroke: #A80036; stroke-width: 1.5;" x1="1848.5" x2="2005.5" y1="842" y2="842"/><text fill="#000000" font-family="sans-serif" font-size="11" lengthAdjust="spacingAndGlyphs" textLength="98" x="1853.5" y="856.2104">+get_cost(): float</text><text fill="#000000" font-family="sans-serif" font-size="11" lengthAdjust="spacingAndGlyphs" textLength="147" x="1853.5" y="869.0151">+get_ingredients(): String</text><!--class Sugar--><rect fill="#FEFECE" filter="url(#f1bmala9v7x1vf)" height="73.6094" id="Sugar" style="stroke: #A80036; stroke-width: 1.5;" width="159" x="2041.5" y="802"/><ellipse cx="2098.25" cy="818" fill="#ADD1B2" rx="11" ry="11" style="stroke: #A80036; stroke-width: 1.0;"/><path d="M2100.5938,813.6719 L2100.7656,813.75 C2100.9844,813.4375 2101.1875,813.3438 2101.4844,813.3438 C2101.7813,813.3438 2102.0625,813.4844 2102.2188,813.75 C2102.3125,813.9063 2102.3281,814.0313 2102.3281,814.4688 L2102.3281,815.8906 C2102.3281,816.3125 2102.2969,816.5 2102.1875,816.6563 C2102.0156,816.875 2101.75,817.0156 2101.4844,817.0156 C2101.2656,817.0156 2101.0313,816.9063 2100.8906,816.7656 C2100.75,816.6406 2100.7188,816.5156 2100.6563,816.1094 C2100.5625,815.7031 2100.3906,815.4844 2099.9063,815.2031 C2099.4375,814.9531 2098.8281,814.7969 2098.25,814.7969 C2096.5156,814.7969 2095.2656,816.1094 2095.2656,817.8906 L2095.2656,818.9844 C2095.2656,820.6875 2096.5625,821.7813 2098.6094,821.7813 C2099.375,821.7813 2100.0625,821.6563 2100.4844,821.3906 C2100.6719,821.2969 2100.6719,821.2969 2101.125,820.8125 C2101.3125,820.625 2101.5156,820.5469 2101.7344,820.5469 C2102.2031,820.5469 2102.5938,820.9375 2102.5938,821.3906 C2102.5938,821.7813 2102.2656,822.2344 2101.6875,822.6406 C2100.9375,823.1875 2099.7813,823.4844 2098.5625,823.4844 C2095.6719,823.4844 2093.5625,821.5938 2093.5625,819.0156 L2093.5625,817.8906 C2093.5625,815.1719 2095.5625,813.0938 2098.1875,813.0938 C2099.0625,813.0938 2099.6563,813.2344 2100.5938,813.6719 Z "/><text fill="#000000" font-family="sans-serif" font-size="12" lengthAdjust="spacingAndGlyphs" textLength="37" x="2118.75" y="822.1543">Sugar</text><line style="stroke: #A80036; stroke-width: 1.5;" x1="2042.5" x2="2199.5" y1="834" y2="834"/><line style="stroke: #A80036; stroke-width: 1.5;" x1="2042.5" x2="2199.5" y1="842" y2="842"/><text fill="#000000" font-family="sans-serif" font-size="11" lengthAdjust="spacingAndGlyphs" textLength="98" x="2047.5" y="856.2104">+get_cost(): float</text><text fill="#000000" font-family="sans-serif" font-size="11" lengthAdjust="spacingAndGlyphs" textLength="147" x="2047.5" y="869.0151">+get_ingredients(): String</text><!--class Vanilla--><rect fill="#FEFECE" filter="url(#f1bmala9v7x1vf)" height="73.6094" id="Vanilla" style="stroke: #A80036; stroke-width: 1.5;" width="159" x="2235.5" y="802"/><ellipse cx="2290.25" cy="818" fill="#ADD1B2" rx="11" ry="11" style="stroke: #A80036; stroke-width: 1.0;"/><path d="M2292.5938,813.6719 L2292.7656,813.75 C2292.9844,813.4375 2293.1875,813.3438 2293.4844,813.3438 C2293.7813,813.3438 2294.0625,813.4844 2294.2188,813.75 C2294.3125,813.9063 2294.3281,814.0313 2294.3281,814.4688 L2294.3281,815.8906 C2294.3281,816.3125 2294.2969,816.5 2294.1875,816.6563 C2294.0156,816.875 2293.75,817.0156 2293.4844,817.0156 C2293.2656,817.0156 2293.0313,816.9063 2292.8906,816.7656 C2292.75,816.6406 2292.7188,816.5156 2292.6563,816.1094 C2292.5625,815.7031 2292.3906,815.4844 2291.9063,815.2031 C2291.4375,814.9531 2290.8281,814.7969 2290.25,814.7969 C2288.5156,814.7969 2287.2656,816.1094 2287.2656,817.8906 L2287.2656,818.9844 C2287.2656,820.6875 2288.5625,821.7813 2290.6094,821.7813 C2291.375,821.7813 2292.0625,821.6563 2292.4844,821.3906 C2292.6719,821.2969 2292.6719,821.2969 2293.125,820.8125 C2293.3125,820.625 2293.5156,820.5469 2293.7344,820.5469 C2294.2031,820.5469 2294.5938,820.9375 2294.5938,821.3906 C2294.5938,821.7813 2294.2656,822.2344 2293.6875,822.6406 C2292.9375,823.1875 2291.7813,823.4844 2290.5625,823.4844 C2287.6719,823.4844 2285.5625,821.5938 2285.5625,819.0156 L2285.5625,817.8906 C2285.5625,815.1719 2287.5625,813.0938 2290.1875,813.0938 C2291.0625,813.0938 2291.6563,813.2344 2292.5938,813.6719 Z "/><text fill="#000000" font-family="sans-serif" font-size="12" lengthAdjust="spacingAndGlyphs" textLength="41" x="2310.75" y="822.1543">Vanilla</text><line style="stroke: #A80036; stroke-width: 1.5;" x1="2236.5" x2="2393.5" y1="834" y2="834"/><line style="stroke: #A80036; stroke-width: 1.5;" x1="2236.5" x2="2393.5" y1="842" y2="842"/><text fill="#000000" font-family="sans-serif" font-size="11" lengthAdjust="spacingAndGlyphs" textLength="98" x="2241.5" y="856.2104">+get_cost(): float</text><text fill="#000000" font-family="sans-serif" font-size="11" lengthAdjust="spacingAndGlyphs" textLength="147" x="2241.5" y="869.0151">+get_ingredients(): String</text><!--class Admin--><rect fill="#FEFECE" filter="url(#f1bmala9v7x1vf)" height="137.6328" id="Admin" style="stroke: #A80036; stroke-width: 1.5;" width="110" x="1169" y="361"/><ellipse cx="1202" cy="377" fill="#ADD1B2" rx="11" ry="11" style="stroke: #A80036; stroke-width: 1.0;"/><path d="M1204.3438,372.6719 L1204.5156,372.75 C1204.7344,372.4375 1204.9375,372.3438 1205.2344,372.3438 C1205.5313,372.3438 1205.8125,372.4844 1205.9688,372.75 C1206.0625,372.9063 1206.0781,373.0313 1206.0781,373.4688 L1206.0781,374.8906 C1206.0781,375.3125 1206.0469,375.5 1205.9375,375.6563 C1205.7656,375.875 1205.5,376.0156 1205.2344,376.0156 C1205.0156,376.0156 1204.7813,375.9063 1204.6406,375.7656 C1204.5,375.6406 1204.4688,375.5156 1204.4063,375.1094 C1204.3125,374.7031 1204.1406,374.4844 1203.6563,374.2031 C1203.1875,373.9531 1202.5781,373.7969 1202,373.7969 C1200.2656,373.7969 1199.0156,375.1094 1199.0156,376.8906 L1199.0156,377.9844 C1199.0156,379.6875 1200.3125,380.7813 1202.3594,380.7813 C1203.125,380.7813 1203.8125,380.6563 1204.2344,380.3906 C1204.4219,380.2969 1204.4219,380.2969 1204.875,379.8125 C1205.0625,379.625 1205.2656,379.5469 1205.4844,379.5469 C1205.9531,379.5469 1206.3438,379.9375 1206.3438,380.3906 C1206.3438,380.7813 1206.0156,381.2344 1205.4375,381.6406 C1204.6875,382.1875 1203.5313,382.4844 1202.3125,382.4844 C1199.4219,382.4844 1197.3125,380.5938 1197.3125,378.0156 L1197.3125,376.8906 C1197.3125,374.1719 1199.3125,372.0938 1201.9375,372.0938 C1202.8125,372.0938 1203.4063,372.2344 1204.3438,372.6719 Z "/><text fill="#000000" font-family="sans-serif" font-size="12" lengthAdjust="spacingAndGlyphs" textLength="38" x="1220" y="381.1543">Admin</text><line style="stroke: #A80036; stroke-width: 1.5;" x1="1170" x2="1278" y1="393" y2="393"/><text fill="#000000" font-family="sans-serif" font-size="11" lengthAdjust="spacingAndGlyphs" textLength="62" x="1175" y="407.2104">+ID: String</text><text fill="#000000" font-family="sans-serif" font-size="11" lengthAdjust="spacingAndGlyphs" textLength="62" x="1175" y="420.0151">-PW: String</text><text fill="#000000" font-family="sans-serif" font-size="11" lengthAdjust="spacingAndGlyphs" textLength="98" x="1175" y="432.8198">-access_level: Int</text><line style="stroke: #A80036; stroke-width: 1.5;" x1="1170" x2="1278" y1="439.4141" y2="439.4141"/><text fill="#000000" font-family="sans-serif" font-size="11" lengthAdjust="spacingAndGlyphs" textLength="79" x="1175" y="453.6245">-create(): void</text><text fill="#000000" font-family="sans-serif" font-size="11" lengthAdjust="spacingAndGlyphs" textLength="78" x="1175" y="466.4292">-delete(): void</text><text fill="#000000" font-family="sans-serif" font-size="11" lengthAdjust="spacingAndGlyphs" textLength="75" x="1175" y="479.2339">~login(): void</text><text fill="#000000" font-family="sans-serif" font-size="11" lengthAdjust="spacingAndGlyphs" textLength="83" x="1175" y="492.0386">~logout(): void</text><!--class DashboardNode--><rect fill="#FEFECE" filter="url(#f1bmala9v7x1vf)" height="124.8281" id="DashboardNode" style="stroke: #A80036; stroke-width: 1.5;" width="150" x="1149" y="576"/><ellipse cx="1171.2" cy="592" fill="#ADD1B2" rx="11" ry="11" style="stroke: #A80036; stroke-width: 1.0;"/><path d="M1173.5438,587.6719 L1173.7156,587.75 C1173.9344,587.4375 1174.1375,587.3438 1174.4344,587.3438 C1174.7313,587.3438 1175.0125,587.4844 1175.1688,587.75 C1175.2625,587.9063 1175.2781,588.0313 1175.2781,588.4688 L1175.2781,589.8906 C1175.2781,590.3125 1175.2469,590.5 1175.1375,590.6563 C1174.9656,590.875 1174.7,591.0156 1174.4344,591.0156 C1174.2156,591.0156 1173.9813,590.9063 1173.8406,590.7656 C1173.7,590.6406 1173.6688,590.5156 1173.6063,590.1094 C1173.5125,589.7031 1173.3406,589.4844 1172.8563,589.2031 C1172.3875,588.9531 1171.7781,588.7969 1171.2,588.7969 C1169.4656,588.7969 1168.2156,590.1094 1168.2156,591.8906 L1168.2156,592.9844 C1168.2156,594.6875 1169.5125,595.7813 1171.5594,595.7813 C1172.325,595.7813 1173.0125,595.6563 1173.4344,595.3906 C1173.6219,595.2969 1173.6219,595.2969 1174.075,594.8125 C1174.2625,594.625 1174.4656,594.5469 1174.6844,594.5469 C1175.1531,594.5469 1175.5438,594.9375 1175.5438,595.3906 C1175.5438,595.7813 1175.2156,596.2344 1174.6375,596.6406 C1173.8875,597.1875 1172.7313,597.4844 1171.5125,597.4844 C1168.6219,597.4844 1166.5125,595.5938 1166.5125,593.0156 L1166.5125,591.8906 C1166.5125,589.1719 1168.5125,587.0938 1171.1375,587.0938 C1172.0125,587.0938 1172.6063,587.2344 1173.5438,587.6719 Z "/><text fill="#000000" font-family="sans-serif" font-size="12" lengthAdjust="spacingAndGlyphs" textLength="102" x="1186.8" y="596.1543">DashboardNode</text><line style="stroke: #A80036; stroke-width: 1.5;" x1="1150" x2="1298" y1="608" y2="608"/><text fill="#000000" font-family="sans-serif" font-size="11" lengthAdjust="spacingAndGlyphs" textLength="78" x="1155" y="622.2104">+topic: String</text><text fill="#000000" font-family="sans-serif" font-size="11" lengthAdjust="spacingAndGlyphs" textLength="86" x="1155" y="635.0151">+frame: Image</text><line style="stroke: #A80036; stroke-width: 1.5;" x1="1150" x2="1298" y1="641.6094" y2="641.6094"/><text fill="#000000" font-family="sans-serif" font-size="11" lengthAdjust="spacingAndGlyphs" textLength="97" x="1155" y="655.8198">~startSub(): void</text><text fill="#000000" font-family="sans-serif" font-size="11" lengthAdjust="spacingAndGlyphs" textLength="95" x="1155" y="668.6245">~stopSub(): void</text><text fill="#000000" font-family="sans-serif" font-size="11" lengthAdjust="spacingAndGlyphs" textLength="138" x="1155" y="681.4292">~report(): CustomStruct</text><text fill="#000000" font-family="sans-serif" font-size="11" lengthAdjust="spacingAndGlyphs" textLength="125" x="1155" y="694.2339">~screenShot(): Image</text><!--class CamerasPool--><rect fill="#FEFECE" filter="url(#f1bmala9v7x1vf)" height="86.4141" id="CamerasPool" style="stroke: #A80036; stroke-width: 1.5;" width="138" x="1491" y="387"/><ellipse cx="1516.8" cy="403" fill="#ADD1B2" rx="11" ry="11" style="stroke: #A80036; stroke-width: 1.0;"/><path d="M1519.1438,398.6719 L1519.3156,398.75 C1519.5344,398.4375 1519.7375,398.3438 1520.0344,398.3438 C1520.3313,398.3438 1520.6125,398.4844 1520.7688,398.75 C1520.8625,398.9063 1520.8781,399.0313 1520.8781,399.4688 L1520.8781,400.8906 C1520.8781,401.3125 1520.8469,401.5 1520.7375,401.6563 C1520.5656,401.875 1520.3,402.0156 1520.0344,402.0156 C1519.8156,402.0156 1519.5813,401.9063 1519.4406,401.7656 C1519.3,401.6406 1519.2688,401.5156 1519.2063,401.1094 C1519.1125,400.7031 1518.9406,400.4844 1518.4563,400.2031 C1517.9875,399.9531 1517.3781,399.7969 1516.8,399.7969 C1515.0656,399.7969 1513.8156,401.1094 1513.8156,402.8906 L1513.8156,403.9844 C1513.8156,405.6875 1515.1125,406.7813 1517.1594,406.7813 C1517.925,406.7813 1518.6125,406.6563 1519.0344,406.3906 C1519.2219,406.2969 1519.2219,406.2969 1519.675,405.8125 C1519.8625,405.625 1520.0656,405.5469 1520.2844,405.5469 C1520.7531,405.5469 1521.1438,405.9375 1521.1438,406.3906 C1521.1438,406.7813 1520.8156,407.2344 1520.2375,407.6406 C1519.4875,408.1875 1518.3313,408.4844 1517.1125,408.4844 C1514.2219,408.4844 1512.1125,406.5938 1512.1125,404.0156 L1512.1125,402.8906 C1512.1125,400.1719 1514.1125,398.0938 1516.7375,398.0938 C1517.6125,398.0938 1518.2063,398.2344 1519.1438,398.6719 Z "/><text fill="#000000" font-family="sans-serif" font-size="12" lengthAdjust="spacingAndGlyphs" textLength="82" x="1533.2" y="407.1543">CamerasPool</text><line style="stroke: #A80036; stroke-width: 1.5;" x1="1492" x2="1628" y1="419" y2="419"/><text fill="#000000" font-family="sans-serif" font-size="11" lengthAdjust="spacingAndGlyphs" textLength="126" x="1497" y="433.2104">-reusables: Camera []</text><line style="stroke: #A80036; stroke-width: 1.5;" x1="1492" x2="1628" y1="439.8047" y2="439.8047"/><text fill="#000000" font-family="sans-serif" font-size="11" lengthAdjust="spacingAndGlyphs" textLength="112" x="1497" y="454.0151">~aqcuire(): Camera</text><text fill="#000000" font-family="sans-serif" font-size="11" lengthAdjust="spacingAndGlyphs" textLength="91" x="1497" y="466.8198">~release(): void</text><!--class Camera--><rect fill="#FEFECE" filter="url(#f1bmala9v7x1vf)" height="150.4375" id="Camera" style="stroke: #A80036; stroke-width: 1.5;" width="146" x="1414" y="78"/><ellipse cx="1458.75" cy="94" fill="#ADD1B2" rx="11" ry="11" style="stroke: #A80036; stroke-width: 1.0;"/><path d="M1461.0938,89.6719 L1461.2656,89.75 C1461.4844,89.4375 1461.6875,89.3438 1461.9844,89.3438 C1462.2813,89.3438 1462.5625,89.4844 1462.7188,89.75 C1462.8125,89.9063 1462.8281,90.0313 1462.8281,90.4688 L1462.8281,91.8906 C1462.8281,92.3125 1462.7969,92.5 1462.6875,92.6563 C1462.5156,92.875 1462.25,93.0156 1461.9844,93.0156 C1461.7656,93.0156 1461.5313,92.9063 1461.3906,92.7656 C1461.25,92.6406 1461.2188,92.5156 1461.1563,92.1094 C1461.0625,91.7031 1460.8906,91.4844 1460.4063,91.2031 C1459.9375,90.9531 1459.3281,90.7969 1458.75,90.7969 C1457.0156,90.7969 1455.7656,92.1094 1455.7656,93.8906 L1455.7656,94.9844 C1455.7656,96.6875 1457.0625,97.7813 1459.1094,97.7813 C1459.875,97.7813 1460.5625,97.6563 1460.9844,97.3906 C1461.1719,97.2969 1461.1719,97.2969 1461.625,96.8125 C1461.8125,96.625 1462.0156,96.5469 1462.2344,96.5469 C1462.7031,96.5469 1463.0938,96.9375 1463.0938,97.3906 C1463.0938,97.7813 1462.7656,98.2344 1462.1875,98.6406 C1461.4375,99.1875 1460.2813,99.4844 1459.0625,99.4844 C1456.1719,99.4844 1454.0625,97.5938 1454.0625,95.0156 L1454.0625,93.8906 C1454.0625,91.1719 1456.0625,89.0938 1458.6875,89.0938 C1459.5625,89.0938 1460.1563,89.2344 1461.0938,89.6719 Z "/><text fill="#000000" font-family="sans-serif" font-size="12" lengthAdjust="spacingAndGlyphs" textLength="48" x="1479.25" y="98.1543">Camera</text><line style="stroke: #A80036; stroke-width: 1.5;" x1="1415" x2="1559" y1="110" y2="110"/><text fill="#000000" font-family="sans-serif" font-size="11" lengthAdjust="spacingAndGlyphs" textLength="41" x="1420" y="124.2104">-ID:  Int</text><text fill="#000000" font-family="sans-serif" font-size="11" lengthAdjust="spacingAndGlyphs" textLength="134" x="1420" y="137.0151">-params: CustomStruct</text><text fill="#000000" font-family="sans-serif" font-size="11" lengthAdjust="spacingAndGlyphs" textLength="81" x="1420" y="149.8198">-frame: Image</text><line style="stroke: #A80036; stroke-width: 1.5;" x1="1415" x2="1559" y1="156.4141" y2="156.4141"/><text fill="#000000" font-family="sans-serif" font-size="11" lengthAdjust="spacingAndGlyphs" textLength="75" x="1420" y="170.6245">~start(): void</text><text fill="#000000" font-family="sans-serif" font-size="11" lengthAdjust="spacingAndGlyphs" textLength="73" x="1420" y="183.4292">~stop(): void</text><text fill="#000000" font-family="sans-serif" font-size="11" lengthAdjust="spacingAndGlyphs" textLength="93" x="1420" y="196.2339">~get_id(): String</text><text fill="#000000" font-family="sans-serif" font-size="11" lengthAdjust="spacingAndGlyphs" textLength="111" x="1420" y="209.0386">~new_frame(): void</text><text fill="#000000" font-family="sans-serif" font-size="11" lengthAdjust="spacingAndGlyphs" textLength="118" x="1420" y="221.8433">~get_frame(): Image</text><!--class YOLO--><rect fill="#FEFECE" filter="url(#f1bmala9v7x1vf)" height="60.8047" id="YOLO" style="stroke: #A80036; stroke-width: 1.5;" width="141" x="1625.5" y="608"/><ellipse cx="1676.25" cy="624" fill="#ADD1B2" rx="11" ry="11" style="stroke: #A80036; stroke-width: 1.0;"/><path d="M1678.5938,619.6719 L1678.7656,619.75 C1678.9844,619.4375 1679.1875,619.3438 1679.4844,619.3438 C1679.7813,619.3438 1680.0625,619.4844 1680.2188,619.75 C1680.3125,619.9063 1680.3281,620.0313 1680.3281,620.4688 L1680.3281,621.8906 C1680.3281,622.3125 1680.2969,622.5 1680.1875,622.6563 C1680.0156,622.875 1679.75,623.0156 1679.4844,623.0156 C1679.2656,623.0156 1679.0313,622.9063 1678.8906,622.7656 C1678.75,622.6406 1678.7188,622.5156 1678.6563,622.1094 C1678.5625,621.7031 1678.3906,621.4844 1677.9063,621.2031 C1677.4375,620.9531 1676.8281,620.7969 1676.25,620.7969 C1674.5156,620.7969 1673.2656,622.1094 1673.2656,623.8906 L1673.2656,624.9844 C1673.2656,626.6875 1674.5625,627.7813 1676.6094,627.7813 C1677.375,627.7813 1678.0625,627.6563 1678.4844,627.3906 C1678.6719,627.2969 1678.6719,627.2969 1679.125,626.8125 C1679.3125,626.625 1679.5156,626.5469 1679.7344,626.5469 C1680.2031,626.5469 1680.5938,626.9375 1680.5938,627.3906 C1680.5938,627.7813 1680.2656,628.2344 1679.6875,628.6406 C1678.9375,629.1875 1677.7813,629.4844 1676.5625,629.4844 C1673.6719,629.4844 1671.5625,627.5938 1671.5625,625.0156 L1671.5625,623.8906 C1671.5625,621.1719 1673.5625,619.0938 1676.1875,619.0938 C1677.0625,619.0938 1677.6563,619.2344 1678.5938,619.6719 Z "/><text fill="#000000" font-family="sans-serif" font-size="12" lengthAdjust="spacingAndGlyphs" textLength="31" x="1696.75" y="628.1543">YOLO</text><line style="stroke: #A80036; stroke-width: 1.5;" x1="1626.5" x2="1765.5" y1="640" y2="640"/><line style="stroke: #A80036; stroke-width: 1.5;" x1="1626.5" x2="1765.5" y1="648" y2="648"/><text fill="#000000" font-family="sans-serif" font-size="11" lengthAdjust="spacingAndGlyphs" textLength="129" x="1631.5" y="662.2104">~detect(frame): Image</text><!--class DetectedObjects--><rect fill="#FEFECE" filter="url(#f1bmala9v7x1vf)" height="86.4141" id="DetectedObjects" style="stroke: #A80036; stroke-width: 1.5;" width="137" x="1519.5" y="796"/><ellipse cx="1534.5" cy="812" fill="#ADD1B2" rx="11" ry="11" style="stroke: #A80036; stroke-width: 1.0;"/><path d="M1536.8438,807.6719 L1537.0156,807.75 C1537.2344,807.4375 1537.4375,807.3438 1537.7344,807.3438 C1538.0313,807.3438 1538.3125,807.4844 1538.4688,807.75 C1538.5625,807.9063 1538.5781,808.0313 1538.5781,808.4688 L1538.5781,809.8906 C1538.5781,810.3125 1538.5469,810.5 1538.4375,810.6563 C1538.2656,810.875 1538,811.0156 1537.7344,811.0156 C1537.5156,811.0156 1537.2813,810.9063 1537.1406,810.7656 C1537,810.6406 1536.9688,810.5156 1536.9063,810.1094 C1536.8125,809.7031 1536.6406,809.4844 1536.1563,809.2031 C1535.6875,808.9531 1535.0781,808.7969 1534.5,808.7969 C1532.7656,808.7969 1531.5156,810.1094 1531.5156,811.8906 L1531.5156,812.9844 C1531.5156,814.6875 1532.8125,815.7813 1534.8594,815.7813 C1535.625,815.7813 1536.3125,815.6563 1536.7344,815.3906 C1536.9219,815.2969 1536.9219,815.2969 1537.375,814.8125 C1537.5625,814.625 1537.7656,814.5469 1537.9844,814.5469 C1538.4531,814.5469 1538.8438,814.9375 1538.8438,815.3906 C1538.8438,815.7813 1538.5156,816.2344 1537.9375,816.6406 C1537.1875,817.1875 1536.0313,817.4844 1534.8125,817.4844 C1531.9219,817.4844 1529.8125,815.5938 1529.8125,813.0156 L1529.8125,811.8906 C1529.8125,809.1719 1531.8125,807.0938 1534.4375,807.0938 C1535.3125,807.0938 1535.9063,807.2344 1536.8438,807.6719 Z "/><text fill="#000000" font-family="sans-serif" font-size="12" lengthAdjust="spacingAndGlyphs" textLength="105" x="1548.5" y="816.1543">DetectedObjects</text><line style="stroke: #A80036; stroke-width: 1.5;" x1="1520.5" x2="1655.5" y1="828" y2="828"/><text fill="#000000" font-family="sans-serif" font-size="11" lengthAdjust="spacingAndGlyphs" textLength="63" x="1525.5" y="842.2104">-list: String</text><line style="stroke: #A80036; stroke-width: 1.5;" x1="1520.5" x2="1655.5" y1="848.8047" y2="848.8047"/><text fill="#000000" font-family="sans-serif" font-size="11" lengthAdjust="spacingAndGlyphs" textLength="66" x="1525.5" y="863.0151">+set(): void</text><text fill="#000000" font-family="sans-serif" font-size="11" lengthAdjust="spacingAndGlyphs" textLength="77" x="1525.5" y="875.8198">+get(): String</text><!--class Iterator--><rect fill="#FEFECE" filter="url(#f1bmala9v7x1vf)" height="99.2188" id="Iterator" style="stroke: #A80036; stroke-width: 1.5;" width="110" x="1533" y="955"/><ellipse cx="1561.95" cy="971" fill="#ADD1B2" rx="11" ry="11" style="stroke: #A80036; stroke-width: 1.0;"/><path d="M1564.2938,966.6719 L1564.4656,966.75 C1564.6844,966.4375 1564.8875,966.3438 1565.1844,966.3438 C1565.4813,966.3438 1565.7625,966.4844 1565.9188,966.75 C1566.0125,966.9063 1566.0281,967.0313 1566.0281,967.4688 L1566.0281,968.8906 C1566.0281,969.3125 1565.9969,969.5 1565.8875,969.6563 C1565.7156,969.875 1565.45,970.0156 1565.1844,970.0156 C1564.9656,970.0156 1564.7313,969.9063 1564.5906,969.7656 C1564.45,969.6406 1564.4188,969.5156 1564.3563,969.1094 C1564.2625,968.7031 1564.0906,968.4844 1563.6063,968.2031 C1563.1375,967.9531 1562.5281,967.7969 1561.95,967.7969 C1560.2156,967.7969 1558.9656,969.1094 1558.9656,970.8906 L1558.9656,971.9844 C1558.9656,973.6875 1560.2625,974.7813 1562.3094,974.7813 C1563.075,974.7813 1563.7625,974.6563 1564.1844,974.3906 C1564.3719,974.2969 1564.3719,974.2969 1564.825,973.8125 C1565.0125,973.625 1565.2156,973.5469 1565.4344,973.5469 C1565.9031,973.5469 1566.2938,973.9375 1566.2938,974.3906 C1566.2938,974.7813 1565.9656,975.2344 1565.3875,975.6406 C1564.6375,976.1875 1563.4813,976.4844 1562.2625,976.4844 C1559.3719,976.4844 1557.2625,974.5938 1557.2625,972.0156 L1557.2625,970.8906 C1557.2625,968.1719 1559.2625,966.0938 1561.8875,966.0938 C1562.7625,966.0938 1563.3563,966.2344 1564.2938,966.6719 Z "/><text fill="#000000" font-family="sans-serif" font-size="12" lengthAdjust="spacingAndGlyphs" textLength="47" x="1579.05" y="975.1543">Iterator</text><line style="stroke: #A80036; stroke-width: 1.5;" x1="1534" x2="1642" y1="987" y2="987"/><text fill="#000000" font-family="sans-serif" font-size="11" lengthAdjust="spacingAndGlyphs" textLength="63" x="1539" y="1001.2104">-list: String</text><text fill="#000000" font-family="sans-serif" font-size="11" lengthAdjust="spacingAndGlyphs" textLength="49" x="1539" y="1014.0151">-Size: int</text><text fill="#000000" font-family="sans-serif" font-size="11" lengthAdjust="spacingAndGlyphs" textLength="56" x="1539" y="1026.8198">-Index: int</text><line style="stroke: #A80036; stroke-width: 1.5;" x1="1534" x2="1642" y1="1033.4141" y2="1033.4141"/><text fill="#000000" font-family="sans-serif" font-size="11" lengthAdjust="spacingAndGlyphs" textLength="98" x="1539" y="1047.6245">__next__(): String</text><!--class ObjectDetector--><rect fill="#FEFECE" filter="url(#f1bmala9v7x1vf)" height="73.6094" id="ObjectDetector" style="stroke: #A80036; stroke-width: 1.5;" width="141" x="1371.5" y="601.5"/><ellipse cx="1392.8" cy="617.5" fill="#ADD1B2" rx="11" ry="11" style="stroke: #A80036; stroke-width: 1.0;"/><path d="M1395.1438,613.1719 L1395.3156,613.25 C1395.5344,612.9375 1395.7375,612.8438 1396.0344,612.8438 C1396.3313,612.8438 1396.6125,612.9844 1396.7688,613.25 C1396.8625,613.4063 1396.8781,613.5313 1396.8781,613.9688 L1396.8781,615.3906 C1396.8781,615.8125 1396.8469,616 1396.7375,616.1563 C1396.5656,616.375 1396.3,616.5156 1396.0344,616.5156 C1395.8156,616.5156 1395.5813,616.4063 1395.4406,616.2656 C1395.3,616.1406 1395.2688,616.0156 1395.2063,615.6094 C1395.1125,615.2031 1394.9406,614.9844 1394.4563,614.7031 C1393.9875,614.4531 1393.3781,614.2969 1392.8,614.2969 C1391.0656,614.2969 1389.8156,615.6094 1389.8156,617.3906 L1389.8156,618.4844 C1389.8156,620.1875 1391.1125,621.2813 1393.1594,621.2813 C1393.925,621.2813 1394.6125,621.1563 1395.0344,620.8906 C1395.2219,620.7969 1395.2219,620.7969 1395.675,620.3125 C1395.8625,620.125 1396.0656,620.0469 1396.2844,620.0469 C1396.7531,620.0469 1397.1438,620.4375 1397.1438,620.8906 C1397.1438,621.2813 1396.8156,621.7344 1396.2375,622.1406 C1395.4875,622.6875 1394.3313,622.9844 1393.1125,622.9844 C1390.2219,622.9844 1388.1125,621.0938 1388.1125,618.5156 L1388.1125,617.3906 C1388.1125,614.6719 1390.1125,612.5938 1392.7375,612.5938 C1393.6125,612.5938 1394.2063,612.7344 1395.1438,613.1719 Z "/><text fill="#000000" font-family="sans-serif" font-size="12" lengthAdjust="spacingAndGlyphs" textLength="95" x="1408.2" y="621.6543">ObjectDetector</text><line style="stroke: #A80036; stroke-width: 1.5;" x1="1372.5" x2="1511.5" y1="633.5" y2="633.5"/><text fill="#000000" font-family="sans-serif" font-size="11" lengthAdjust="spacingAndGlyphs" textLength="90" x="1377.5" y="647.7104">+frame:  Image</text><line style="stroke: #A80036; stroke-width: 1.5;" x1="1372.5" x2="1511.5" y1="654.3047" y2="654.3047"/><text fill="#000000" font-family="sans-serif" font-size="11" lengthAdjust="spacingAndGlyphs" textLength="129" x="1377.5" y="668.5151">~detect(frame): Image</text><!--class CameraNode--><rect fill="#FEFECE" filter="url(#f1bmala9v7x1vf)" height="86.4141" id="CameraNode" style="stroke: #A80036; stroke-width: 1.5;" width="113" x="1371.5" y="796"/><ellipse cx="1386.5" cy="812" fill="#ADD1B2" rx="11" ry="11" style="stroke: #A80036; stroke-width: 1.0;"/><path d="M1388.8438,807.6719 L1389.0156,807.75 C1389.2344,807.4375 1389.4375,807.3438 1389.7344,807.3438 C1390.0313,807.3438 1390.3125,807.4844 1390.4688,807.75 C1390.5625,807.9063 1390.5781,808.0313 1390.5781,808.4688 L1390.5781,809.8906 C1390.5781,810.3125 1390.5469,810.5 1390.4375,810.6563 C1390.2656,810.875 1390,811.0156 1389.7344,811.0156 C1389.5156,811.0156 1389.2813,810.9063 1389.1406,810.7656 C1389,810.6406 1388.9688,810.5156 1388.9063,810.1094 C1388.8125,809.7031 1388.6406,809.4844 1388.1563,809.2031 C1387.6875,808.9531 1387.0781,808.7969 1386.5,808.7969 C1384.7656,808.7969 1383.5156,810.1094 1383.5156,811.8906 L1383.5156,812.9844 C1383.5156,814.6875 1384.8125,815.7813 1386.8594,815.7813 C1387.625,815.7813 1388.3125,815.6563 1388.7344,815.3906 C1388.9219,815.2969 1388.9219,815.2969 1389.375,814.8125 C1389.5625,814.625 1389.7656,814.5469 1389.9844,814.5469 C1390.4531,814.5469 1390.8438,814.9375 1390.8438,815.3906 C1390.8438,815.7813 1390.5156,816.2344 1389.9375,816.6406 C1389.1875,817.1875 1388.0313,817.4844 1386.8125,817.4844 C1383.9219,817.4844 1381.8125,815.5938 1381.8125,813.0156 L1381.8125,811.8906 C1381.8125,809.1719 1383.8125,807.0938 1386.4375,807.0938 C1387.3125,807.0938 1387.9063,807.2344 1388.8438,807.6719 Z "/><text fill="#000000" font-family="sans-serif" font-size="12" lengthAdjust="spacingAndGlyphs" textLength="81" x="1400.5" y="816.1543">CameraNode</text><line style="stroke: #A80036; stroke-width: 1.5;" x1="1372.5" x2="1483.5" y1="828" y2="828"/><text fill="#000000" font-family="sans-serif" font-size="11" lengthAdjust="spacingAndGlyphs" textLength="82" x="1377.5" y="842.2104">+topic:  String</text><line style="stroke: #A80036; stroke-width: 1.5;" x1="1372.5" x2="1483.5" y1="848.8047" y2="848.8047"/><text fill="#000000" font-family="sans-serif" font-size="11" lengthAdjust="spacingAndGlyphs" textLength="96" x="1377.5" y="863.0151">~startPub(): void</text><text fill="#000000" font-family="sans-serif" font-size="11" lengthAdjust="spacingAndGlyphs" textLength="94" x="1377.5" y="875.8198">~stopPub(): void</text><!--link Window to GtkLayersWindow--><path d="M195.766,486.148 C178.139,527.987 154.795,583.395 141.8,614.24 " fill="none" id="Window-GtkLayersWindow" style="stroke: #A80036; stroke-width: 1.0;"/><polygon fill="none" points="189.43,483.156,203.646,467.443,202.332,488.592,189.43,483.156" style="stroke: #A80036; stroke-width: 1.0;"/><text fill="#000000" font-family="sans-serif" font-size="13" lengthAdjust="spacingAndGlyphs" textLength="47" x="177" y="542.0669">inherits</text><!--link Window to GtkMainWindow--><path d="M241.166,486.148 C257.982,527.987 280.253,583.395 292.651,614.24 " fill="none" id="Window-GtkMainWindow" style="stroke: #A80036; stroke-width: 1.0;"/><polygon fill="none" points="234.612,488.61,233.648,467.443,247.602,483.389,234.612,488.61" style="stroke: #A80036; stroke-width: 1.0;"/><text fill="#000000" font-family="sans-serif" font-size="13" lengthAdjust="spacingAndGlyphs" textLength="47" x="264" y="542.0669">inherits</text><!--link Window to GtkToolboxWindow--><path d="M273.584,480.737 C280.717,486.969 287.983,493.191 295,499 C346.051,541.265 407.784,587.515 444.365,614.441 " fill="none" id="Window-GtkToolboxWindow" style="stroke: #A80036; stroke-width: 1.0;"/><polygon fill="none" points="268.665,485.73,258.334,467.229,277.947,475.25,268.665,485.73" style="stroke: #A80036; stroke-width: 1.0;"/><text fill="#000000" font-family="sans-serif" font-size="13" lengthAdjust="spacingAndGlyphs" textLength="47" x="355" y="542.0669">inherits</text><!--link Window to QtLayersWindow--><path d="M267.494,480.35 C276.148,487.352 285.463,493.895 295,499 C341.948,524.132 359.718,514.65 411,529 C480.733,548.514 502.099,543.886 567,576 C587.733,586.259 608.814,601.475 624.796,614.205 " fill="none" id="Window-QtLayersWindow" style="stroke: #A80036; stroke-width: 1.0;"/><polygon fill="none" points="262.703,485.459,252.257,467.023,271.919,474.921,262.703,485.459" style="stroke: #A80036; stroke-width: 1.0;"/><text fill="#000000" font-family="sans-serif" font-size="13" lengthAdjust="spacingAndGlyphs" textLength="47" x="484" y="542.0669">inherits</text><!--link Window to QtMainWindow--><path d="M265.818,480.561 C274.849,487.78 284.721,494.337 295,499 C394.903,544.32 432.043,509.511 540,529 C628.156,544.914 655.276,537.163 736,576 C756.205,585.721 776.107,601.261 790.881,614.287 " fill="none" id="Window-QtMainWindow" style="stroke: #A80036; stroke-width: 1.0;"/><polygon fill="none" points="260.941,485.593,250.565,467.118,270.197,475.09,260.941,485.593" style="stroke: #A80036; stroke-width: 1.0;"/><text fill="#000000" font-family="sans-serif" font-size="13" lengthAdjust="spacingAndGlyphs" textLength="47" x="652" y="542.0669">inherits</text><!--link Window to QtToolboxWindow--><path d="M265.021,480.508 C274.236,487.873 284.376,494.493 295,499 C379.712,534.936 617.165,514.28 708,529 C791.742,542.57 815.773,540.888 893,576 C914.885,585.95 937.135,601.325 953.913,614.213 " fill="none" id="Window-QtToolboxWindow" style="stroke: #A80036; stroke-width: 1.0;"/><polygon fill="none" points="260.33,485.705,250.002,467.203,269.614,475.226,260.33,485.705" style="stroke: #A80036; stroke-width: 1.0;"/><text fill="#000000" font-family="sans-serif" font-size="13" lengthAdjust="spacingAndGlyphs" textLength="47" x="811" y="542.0669">inherits</text><!--link UIFactory to GtkUIFactory--><path d="M425.129,371.928 C453.313,343.8 491.02,312.938 532,298 C643.073,257.511 688.442,253.575 798,298 C842.061,315.867 879.712,355.62 904.151,386.859 " fill="none" id="UIFactory-GtkUIFactory" style="stroke: #A80036; stroke-width: 1.0; stroke-dasharray: 7.0,7.0;"/><polygon fill="none" points="429.804,377.164,410.892,386.72,419.717,367.456,429.804,377.164" style="stroke: #A80036; stroke-width: 1.0;"/><text fill="#000000" font-family="sans-serif" font-size="13" lengthAdjust="spacingAndGlyphs" textLength="76" x="588" y="271.0669">implements</text><!--link UIFactory to QtUIFactory--><path d="M457.257,430 C485.882,430 518.549,430 549.368,430 " fill="none" id="UIFactory-QtUIFactory" style="stroke: #A80036; stroke-width: 1.0; stroke-dasharray: 7.0,7.0;"/><polygon fill="none" points="457.212,437,437.212,430,457.212,423,457.212,437" style="stroke: #A80036; stroke-width: 1.0;"/><text fill="#000000" font-family="sans-serif" font-size="13" lengthAdjust="spacingAndGlyphs" textLength="76" x="455.25" y="423.0669">implements</text><!--link Abstract_Coffee to Abstract_Coffee_Decorator--><path d="M2044.73,489.802 C2066.86,523.405 2094.1,564.769 2114.12,595.168 " fill="none" id="Abstract_Coffee-Abstract_Coffee_Decorator" style="stroke: #A80036; stroke-width: 1.0;"/><polygon fill="none" points="2038.84,493.59,2033.69,473.037,2050.53,485.89,2038.84,493.59" style="stroke: #A80036; stroke-width: 1.0;"/><text fill="#000000" font-family="sans-serif" font-size="13" lengthAdjust="spacingAndGlyphs" textLength="47" x="2079" y="542.0669">inherits</text><!--link Abstract_Coffee to Concrete_Coffee--><path d="M1982.73,491.839 C1969.11,527.437 1952.37,571.176 1940.82,601.383 " fill="none" id="Abstract_Coffee-Concrete_Coffee" style="stroke: #A80036; stroke-width: 1.0;"/><polygon fill="none" points="1976.23,489.216,1989.92,473.037,1989.31,494.218,1976.23,489.216" style="stroke: #A80036; stroke-width: 1.0;"/><text fill="#000000" font-family="sans-serif" font-size="13" lengthAdjust="spacingAndGlyphs" textLength="47" x="1968" y="542.0669">inherits</text><!--link Abstract_Coffee_Decorator to Milk--><path d="M2081.69,695.182 C2044.66,729.37 1998.31,772.165 1966.04,801.952 " fill="none" id="Abstract_Coffee_Decorator-Milk" style="stroke: #A80036; stroke-width: 1.0;"/><polygon fill="none" points="2076.96,690.021,2096.4,681.597,2086.46,700.307,2076.96,690.021" style="stroke: #A80036; stroke-width: 1.0;"/><text fill="#000000" font-family="sans-serif" font-size="13" lengthAdjust="spacingAndGlyphs" textLength="47" x="2023" y="762.0669">inherits</text><!--link Abstract_Coffee_Decorator to Sugar--><path d="M2135.42,701.658 C2131.93,734.646 2127.77,774.018 2124.81,801.952 " fill="none" id="Abstract_Coffee_Decorator-Sugar" style="stroke: #A80036; stroke-width: 1.0;"/><polygon fill="none" points="2128.48,700.749,2137.55,681.597,2142.4,702.222,2128.48,700.749" style="stroke: #A80036; stroke-width: 1.0;"/><text fill="#000000" font-family="sans-serif" font-size="13" lengthAdjust="spacingAndGlyphs" textLength="47" x="2131" y="762.0669">inherits</text><!--link Abstract_Coffee_Decorator to Vanilla--><path d="M2192.12,697.013 C2221.65,730.888 2258.08,772.694 2283.58,801.952 " fill="none" id="Abstract_Coffee_Decorator-Vanilla" style="stroke: #A80036; stroke-width: 1.0;"/><polygon fill="none" points="2186.55,701.273,2178.69,681.597,2197.11,692.075,2186.55,701.273" style="stroke: #A80036; stroke-width: 1.0;"/><text fill="#000000" font-family="sans-serif" font-size="13" lengthAdjust="spacingAndGlyphs" textLength="47" x="2250" y="762.0669">inherits</text><!--link Admin to DashboardNode--><path d="M1224,499.188 C1224,519.619 1224,542.128 1224,562.946 " fill="none" id="Admin-DashboardNode" style="stroke: #A80036; stroke-width: 1.0;"/><polygon fill="#FFFFFF" points="1224,575.999,1228,569.999,1224,563.999,1220,569.999,1224,575.999" style="stroke: #A80036; stroke-width: 1.0;"/><text fill="#000000" font-family="sans-serif" font-size="13" lengthAdjust="spacingAndGlyphs" textLength="23" x="1225" y="542.0669">has</text><!--link Camera to CamerasPool--><path d="M1506.66,228.057 C1518.88,274.092 1534.32,332.278 1545.45,374.175 " fill="none" id="Camera-CamerasPool" style="stroke: #A80036; stroke-width: 1.0;"/><polygon fill="#FFFFFF" points="1548.82,386.897,1551.1474,380.0718,1545.7424,375.2984,1543.415,382.1235,1548.82,386.897" style="stroke: #A80036; stroke-width: 1.0;"/><text fill="#000000" font-family="sans-serif" font-size="13" lengthAdjust="spacingAndGlyphs" textLength="23" x="1518" y="271.0669">has</text><!--link CamerasPool to ObjectDetector--><path d="M1533.41,477.535 C1511.99,515.026 1482.3,566.981 1462.64,601.383 " fill="none" id="CamerasPool-ObjectDetector" style="stroke: #A80036; stroke-width: 1.0;"/><polygon fill="#A80036" points="1535.98,473.037,1528.042,478.8669,1533.4995,477.3783,1534.9881,482.8358,1535.98,473.037" style="stroke: #A80036; stroke-width: 1.0;"/><text fill="#000000" font-family="sans-serif" font-size="13" lengthAdjust="spacingAndGlyphs" textLength="103" x="1502" y="542.0669">asks for camera</text><!--link Camera to ObjectDetector--><path d="M1453.98,233.204 C1448.59,249.409 1443.85,266.545 1441,283 C1421.12,397.922 1431.22,536.953 1437.81,601.429 " fill="none" id="Camera-ObjectDetector" style="stroke: #A80036; stroke-width: 1.0;"/><polygon fill="#A80036" points="1455.68,228.207,1449.0071,235.4508,1454.0779,232.9434,1456.5853,238.0142,1455.68,228.207" style="stroke: #A80036; stroke-width: 1.0;"/><text fill="#000000" font-family="sans-serif" font-size="13" lengthAdjust="spacingAndGlyphs" textLength="30" x="1442" y="434.5669">uses</text><!--link ObjectDetector to YOLO--><path d="M1512.75,638.5 C1541.26,638.5 1574.5,638.5 1604.79,638.5 " fill="none" id="ObjectDetector-YOLO" style="stroke: #A80036; stroke-width: 1.0; stroke-dasharray: 7.0,7.0;"/><polygon fill="none" points="1605.19,631.5,1625.19,638.5,1605.19,645.5,1605.19,631.5" style="stroke: #A80036; stroke-width: 1.0;"/><text fill="#000000" font-family="sans-serif" font-size="13" lengthAdjust="spacingAndGlyphs" textLength="76" x="1531" y="631.5669">implements</text><!--link ObjectDetector to CameraNode--><path d="M1438.01,696.073 C1435.77,727.876 1433.01,766.901 1430.96,795.975 " fill="none" id="ObjectDetector-CameraNode" style="stroke: #A80036; stroke-width: 1.0;"/><polygon fill="none" points="1431.04,695.366,1439.43,675.908,1445.01,696.351,1431.04,695.366" style="stroke: #A80036; stroke-width: 1.0;"/><text fill="#000000" font-family="sans-serif" font-size="13" lengthAdjust="spacingAndGlyphs" textLength="47" x="1436" y="762.0669">inherits</text><!--link ObjectDetector to DetectedObjects--><path d="M1476.73,686.722 C1501.16,719.933 1533.56,763.98 1557.09,795.975 " fill="none" id="ObjectDetector-DetectedObjects" style="stroke: #A80036; stroke-width: 1.0;"/><polygon fill="#FFFFFF" points="1468.78,675.908,1469.1132,683.1114,1475.8906,685.5744,1475.5574,678.371,1468.78,675.908" style="stroke: #A80036; stroke-width: 1.0;"/><text fill="#000000" font-family="sans-serif" font-size="13" lengthAdjust="spacingAndGlyphs" textLength="23" x="1534" y="762.0669">has</text><!--link DetectedObjects to Iterator--><path d="M1588,882.105 C1588,904.34 1588,931.738 1588,954.875 " fill="none" id="DetectedObjects-Iterator" style="stroke: #A80036; stroke-width: 1.0;"/><!--link DashboardNode to CameraNode--><path d="M1287.43,701.219 C1319.01,731.947 1356.37,768.304 1384.64,795.808 " fill="none" id="DashboardNode-CameraNode" style="stroke: #A80036; stroke-width: 1.0;"/><text fill="#000000" font-family="sans-serif" font-size="13" lengthAdjust="spacingAndGlyphs" textLength="24" x="1269.0552" y="720.9828">0..1</text><text fill="#000000" font-family="sans-serif" font-size="13" lengthAdjust="spacingAndGlyphs" textLength="23" x="1353.2396" y="785.0911">1..*</text><!--link Subscriber to Gui--><path d="M1116.8858,362.1786 C1116.8215,361.8898 1116.7568,361.6008 1116.6915,361.3113 C1116.1695,358.9959 1115.6147,356.6588 1115.025,354.3065 C1105.59,316.669 1087.23,275.115 1051.5,255.5 C1003.384,229.087 111.616,229.087 63.5,255.5 C30.2197,273.769 23.1969,315.281 24.8028,353.233 C25.2043,362.721 26.1451,371.9865 27.3497,380.6107 C27.952,384.9228 28.6203,389.0746 29.3201,393.0137 C29.4951,393.9985 29.672,394.9699 29.8504,395.9273 C29.8949,396.1667 29.9396,396.4051 29.9844,396.6427 " fill="none" id="Subscriber-Gui" style="stroke: #A80036; stroke-width: 1.0;"/><!--link Subscriber to CoffeeMachine--><path d="M1116.9857,396.6427 C1116.9409,396.4051 1116.8962,396.1667 1116.8517,395.9273 C1116.6733,394.9699 1116.4964,393.9985 1116.3214,393.0137 C1115.6215,389.0746 1114.9532,384.9228 1114.3509,380.6107 C1113.1462,371.9865 1112.2053,362.721 1111.8038,353.233 C1110.1975,315.281 1117.22,273.769 1150.5,255.5 C1210.4,222.617 1705.6,222.617 1765.5,255.5 C1782.835,265.0165 1795.1463,280.1587 1803.8503,297.6434 C1808.2023,306.3858 1811.6526,315.7138 1814.3781,325.2171 C1814.5484,325.811 1814.7159,326.4057 1814.8807,327.0009 " fill="none" id="Subscriber-CoffeeMachine" style="stroke: #A80036; stroke-width: 1.0;"/><!--
@startuml
skinparam classAttributeIconSize 0
package Gui #DD00DD {
 class UIFactory{
 getLayersWindow()
 getMainWindow()
 getToolboxWindow()
 }

 class GtkUIFactory{
 getLayersWindow(): GtkLayersWindow
 getMainWindow(): GtkMainWindow
 getToolboxWindow(): GtkToolboxWindow
 }

 class QtUIFactory{
 getLayersWindow(): QtLayersWindow
 getMainWindow(): QtMainWindow
 getToolboxWindow(): QtToolboxWindow
 }

 class Window{
 getToolkit(): String
 getType(): String
 }

 class GtkLayersWindow{
 }
 class GtkMainWindow{
 }
 class GtkToolboxWindow{
 }

 class QtLayersWindow{
 }
 class QtMainWindow{
 }
 class QtToolboxWindow{
 }

 Window <|- - GtkLayersWindow: inherits
 Window <|- - GtkMainWindow: inherits
 Window <|- - GtkToolboxWindow: inherits
 Window <|- - QtLayersWindow: inherits
 Window <|- - QtMainWindow: inherits
 Window <|- - QtToolboxWindow: inherits

 UIFactory <|. GtkUIFactory: implements
 UIFactory <|. QtUIFactory: implements
}

package CoffeeMachine #0000DD {

 class Abstract_Coffee{
 +get_cost(): void
 +get_ingredients(): void
 +get_tax(): void
}

 class Concrete_Coffee{
 +get_cost(): float
 +get_ingredients(): String
}

 class Abstract_Coffee_Decorator{
 +decorated_coffee
 +get_cost(): float
 +get_ingredients(): String
}

 class Milk{
 +get_cost(): float
 +get_ingredients(): String
}

 class Sugar{
 +get_cost(): float
 +get_ingredients(): String
}

 class Vanilla{
 +get_cost(): float
 +get_ingredients(): String
}

 Abstract_Coffee <|- - Abstract_Coffee_Decorator: inherits
 Abstract_Coffee <|- - Concrete_Coffee: inherits
 Abstract_Coffee_Decorator <|- - Milk: inherits
 Abstract_Coffee_Decorator <|- - Sugar: inherits
 Abstract_Coffee_Decorator <|- - Vanilla: inherits

}


package Subscriber #DDDD00 {

 class Admin{
 +ID: String 
 -PW: String 
 -access_level: Int
 -create(): void
 -delete(): void
 ~login(): void
 ~logout(): void
} 
 class DashboardNode {
 +topic: String 
 +frame: Image
 ~startSub(): void
 ~stopSub(): void
 ~report(): CustomStruct
 ~screenShot(): Image
}

  Admin - -o DashboardNode: has
}

package Publisher #00DDDD {

 class CamerasPool{
 -reusables: Camera []
 ~aqcuire(): Camera
 ~release(): void

}
  class Camera{
 -ID:  Int
 -params: CustomStruct
 -frame: Image
 ~start(): void
 ~stop(): void
 ~get_id(): String
 ~new_frame(): void
 ~get_frame(): Image
}

  class YOLO{
 ~detect(frame): Image
}

  class DetectedObjects{
 -list: String
 +set(): void
 +get(): String
}
  
  class Iterator{
 -list: String
 -Size: int
 -Index: int
 __next__(): String
}

  class ObjectDetector{
 +frame:  Image
 ~detect(frame): Image
}

  class CameraNode{
 +topic:  String
 ~startPub(): void
 ~stopPub(): void
}

  Camera - -o CamerasPool: has
  CamerasPool <- - ObjectDetector: asks for camera
  Camera <- - ObjectDetector: uses
  ObjectDetector .|> YOLO: implements
  ObjectDetector <|- - CameraNode: inherits
  ObjectDetector o- - DetectedObjects: has
  DetectedObjects - - Iterator
}

DashboardNode "0..1" - - "1..*" CameraNode
Subscriber - Gui
Subscriber - CoffeeMachine
@enduml

PlantUML version 1.2019.07beta1(Unknown compile time)
(GPL source distribution)
Java Runtime: Java(TM) SE Runtime Environment
JVM: Java HotSpot(TM) 64-Bit Server VM
Java Version: 1.7.0_25-b15
Operating System: Linux
Default Encoding: UTF-8
Language: en
Country: US
--></g><style xmlns="" type="text/css" id="igtranslator-color"/></svg>