<?xml version="1.0" encoding="UTF-8" standalone="no"?>
<svg xmlns="http://www.w3.org/2000/svg" xmlns:xlink="http://www.w3.org/1999/xlink" contentScriptType="application/ecmascript" contentStyleType="text/css" height="1282px" preserveAspectRatio="none" style="width:2392px;height:1282px;" version="1.1" viewBox="0 0 2392 1282" width="2392px" zoomAndPan="magnify"><defs><filter height="300%" id="f12qcegz9a2gof" width="300%" x="-1" y="-1"><feGaussianBlur result="blurOut" stdDeviation="2.0"/><feColorMatrix in="blurOut" result="blurOut2" type="matrix" values="0 0 0 0 0 0 0 0 0 0 0 0 0 0 0 0 0 0 .4 0"/><feOffset dx="4.0" dy="4.0" in="blurOut2" result="blurOut3"/><feBlend in="SourceGraphic" in2="blurOut3" mode="normal"/></filter></defs><g><!--cluster Gui--><polygon fill="#DD00DD" filter="url(#f12qcegz9a2gof)" points="30,202.5,62,202.5,69,224.7969,1077,224.7969,1077,616.5,30,616.5,30,202.5" style="stroke: #000000; stroke-width: 1.5;"/><line style="stroke: #000000; stroke-width: 1.5;" x1="30" x2="69" y1="224.7969" y2="224.7969"/><text fill="#000000" font-family="sans-serif" font-size="14" font-weight="bold" lengthAdjust="spacingAndGlyphs" textLength="26" x="34" y="217.4951">Gui</text><!--cluster CoffeeMachine--><polygon fill="#0000DD" filter="url(#f12qcegz9a2gof)" points="1766,202.5,1890,202.5,1897,224.7969,2370,224.7969,2370,902,1766,902,1766,202.5" style="stroke: #000000; stroke-width: 1.5;"/><line style="stroke: #000000; stroke-width: 1.5;" x1="1766" x2="1897" y1="224.7969" y2="224.7969"/><text fill="#000000" font-family="sans-serif" font-size="14" font-weight="bold" lengthAdjust="spacingAndGlyphs" textLength="118" x="1770" y="217.4951">CoffeeMachine</text><!--cluster Subscriber--><polygon fill="#DDDD00" filter="url(#f12qcegz9a2gof)" points="1520,176.5,1612,176.5,1619,198.7969,1726,198.7969,1726,655,1520,655,1520,176.5" style="stroke: #000000; stroke-width: 1.5;"/><line style="stroke: #000000; stroke-width: 1.5;" x1="1520" x2="1619" y1="198.7969" y2="198.7969"/><text fill="#000000" font-family="sans-serif" font-size="14" font-weight="bold" lengthAdjust="spacingAndGlyphs" textLength="86" x="1524" y="191.4951">Subscriber</text><!--cluster Detector--><polygon fill="#00DD00" filter="url(#f12qcegz9a2gof)" points="660,712,735,712,742,734.2969,1076,734.2969,1076,1108,660,1108,660,712" style="stroke: #000000; stroke-width: 1.5;"/><line style="stroke: #000000; stroke-width: 1.5;" x1="660" x2="742" y1="734.2969" y2="734.2969"/><text fill="#000000" font-family="sans-serif" font-size="14" font-weight="bold" lengthAdjust="spacingAndGlyphs" textLength="69" x="664" y="726.9951">Detector</text><!--cluster Publisher--><polygon fill="#00DDDD" filter="url(#f12qcegz9a2gof)" points="1109,439.5,1189,439.5,1196,461.7969,1488,461.7969,1488,1270,1109,1270,1109,439.5" style="stroke: #000000; stroke-width: 1.5;"/><line style="stroke: #000000; stroke-width: 1.5;" x1="1109" x2="1196" y1="461.7969" y2="461.7969"/><text fill="#000000" font-family="sans-serif" font-size="14" font-weight="bold" lengthAdjust="spacingAndGlyphs" textLength="74" x="1113" y="454.4951">Publisher</text><!--class UIFactory--><rect fill="#FEFECE" filter="url(#f12qcegz9a2gof)" height="86.4141" id="UIFactory" style="stroke: #A80036; stroke-width: 1.5;" width="124" x="313" y="264.5"/><ellipse cx="343.3" cy="280.5" fill="#ADD1B2" rx="11" ry="11" style="stroke: #A80036; stroke-width: 1.0;"/><path d="M345.6438,276.1719 L345.8156,276.25 C346.0344,275.9375 346.2375,275.8438 346.5344,275.8438 C346.8313,275.8438 347.1125,275.9844 347.2688,276.25 C347.3625,276.4063 347.3781,276.5313 347.3781,276.9688 L347.3781,278.3906 C347.3781,278.8125 347.3469,279 347.2375,279.1563 C347.0656,279.375 346.8,279.5156 346.5344,279.5156 C346.3156,279.5156 346.0813,279.4063 345.9406,279.2656 C345.8,279.1406 345.7688,279.0156 345.7063,278.6094 C345.6125,278.2031 345.4406,277.9844 344.9563,277.7031 C344.4875,277.4531 343.8781,277.2969 343.3,277.2969 C341.5656,277.2969 340.3156,278.6094 340.3156,280.3906 L340.3156,281.4844 C340.3156,283.1875 341.6125,284.2813 343.6594,284.2813 C344.425,284.2813 345.1125,284.1563 345.5344,283.8906 C345.7219,283.7969 345.7219,283.7969 346.175,283.3125 C346.3625,283.125 346.5656,283.0469 346.7844,283.0469 C347.2531,283.0469 347.6438,283.4375 347.6438,283.8906 C347.6438,284.2813 347.3156,284.7344 346.7375,285.1406 C345.9875,285.6875 344.8313,285.9844 343.6125,285.9844 C340.7219,285.9844 338.6125,284.0938 338.6125,281.5156 L338.6125,280.3906 C338.6125,277.6719 340.6125,275.5938 343.2375,275.5938 C344.1125,275.5938 344.7063,275.7344 345.6438,276.1719 Z "/><text fill="#000000" font-family="sans-serif" font-size="12" lengthAdjust="spacingAndGlyphs" textLength="58" x="360.7" y="284.6543">UIFactory</text><line style="stroke: #A80036; stroke-width: 1.5;" x1="314" x2="436" y1="296.5" y2="296.5"/><line style="stroke: #A80036; stroke-width: 1.5;" x1="314" x2="436" y1="304.5" y2="304.5"/><text fill="#000000" font-family="sans-serif" font-size="11" lengthAdjust="spacingAndGlyphs" textLength="106" x="319" y="318.7104">getLayersWindow()</text><text fill="#000000" font-family="sans-serif" font-size="11" lengthAdjust="spacingAndGlyphs" textLength="94" x="319" y="331.5151">getMainWindow()</text><text fill="#000000" font-family="sans-serif" font-size="11" lengthAdjust="spacingAndGlyphs" textLength="112" x="319" y="344.3198">getToolboxWindow()</text><!--class GtkUIFactory--><rect fill="#FEFECE" filter="url(#f12qcegz9a2gof)" height="86.4141" id="GtkUIFactory" style="stroke: #A80036; stroke-width: 1.5;" width="237" x="815.5" y="264.5"/><ellipse cx="890.25" cy="280.5" fill="#ADD1B2" rx="11" ry="11" style="stroke: #A80036; stroke-width: 1.0;"/><path d="M892.5938,276.1719 L892.7656,276.25 C892.9844,275.9375 893.1875,275.8438 893.4844,275.8438 C893.7813,275.8438 894.0625,275.9844 894.2188,276.25 C894.3125,276.4063 894.3281,276.5313 894.3281,276.9688 L894.3281,278.3906 C894.3281,278.8125 894.2969,279 894.1875,279.1563 C894.0156,279.375 893.75,279.5156 893.4844,279.5156 C893.2656,279.5156 893.0313,279.4063 892.8906,279.2656 C892.75,279.1406 892.7188,279.0156 892.6563,278.6094 C892.5625,278.2031 892.3906,277.9844 891.9063,277.7031 C891.4375,277.4531 890.8281,277.2969 890.25,277.2969 C888.5156,277.2969 887.2656,278.6094 887.2656,280.3906 L887.2656,281.4844 C887.2656,283.1875 888.5625,284.2813 890.6094,284.2813 C891.375,284.2813 892.0625,284.1563 892.4844,283.8906 C892.6719,283.7969 892.6719,283.7969 893.125,283.3125 C893.3125,283.125 893.5156,283.0469 893.7344,283.0469 C894.2031,283.0469 894.5938,283.4375 894.5938,283.8906 C894.5938,284.2813 894.2656,284.7344 893.6875,285.1406 C892.9375,285.6875 891.7813,285.9844 890.5625,285.9844 C887.6719,285.9844 885.5625,284.0938 885.5625,281.5156 L885.5625,280.3906 C885.5625,277.6719 887.5625,275.5938 890.1875,275.5938 C891.0625,275.5938 891.6563,275.7344 892.5938,276.1719 Z "/><text fill="#000000" font-family="sans-serif" font-size="12" lengthAdjust="spacingAndGlyphs" textLength="79" x="910.75" y="284.6543">GtkUIFactory</text><line style="stroke: #A80036; stroke-width: 1.5;" x1="816.5" x2="1051.5" y1="296.5" y2="296.5"/><line style="stroke: #A80036; stroke-width: 1.5;" x1="816.5" x2="1051.5" y1="304.5" y2="304.5"/><text fill="#000000" font-family="sans-serif" font-size="11" lengthAdjust="spacingAndGlyphs" textLength="213" x="821.5" y="318.7104">getLayersWindow(): GtkLayersWindow</text><text fill="#000000" font-family="sans-serif" font-size="11" lengthAdjust="spacingAndGlyphs" textLength="189" x="821.5" y="331.5151">getMainWindow(): GtkMainWindow</text><text fill="#000000" font-family="sans-serif" font-size="11" lengthAdjust="spacingAndGlyphs" textLength="225" x="821.5" y="344.3198">getToolboxWindow(): GtkToolboxWindow</text><!--class QtUIFactory--><rect fill="#FEFECE" filter="url(#f12qcegz9a2gof)" height="86.4141" id="QtUIFactory" style="stroke: #A80036; stroke-width: 1.5;" width="231" x="549.5" y="264.5"/><ellipse cx="624.75" cy="280.5" fill="#ADD1B2" rx="11" ry="11" style="stroke: #A80036; stroke-width: 1.0;"/><path d="M627.0938,276.1719 L627.2656,276.25 C627.4844,275.9375 627.6875,275.8438 627.9844,275.8438 C628.2813,275.8438 628.5625,275.9844 628.7188,276.25 C628.8125,276.4063 628.8281,276.5313 628.8281,276.9688 L628.8281,278.3906 C628.8281,278.8125 628.7969,279 628.6875,279.1563 C628.5156,279.375 628.25,279.5156 627.9844,279.5156 C627.7656,279.5156 627.5313,279.4063 627.3906,279.2656 C627.25,279.1406 627.2188,279.0156 627.1563,278.6094 C627.0625,278.2031 626.8906,277.9844 626.4063,277.7031 C625.9375,277.4531 625.3281,277.2969 624.75,277.2969 C623.0156,277.2969 621.7656,278.6094 621.7656,280.3906 L621.7656,281.4844 C621.7656,283.1875 623.0625,284.2813 625.1094,284.2813 C625.875,284.2813 626.5625,284.1563 626.9844,283.8906 C627.1719,283.7969 627.1719,283.7969 627.625,283.3125 C627.8125,283.125 628.0156,283.0469 628.2344,283.0469 C628.7031,283.0469 629.0938,283.4375 629.0938,283.8906 C629.0938,284.2813 628.7656,284.7344 628.1875,285.1406 C627.4375,285.6875 626.2813,285.9844 625.0625,285.9844 C622.1719,285.9844 620.0625,284.0938 620.0625,281.5156 L620.0625,280.3906 C620.0625,277.6719 622.0625,275.5938 624.6875,275.5938 C625.5625,275.5938 626.1563,275.7344 627.0938,276.1719 Z "/><text fill="#000000" font-family="sans-serif" font-size="12" lengthAdjust="spacingAndGlyphs" textLength="72" x="645.25" y="284.6543">QtUIFactory</text><line style="stroke: #A80036; stroke-width: 1.5;" x1="550.5" x2="779.5" y1="296.5" y2="296.5"/><line style="stroke: #A80036; stroke-width: 1.5;" x1="550.5" x2="779.5" y1="304.5" y2="304.5"/><text fill="#000000" font-family="sans-serif" font-size="11" lengthAdjust="spacingAndGlyphs" textLength="207" x="555.5" y="318.7104">getLayersWindow(): QtLayersWindow</text><text fill="#000000" font-family="sans-serif" font-size="11" lengthAdjust="spacingAndGlyphs" textLength="183" x="555.5" y="331.5151">getMainWindow(): QtMainWindow</text><text fill="#000000" font-family="sans-serif" font-size="11" lengthAdjust="spacingAndGlyphs" textLength="219" x="555.5" y="344.3198">getToolboxWindow(): QtToolboxWindow</text><!--class Window--><rect fill="#FEFECE" filter="url(#f12qcegz9a2gof)" height="73.6094" id="Window" style="stroke: #A80036; stroke-width: 1.5;" width="117" x="160.5" y="270.5"/><ellipse cx="192.6" cy="286.5" fill="#ADD1B2" rx="11" ry="11" style="stroke: #A80036; stroke-width: 1.0;"/><path d="M194.9438,282.1719 L195.1156,282.25 C195.3344,281.9375 195.5375,281.8438 195.8344,281.8438 C196.1313,281.8438 196.4125,281.9844 196.5688,282.25 C196.6625,282.4063 196.6781,282.5313 196.6781,282.9688 L196.6781,284.3906 C196.6781,284.8125 196.6469,285 196.5375,285.1563 C196.3656,285.375 196.1,285.5156 195.8344,285.5156 C195.6156,285.5156 195.3813,285.4063 195.2406,285.2656 C195.1,285.1406 195.0688,285.0156 195.0063,284.6094 C194.9125,284.2031 194.7406,283.9844 194.2563,283.7031 C193.7875,283.4531 193.1781,283.2969 192.6,283.2969 C190.8656,283.2969 189.6156,284.6094 189.6156,286.3906 L189.6156,287.4844 C189.6156,289.1875 190.9125,290.2813 192.9594,290.2813 C193.725,290.2813 194.4125,290.1563 194.8344,289.8906 C195.0219,289.7969 195.0219,289.7969 195.475,289.3125 C195.6625,289.125 195.8656,289.0469 196.0844,289.0469 C196.5531,289.0469 196.9438,289.4375 196.9438,289.8906 C196.9438,290.2813 196.6156,290.7344 196.0375,291.1406 C195.2875,291.6875 194.1313,291.9844 192.9125,291.9844 C190.0219,291.9844 187.9125,290.0938 187.9125,287.5156 L187.9125,286.3906 C187.9125,283.6719 189.9125,281.5938 192.5375,281.5938 C193.4125,281.5938 194.0063,281.7344 194.9438,282.1719 Z "/><text fill="#000000" font-family="sans-serif" font-size="12" lengthAdjust="spacingAndGlyphs" textLength="47" x="210.4" y="290.6543">Window</text><line style="stroke: #A80036; stroke-width: 1.5;" x1="161.5" x2="276.5" y1="302.5" y2="302.5"/><line style="stroke: #A80036; stroke-width: 1.5;" x1="161.5" x2="276.5" y1="310.5" y2="310.5"/><text fill="#000000" font-family="sans-serif" font-size="11" lengthAdjust="spacingAndGlyphs" textLength="105" x="166.5" y="324.7104">getToolkit(): String</text><text fill="#000000" font-family="sans-serif" font-size="11" lengthAdjust="spacingAndGlyphs" textLength="95" x="166.5" y="337.5151">getType(): String</text><!--class GtkLayersWindow--><rect fill="#FEFECE" filter="url(#f12qcegz9a2gof)" height="48" id="GtkLayersWindow" style="stroke: #A80036; stroke-width: 1.5;" width="140" x="62" y="544.5"/><ellipse cx="77" cy="560.5" fill="#ADD1B2" rx="11" ry="11" style="stroke: #A80036; stroke-width: 1.0;"/><path d="M79.3438,556.1719 L79.5156,556.25 C79.7344,555.9375 79.9375,555.8438 80.2344,555.8438 C80.5313,555.8438 80.8125,555.9844 80.9688,556.25 C81.0625,556.4063 81.0781,556.5313 81.0781,556.9688 L81.0781,558.3906 C81.0781,558.8125 81.0469,559 80.9375,559.1563 C80.7656,559.375 80.5,559.5156 80.2344,559.5156 C80.0156,559.5156 79.7813,559.4063 79.6406,559.2656 C79.5,559.1406 79.4688,559.0156 79.4063,558.6094 C79.3125,558.2031 79.1406,557.9844 78.6563,557.7031 C78.1875,557.4531 77.5781,557.2969 77,557.2969 C75.2656,557.2969 74.0156,558.6094 74.0156,560.3906 L74.0156,561.4844 C74.0156,563.1875 75.3125,564.2813 77.3594,564.2813 C78.125,564.2813 78.8125,564.1563 79.2344,563.8906 C79.4219,563.7969 79.4219,563.7969 79.875,563.3125 C80.0625,563.125 80.2656,563.0469 80.4844,563.0469 C80.9531,563.0469 81.3438,563.4375 81.3438,563.8906 C81.3438,564.2813 81.0156,564.7344 80.4375,565.1406 C79.6875,565.6875 78.5313,565.9844 77.3125,565.9844 C74.4219,565.9844 72.3125,564.0938 72.3125,561.5156 L72.3125,560.3906 C72.3125,557.6719 74.3125,555.5938 76.9375,555.5938 C77.8125,555.5938 78.4063,555.7344 79.3438,556.1719 Z "/><text fill="#000000" font-family="sans-serif" font-size="12" lengthAdjust="spacingAndGlyphs" textLength="108" x="91" y="564.6543">GtkLayersWindow</text><line style="stroke: #A80036; stroke-width: 1.5;" x1="63" x2="201" y1="576.5" y2="576.5"/><line style="stroke: #A80036; stroke-width: 1.5;" x1="63" x2="201" y1="584.5" y2="584.5"/><!--class GtkMainWindow--><rect fill="#FEFECE" filter="url(#f12qcegz9a2gof)" height="48" id="GtkMainWindow" style="stroke: #A80036; stroke-width: 1.5;" width="129" x="237.5" y="544.5"/><ellipse cx="252.5" cy="560.5" fill="#ADD1B2" rx="11" ry="11" style="stroke: #A80036; stroke-width: 1.0;"/><path d="M254.8438,556.1719 L255.0156,556.25 C255.2344,555.9375 255.4375,555.8438 255.7344,555.8438 C256.0313,555.8438 256.3125,555.9844 256.4688,556.25 C256.5625,556.4063 256.5781,556.5313 256.5781,556.9688 L256.5781,558.3906 C256.5781,558.8125 256.5469,559 256.4375,559.1563 C256.2656,559.375 256,559.5156 255.7344,559.5156 C255.5156,559.5156 255.2813,559.4063 255.1406,559.2656 C255,559.1406 254.9688,559.0156 254.9063,558.6094 C254.8125,558.2031 254.6406,557.9844 254.1563,557.7031 C253.6875,557.4531 253.0781,557.2969 252.5,557.2969 C250.7656,557.2969 249.5156,558.6094 249.5156,560.3906 L249.5156,561.4844 C249.5156,563.1875 250.8125,564.2813 252.8594,564.2813 C253.625,564.2813 254.3125,564.1563 254.7344,563.8906 C254.9219,563.7969 254.9219,563.7969 255.375,563.3125 C255.5625,563.125 255.7656,563.0469 255.9844,563.0469 C256.4531,563.0469 256.8438,563.4375 256.8438,563.8906 C256.8438,564.2813 256.5156,564.7344 255.9375,565.1406 C255.1875,565.6875 254.0313,565.9844 252.8125,565.9844 C249.9219,565.9844 247.8125,564.0938 247.8125,561.5156 L247.8125,560.3906 C247.8125,557.6719 249.8125,555.5938 252.4375,555.5938 C253.3125,555.5938 253.9063,555.7344 254.8438,556.1719 Z "/><text fill="#000000" font-family="sans-serif" font-size="12" lengthAdjust="spacingAndGlyphs" textLength="97" x="266.5" y="564.6543">GtkMainWindow</text><line style="stroke: #A80036; stroke-width: 1.5;" x1="238.5" x2="365.5" y1="576.5" y2="576.5"/><line style="stroke: #A80036; stroke-width: 1.5;" x1="238.5" x2="365.5" y1="584.5" y2="584.5"/><!--class GtkToolboxWindow--><rect fill="#FEFECE" filter="url(#f12qcegz9a2gof)" height="48" id="GtkToolboxWindow" style="stroke: #A80036; stroke-width: 1.5;" width="148" x="402" y="544.5"/><ellipse cx="417" cy="560.5" fill="#ADD1B2" rx="11" ry="11" style="stroke: #A80036; stroke-width: 1.0;"/><path d="M419.3438,556.1719 L419.5156,556.25 C419.7344,555.9375 419.9375,555.8438 420.2344,555.8438 C420.5313,555.8438 420.8125,555.9844 420.9688,556.25 C421.0625,556.4063 421.0781,556.5313 421.0781,556.9688 L421.0781,558.3906 C421.0781,558.8125 421.0469,559 420.9375,559.1563 C420.7656,559.375 420.5,559.5156 420.2344,559.5156 C420.0156,559.5156 419.7813,559.4063 419.6406,559.2656 C419.5,559.1406 419.4688,559.0156 419.4063,558.6094 C419.3125,558.2031 419.1406,557.9844 418.6563,557.7031 C418.1875,557.4531 417.5781,557.2969 417,557.2969 C415.2656,557.2969 414.0156,558.6094 414.0156,560.3906 L414.0156,561.4844 C414.0156,563.1875 415.3125,564.2813 417.3594,564.2813 C418.125,564.2813 418.8125,564.1563 419.2344,563.8906 C419.4219,563.7969 419.4219,563.7969 419.875,563.3125 C420.0625,563.125 420.2656,563.0469 420.4844,563.0469 C420.9531,563.0469 421.3438,563.4375 421.3438,563.8906 C421.3438,564.2813 421.0156,564.7344 420.4375,565.1406 C419.6875,565.6875 418.5313,565.9844 417.3125,565.9844 C414.4219,565.9844 412.3125,564.0938 412.3125,561.5156 L412.3125,560.3906 C412.3125,557.6719 414.3125,555.5938 416.9375,555.5938 C417.8125,555.5938 418.4063,555.7344 419.3438,556.1719 Z "/><text fill="#000000" font-family="sans-serif" font-size="12" lengthAdjust="spacingAndGlyphs" textLength="116" x="431" y="564.6543">GtkToolboxWindow</text><line style="stroke: #A80036; stroke-width: 1.5;" x1="403" x2="549" y1="576.5" y2="576.5"/><line style="stroke: #A80036; stroke-width: 1.5;" x1="403" x2="549" y1="584.5" y2="584.5"/><!--class QtLayersWindow--><rect fill="#FEFECE" filter="url(#f12qcegz9a2gof)" height="48" id="QtLayersWindow" style="stroke: #A80036; stroke-width: 1.5;" width="133" x="585.5" y="544.5"/><ellipse cx="600.5" cy="560.5" fill="#ADD1B2" rx="11" ry="11" style="stroke: #A80036; stroke-width: 1.0;"/><path d="M602.8438,556.1719 L603.0156,556.25 C603.2344,555.9375 603.4375,555.8438 603.7344,555.8438 C604.0313,555.8438 604.3125,555.9844 604.4688,556.25 C604.5625,556.4063 604.5781,556.5313 604.5781,556.9688 L604.5781,558.3906 C604.5781,558.8125 604.5469,559 604.4375,559.1563 C604.2656,559.375 604,559.5156 603.7344,559.5156 C603.5156,559.5156 603.2813,559.4063 603.1406,559.2656 C603,559.1406 602.9688,559.0156 602.9063,558.6094 C602.8125,558.2031 602.6406,557.9844 602.1563,557.7031 C601.6875,557.4531 601.0781,557.2969 600.5,557.2969 C598.7656,557.2969 597.5156,558.6094 597.5156,560.3906 L597.5156,561.4844 C597.5156,563.1875 598.8125,564.2813 600.8594,564.2813 C601.625,564.2813 602.3125,564.1563 602.7344,563.8906 C602.9219,563.7969 602.9219,563.7969 603.375,563.3125 C603.5625,563.125 603.7656,563.0469 603.9844,563.0469 C604.4531,563.0469 604.8438,563.4375 604.8438,563.8906 C604.8438,564.2813 604.5156,564.7344 603.9375,565.1406 C603.1875,565.6875 602.0313,565.9844 600.8125,565.9844 C597.9219,565.9844 595.8125,564.0938 595.8125,561.5156 L595.8125,560.3906 C595.8125,557.6719 597.8125,555.5938 600.4375,555.5938 C601.3125,555.5938 601.9063,555.7344 602.8438,556.1719 Z "/><text fill="#000000" font-family="sans-serif" font-size="12" lengthAdjust="spacingAndGlyphs" textLength="101" x="614.5" y="564.6543">QtLayersWindow</text><line style="stroke: #A80036; stroke-width: 1.5;" x1="586.5" x2="717.5" y1="576.5" y2="576.5"/><line style="stroke: #A80036; stroke-width: 1.5;" x1="586.5" x2="717.5" y1="584.5" y2="584.5"/><!--class QtMainWindow--><rect fill="#FEFECE" filter="url(#f12qcegz9a2gof)" height="48" id="QtMainWindow" style="stroke: #A80036; stroke-width: 1.5;" width="122" x="754" y="544.5"/><ellipse cx="769" cy="560.5" fill="#ADD1B2" rx="11" ry="11" style="stroke: #A80036; stroke-width: 1.0;"/><path d="M771.3438,556.1719 L771.5156,556.25 C771.7344,555.9375 771.9375,555.8438 772.2344,555.8438 C772.5313,555.8438 772.8125,555.9844 772.9688,556.25 C773.0625,556.4063 773.0781,556.5313 773.0781,556.9688 L773.0781,558.3906 C773.0781,558.8125 773.0469,559 772.9375,559.1563 C772.7656,559.375 772.5,559.5156 772.2344,559.5156 C772.0156,559.5156 771.7813,559.4063 771.6406,559.2656 C771.5,559.1406 771.4688,559.0156 771.4063,558.6094 C771.3125,558.2031 771.1406,557.9844 770.6563,557.7031 C770.1875,557.4531 769.5781,557.2969 769,557.2969 C767.2656,557.2969 766.0156,558.6094 766.0156,560.3906 L766.0156,561.4844 C766.0156,563.1875 767.3125,564.2813 769.3594,564.2813 C770.125,564.2813 770.8125,564.1563 771.2344,563.8906 C771.4219,563.7969 771.4219,563.7969 771.875,563.3125 C772.0625,563.125 772.2656,563.0469 772.4844,563.0469 C772.9531,563.0469 773.3438,563.4375 773.3438,563.8906 C773.3438,564.2813 773.0156,564.7344 772.4375,565.1406 C771.6875,565.6875 770.5313,565.9844 769.3125,565.9844 C766.4219,565.9844 764.3125,564.0938 764.3125,561.5156 L764.3125,560.3906 C764.3125,557.6719 766.3125,555.5938 768.9375,555.5938 C769.8125,555.5938 770.4063,555.7344 771.3438,556.1719 Z "/><text fill="#000000" font-family="sans-serif" font-size="12" lengthAdjust="spacingAndGlyphs" textLength="90" x="783" y="564.6543">QtMainWindow</text><line style="stroke: #A80036; stroke-width: 1.5;" x1="755" x2="875" y1="576.5" y2="576.5"/><line style="stroke: #A80036; stroke-width: 1.5;" x1="755" x2="875" y1="584.5" y2="584.5"/><!--class QtToolboxWindow--><rect fill="#FEFECE" filter="url(#f12qcegz9a2gof)" height="48" id="QtToolboxWindow" style="stroke: #A80036; stroke-width: 1.5;" width="141" x="911.5" y="544.5"/><ellipse cx="926.5" cy="560.5" fill="#ADD1B2" rx="11" ry="11" style="stroke: #A80036; stroke-width: 1.0;"/><path d="M928.8438,556.1719 L929.0156,556.25 C929.2344,555.9375 929.4375,555.8438 929.7344,555.8438 C930.0313,555.8438 930.3125,555.9844 930.4688,556.25 C930.5625,556.4063 930.5781,556.5313 930.5781,556.9688 L930.5781,558.3906 C930.5781,558.8125 930.5469,559 930.4375,559.1563 C930.2656,559.375 930,559.5156 929.7344,559.5156 C929.5156,559.5156 929.2813,559.4063 929.1406,559.2656 C929,559.1406 928.9688,559.0156 928.9063,558.6094 C928.8125,558.2031 928.6406,557.9844 928.1563,557.7031 C927.6875,557.4531 927.0781,557.2969 926.5,557.2969 C924.7656,557.2969 923.5156,558.6094 923.5156,560.3906 L923.5156,561.4844 C923.5156,563.1875 924.8125,564.2813 926.8594,564.2813 C927.625,564.2813 928.3125,564.1563 928.7344,563.8906 C928.9219,563.7969 928.9219,563.7969 929.375,563.3125 C929.5625,563.125 929.7656,563.0469 929.9844,563.0469 C930.4531,563.0469 930.8438,563.4375 930.8438,563.8906 C930.8438,564.2813 930.5156,564.7344 929.9375,565.1406 C929.1875,565.6875 928.0313,565.9844 926.8125,565.9844 C923.9219,565.9844 921.8125,564.0938 921.8125,561.5156 L921.8125,560.3906 C921.8125,557.6719 923.8125,555.5938 926.4375,555.5938 C927.3125,555.5938 927.9063,555.7344 928.8438,556.1719 Z "/><text fill="#000000" font-family="sans-serif" font-size="12" lengthAdjust="spacingAndGlyphs" textLength="109" x="940.5" y="564.6543">QtToolboxWindow</text><line style="stroke: #A80036; stroke-width: 1.5;" x1="912.5" x2="1051.5" y1="576.5" y2="576.5"/><line style="stroke: #A80036; stroke-width: 1.5;" x1="912.5" x2="1051.5" y1="584.5" y2="584.5"/><!--class Abstract_Coffee--><rect fill="#FEFECE" filter="url(#f12qcegz9a2gof)" height="86.4141" id="Abstract_Coffee" style="stroke: #A80036; stroke-width: 1.5;" width="148" x="1883" y="264.5"/><ellipse cx="1905.65" cy="280.5" fill="#ADD1B2" rx="11" ry="11" style="stroke: #A80036; stroke-width: 1.0;"/><path d="M1907.9938,276.1719 L1908.1656,276.25 C1908.3844,275.9375 1908.5875,275.8438 1908.8844,275.8438 C1909.1813,275.8438 1909.4625,275.9844 1909.6188,276.25 C1909.7125,276.4063 1909.7281,276.5313 1909.7281,276.9688 L1909.7281,278.3906 C1909.7281,278.8125 1909.6969,279 1909.5875,279.1563 C1909.4156,279.375 1909.15,279.5156 1908.8844,279.5156 C1908.6656,279.5156 1908.4313,279.4063 1908.2906,279.2656 C1908.15,279.1406 1908.1188,279.0156 1908.0563,278.6094 C1907.9625,278.2031 1907.7906,277.9844 1907.3063,277.7031 C1906.8375,277.4531 1906.2281,277.2969 1905.65,277.2969 C1903.9156,277.2969 1902.6656,278.6094 1902.6656,280.3906 L1902.6656,281.4844 C1902.6656,283.1875 1903.9625,284.2813 1906.0094,284.2813 C1906.775,284.2813 1907.4625,284.1563 1907.8844,283.8906 C1908.0719,283.7969 1908.0719,283.7969 1908.525,283.3125 C1908.7125,283.125 1908.9156,283.0469 1909.1344,283.0469 C1909.6031,283.0469 1909.9938,283.4375 1909.9938,283.8906 C1909.9938,284.2813 1909.6656,284.7344 1909.0875,285.1406 C1908.3375,285.6875 1907.1813,285.9844 1905.9625,285.9844 C1903.0719,285.9844 1900.9625,284.0938 1900.9625,281.5156 L1900.9625,280.3906 C1900.9625,277.6719 1902.9625,275.5938 1905.5875,275.5938 C1906.4625,275.5938 1907.0563,275.7344 1907.9938,276.1719 Z "/><text fill="#000000" font-family="sans-serif" font-size="12" lengthAdjust="spacingAndGlyphs" textLength="99" x="1921.35" y="284.6543">Abstract_Coffee</text><line style="stroke: #A80036; stroke-width: 1.5;" x1="1884" x2="2030" y1="296.5" y2="296.5"/><line style="stroke: #A80036; stroke-width: 1.5;" x1="1884" x2="2030" y1="304.5" y2="304.5"/><text fill="#000000" font-family="sans-serif" font-size="11" lengthAdjust="spacingAndGlyphs" textLength="96" x="1889" y="318.7104">+get_cost(): void</text><text fill="#000000" font-family="sans-serif" font-size="11" lengthAdjust="spacingAndGlyphs" textLength="136" x="1889" y="331.5151">+get_ingredients(): void</text><text fill="#000000" font-family="sans-serif" font-size="11" lengthAdjust="spacingAndGlyphs" textLength="89" x="1889" y="344.3198">+get_tax(): void</text><!--class Concrete_Coffee--><rect fill="#FEFECE" filter="url(#f12qcegz9a2gof)" height="73.6094" id="Concrete_Coffee" style="stroke: #A80036; stroke-width: 1.5;" width="159" x="1798.5" y="531.5"/><ellipse cx="1824.3" cy="547.5" fill="#ADD1B2" rx="11" ry="11" style="stroke: #A80036; stroke-width: 1.0;"/><path d="M1826.6438,543.1719 L1826.8156,543.25 C1827.0344,542.9375 1827.2375,542.8438 1827.5344,542.8438 C1827.8313,542.8438 1828.1125,542.9844 1828.2688,543.25 C1828.3625,543.4063 1828.3781,543.5313 1828.3781,543.9688 L1828.3781,545.3906 C1828.3781,545.8125 1828.3469,546 1828.2375,546.1563 C1828.0656,546.375 1827.8,546.5156 1827.5344,546.5156 C1827.3156,546.5156 1827.0813,546.4063 1826.9406,546.2656 C1826.8,546.1406 1826.7688,546.0156 1826.7063,545.6094 C1826.6125,545.2031 1826.4406,544.9844 1825.9563,544.7031 C1825.4875,544.4531 1824.8781,544.2969 1824.3,544.2969 C1822.5656,544.2969 1821.3156,545.6094 1821.3156,547.3906 L1821.3156,548.4844 C1821.3156,550.1875 1822.6125,551.2813 1824.6594,551.2813 C1825.425,551.2813 1826.1125,551.1563 1826.5344,550.8906 C1826.7219,550.7969 1826.7219,550.7969 1827.175,550.3125 C1827.3625,550.125 1827.5656,550.0469 1827.7844,550.0469 C1828.2531,550.0469 1828.6438,550.4375 1828.6438,550.8906 C1828.6438,551.2813 1828.3156,551.7344 1827.7375,552.1406 C1826.9875,552.6875 1825.8313,552.9844 1824.6125,552.9844 C1821.7219,552.9844 1819.6125,551.0938 1819.6125,548.5156 L1819.6125,547.3906 C1819.6125,544.6719 1821.6125,542.5938 1824.2375,542.5938 C1825.1125,542.5938 1825.7063,542.7344 1826.6438,543.1719 Z "/><text fill="#000000" font-family="sans-serif" font-size="12" lengthAdjust="spacingAndGlyphs" textLength="103" x="1840.7" y="551.6543">Concrete_Coffee</text><line style="stroke: #A80036; stroke-width: 1.5;" x1="1799.5" x2="1956.5" y1="563.5" y2="563.5"/><line style="stroke: #A80036; stroke-width: 1.5;" x1="1799.5" x2="1956.5" y1="571.5" y2="571.5"/><text fill="#000000" font-family="sans-serif" font-size="11" lengthAdjust="spacingAndGlyphs" textLength="98" x="1804.5" y="585.7104">+get_cost(): float</text><text fill="#000000" font-family="sans-serif" font-size="11" lengthAdjust="spacingAndGlyphs" textLength="147" x="1804.5" y="598.5151">+get_ingredients(): String</text><!--class Abstract_Coffee_Decorator--><rect fill="#FEFECE" filter="url(#f12qcegz9a2gof)" height="86.4141" id="Abstract_Coffee_Decorator" style="stroke: #A80036; stroke-width: 1.5;" width="200" x="1993" y="525.5"/><ellipse cx="2008" cy="541.5" fill="#ADD1B2" rx="11" ry="11" style="stroke: #A80036; stroke-width: 1.0;"/><path d="M2010.3438,537.1719 L2010.5156,537.25 C2010.7344,536.9375 2010.9375,536.8438 2011.2344,536.8438 C2011.5313,536.8438 2011.8125,536.9844 2011.9688,537.25 C2012.0625,537.4063 2012.0781,537.5313 2012.0781,537.9688 L2012.0781,539.3906 C2012.0781,539.8125 2012.0469,540 2011.9375,540.1563 C2011.7656,540.375 2011.5,540.5156 2011.2344,540.5156 C2011.0156,540.5156 2010.7813,540.4063 2010.6406,540.2656 C2010.5,540.1406 2010.4688,540.0156 2010.4063,539.6094 C2010.3125,539.2031 2010.1406,538.9844 2009.6563,538.7031 C2009.1875,538.4531 2008.5781,538.2969 2008,538.2969 C2006.2656,538.2969 2005.0156,539.6094 2005.0156,541.3906 L2005.0156,542.4844 C2005.0156,544.1875 2006.3125,545.2813 2008.3594,545.2813 C2009.125,545.2813 2009.8125,545.1563 2010.2344,544.8906 C2010.4219,544.7969 2010.4219,544.7969 2010.875,544.3125 C2011.0625,544.125 2011.2656,544.0469 2011.4844,544.0469 C2011.9531,544.0469 2012.3438,544.4375 2012.3438,544.8906 C2012.3438,545.2813 2012.0156,545.7344 2011.4375,546.1406 C2010.6875,546.6875 2009.5313,546.9844 2008.3125,546.9844 C2005.4219,546.9844 2003.3125,545.0938 2003.3125,542.5156 L2003.3125,541.3906 C2003.3125,538.6719 2005.3125,536.5938 2007.9375,536.5938 C2008.8125,536.5938 2009.4063,536.7344 2010.3438,537.1719 Z "/><text fill="#000000" font-family="sans-serif" font-size="12" lengthAdjust="spacingAndGlyphs" textLength="168" x="2022" y="545.6543">Abstract_Coffee_Decorator</text><line style="stroke: #A80036; stroke-width: 1.5;" x1="1994" x2="2192" y1="557.5" y2="557.5"/><text fill="#000000" font-family="sans-serif" font-size="11" lengthAdjust="spacingAndGlyphs" textLength="107" x="1999" y="571.7104">+decorated_coffee</text><line style="stroke: #A80036; stroke-width: 1.5;" x1="1994" x2="2192" y1="578.3047" y2="578.3047"/><text fill="#000000" font-family="sans-serif" font-size="11" lengthAdjust="spacingAndGlyphs" textLength="98" x="1999" y="592.5151">+get_cost(): float</text><text fill="#000000" font-family="sans-serif" font-size="11" lengthAdjust="spacingAndGlyphs" textLength="147" x="1999" y="605.3198">+get_ingredients(): String</text><!--class Milk--><rect fill="#FEFECE" filter="url(#f12qcegz9a2gof)" height="73.6094" id="Milk" style="stroke: #A80036; stroke-width: 1.5;" width="159" x="1798.5" y="804"/><ellipse cx="1862.25" cy="820" fill="#ADD1B2" rx="11" ry="11" style="stroke: #A80036; stroke-width: 1.0;"/><path d="M1864.5938,815.6719 L1864.7656,815.75 C1864.9844,815.4375 1865.1875,815.3438 1865.4844,815.3438 C1865.7813,815.3438 1866.0625,815.4844 1866.2188,815.75 C1866.3125,815.9063 1866.3281,816.0313 1866.3281,816.4688 L1866.3281,817.8906 C1866.3281,818.3125 1866.2969,818.5 1866.1875,818.6563 C1866.0156,818.875 1865.75,819.0156 1865.4844,819.0156 C1865.2656,819.0156 1865.0313,818.9063 1864.8906,818.7656 C1864.75,818.6406 1864.7188,818.5156 1864.6563,818.1094 C1864.5625,817.7031 1864.3906,817.4844 1863.9063,817.2031 C1863.4375,816.9531 1862.8281,816.7969 1862.25,816.7969 C1860.5156,816.7969 1859.2656,818.1094 1859.2656,819.8906 L1859.2656,820.9844 C1859.2656,822.6875 1860.5625,823.7813 1862.6094,823.7813 C1863.375,823.7813 1864.0625,823.6563 1864.4844,823.3906 C1864.6719,823.2969 1864.6719,823.2969 1865.125,822.8125 C1865.3125,822.625 1865.5156,822.5469 1865.7344,822.5469 C1866.2031,822.5469 1866.5938,822.9375 1866.5938,823.3906 C1866.5938,823.7813 1866.2656,824.2344 1865.6875,824.6406 C1864.9375,825.1875 1863.7813,825.4844 1862.5625,825.4844 C1859.6719,825.4844 1857.5625,823.5938 1857.5625,821.0156 L1857.5625,819.8906 C1857.5625,817.1719 1859.5625,815.0938 1862.1875,815.0938 C1863.0625,815.0938 1863.6563,815.2344 1864.5938,815.6719 Z "/><text fill="#000000" font-family="sans-serif" font-size="12" lengthAdjust="spacingAndGlyphs" textLength="23" x="1882.75" y="824.1543">Milk</text><line style="stroke: #A80036; stroke-width: 1.5;" x1="1799.5" x2="1956.5" y1="836" y2="836"/><line style="stroke: #A80036; stroke-width: 1.5;" x1="1799.5" x2="1956.5" y1="844" y2="844"/><text fill="#000000" font-family="sans-serif" font-size="11" lengthAdjust="spacingAndGlyphs" textLength="98" x="1804.5" y="858.2104">+get_cost(): float</text><text fill="#000000" font-family="sans-serif" font-size="11" lengthAdjust="spacingAndGlyphs" textLength="147" x="1804.5" y="871.0151">+get_ingredients(): String</text><!--class Sugar--><rect fill="#FEFECE" filter="url(#f12qcegz9a2gof)" height="73.6094" id="Sugar" style="stroke: #A80036; stroke-width: 1.5;" width="159" x="1992.5" y="804"/><ellipse cx="2049.25" cy="820" fill="#ADD1B2" rx="11" ry="11" style="stroke: #A80036; stroke-width: 1.0;"/><path d="M2051.5938,815.6719 L2051.7656,815.75 C2051.9844,815.4375 2052.1875,815.3438 2052.4844,815.3438 C2052.7813,815.3438 2053.0625,815.4844 2053.2188,815.75 C2053.3125,815.9063 2053.3281,816.0313 2053.3281,816.4688 L2053.3281,817.8906 C2053.3281,818.3125 2053.2969,818.5 2053.1875,818.6563 C2053.0156,818.875 2052.75,819.0156 2052.4844,819.0156 C2052.2656,819.0156 2052.0313,818.9063 2051.8906,818.7656 C2051.75,818.6406 2051.7188,818.5156 2051.6563,818.1094 C2051.5625,817.7031 2051.3906,817.4844 2050.9063,817.2031 C2050.4375,816.9531 2049.8281,816.7969 2049.25,816.7969 C2047.5156,816.7969 2046.2656,818.1094 2046.2656,819.8906 L2046.2656,820.9844 C2046.2656,822.6875 2047.5625,823.7813 2049.6094,823.7813 C2050.375,823.7813 2051.0625,823.6563 2051.4844,823.3906 C2051.6719,823.2969 2051.6719,823.2969 2052.125,822.8125 C2052.3125,822.625 2052.5156,822.5469 2052.7344,822.5469 C2053.2031,822.5469 2053.5938,822.9375 2053.5938,823.3906 C2053.5938,823.7813 2053.2656,824.2344 2052.6875,824.6406 C2051.9375,825.1875 2050.7813,825.4844 2049.5625,825.4844 C2046.6719,825.4844 2044.5625,823.5938 2044.5625,821.0156 L2044.5625,819.8906 C2044.5625,817.1719 2046.5625,815.0938 2049.1875,815.0938 C2050.0625,815.0938 2050.6563,815.2344 2051.5938,815.6719 Z "/><text fill="#000000" font-family="sans-serif" font-size="12" lengthAdjust="spacingAndGlyphs" textLength="37" x="2069.75" y="824.1543">Sugar</text><line style="stroke: #A80036; stroke-width: 1.5;" x1="1993.5" x2="2150.5" y1="836" y2="836"/><line style="stroke: #A80036; stroke-width: 1.5;" x1="1993.5" x2="2150.5" y1="844" y2="844"/><text fill="#000000" font-family="sans-serif" font-size="11" lengthAdjust="spacingAndGlyphs" textLength="98" x="1998.5" y="858.2104">+get_cost(): float</text><text fill="#000000" font-family="sans-serif" font-size="11" lengthAdjust="spacingAndGlyphs" textLength="147" x="1998.5" y="871.0151">+get_ingredients(): String</text><!--class Vanilla--><rect fill="#FEFECE" filter="url(#f12qcegz9a2gof)" height="73.6094" id="Vanilla" style="stroke: #A80036; stroke-width: 1.5;" width="159" x="2186.5" y="804"/><ellipse cx="2241.25" cy="820" fill="#ADD1B2" rx="11" ry="11" style="stroke: #A80036; stroke-width: 1.0;"/><path d="M2243.5938,815.6719 L2243.7656,815.75 C2243.9844,815.4375 2244.1875,815.3438 2244.4844,815.3438 C2244.7813,815.3438 2245.0625,815.4844 2245.2188,815.75 C2245.3125,815.9063 2245.3281,816.0313 2245.3281,816.4688 L2245.3281,817.8906 C2245.3281,818.3125 2245.2969,818.5 2245.1875,818.6563 C2245.0156,818.875 2244.75,819.0156 2244.4844,819.0156 C2244.2656,819.0156 2244.0313,818.9063 2243.8906,818.7656 C2243.75,818.6406 2243.7188,818.5156 2243.6563,818.1094 C2243.5625,817.7031 2243.3906,817.4844 2242.9063,817.2031 C2242.4375,816.9531 2241.8281,816.7969 2241.25,816.7969 C2239.5156,816.7969 2238.2656,818.1094 2238.2656,819.8906 L2238.2656,820.9844 C2238.2656,822.6875 2239.5625,823.7813 2241.6094,823.7813 C2242.375,823.7813 2243.0625,823.6563 2243.4844,823.3906 C2243.6719,823.2969 2243.6719,823.2969 2244.125,822.8125 C2244.3125,822.625 2244.5156,822.5469 2244.7344,822.5469 C2245.2031,822.5469 2245.5938,822.9375 2245.5938,823.3906 C2245.5938,823.7813 2245.2656,824.2344 2244.6875,824.6406 C2243.9375,825.1875 2242.7813,825.4844 2241.5625,825.4844 C2238.6719,825.4844 2236.5625,823.5938 2236.5625,821.0156 L2236.5625,819.8906 C2236.5625,817.1719 2238.5625,815.0938 2241.1875,815.0938 C2242.0625,815.0938 2242.6563,815.2344 2243.5938,815.6719 Z "/><text fill="#000000" font-family="sans-serif" font-size="12" lengthAdjust="spacingAndGlyphs" textLength="41" x="2261.75" y="824.1543">Vanilla</text><line style="stroke: #A80036; stroke-width: 1.5;" x1="2187.5" x2="2344.5" y1="836" y2="836"/><line style="stroke: #A80036; stroke-width: 1.5;" x1="2187.5" x2="2344.5" y1="844" y2="844"/><text fill="#000000" font-family="sans-serif" font-size="11" lengthAdjust="spacingAndGlyphs" textLength="98" x="2192.5" y="858.2104">+get_cost(): float</text><text fill="#000000" font-family="sans-serif" font-size="11" lengthAdjust="spacingAndGlyphs" textLength="147" x="2192.5" y="871.0151">+get_ingredients(): String</text><!--class Admin--><rect fill="#FEFECE" filter="url(#f12qcegz9a2gof)" height="137.6328" id="Admin" style="stroke: #A80036; stroke-width: 1.5;" width="110" x="1572" y="238.5"/><ellipse cx="1605" cy="254.5" fill="#ADD1B2" rx="11" ry="11" style="stroke: #A80036; stroke-width: 1.0;"/><path d="M1607.3438,250.1719 L1607.5156,250.25 C1607.7344,249.9375 1607.9375,249.8438 1608.2344,249.8438 C1608.5313,249.8438 1608.8125,249.9844 1608.9688,250.25 C1609.0625,250.4063 1609.0781,250.5313 1609.0781,250.9688 L1609.0781,252.3906 C1609.0781,252.8125 1609.0469,253 1608.9375,253.1563 C1608.7656,253.375 1608.5,253.5156 1608.2344,253.5156 C1608.0156,253.5156 1607.7813,253.4063 1607.6406,253.2656 C1607.5,253.1406 1607.4688,253.0156 1607.4063,252.6094 C1607.3125,252.2031 1607.1406,251.9844 1606.6563,251.7031 C1606.1875,251.4531 1605.5781,251.2969 1605,251.2969 C1603.2656,251.2969 1602.0156,252.6094 1602.0156,254.3906 L1602.0156,255.4844 C1602.0156,257.1875 1603.3125,258.2813 1605.3594,258.2813 C1606.125,258.2813 1606.8125,258.1563 1607.2344,257.8906 C1607.4219,257.7969 1607.4219,257.7969 1607.875,257.3125 C1608.0625,257.125 1608.2656,257.0469 1608.4844,257.0469 C1608.9531,257.0469 1609.3438,257.4375 1609.3438,257.8906 C1609.3438,258.2813 1609.0156,258.7344 1608.4375,259.1406 C1607.6875,259.6875 1606.5313,259.9844 1605.3125,259.9844 C1602.4219,259.9844 1600.3125,258.0938 1600.3125,255.5156 L1600.3125,254.3906 C1600.3125,251.6719 1602.3125,249.5938 1604.9375,249.5938 C1605.8125,249.5938 1606.4063,249.7344 1607.3438,250.1719 Z "/><text fill="#000000" font-family="sans-serif" font-size="12" lengthAdjust="spacingAndGlyphs" textLength="38" x="1623" y="258.6543">Admin</text><line style="stroke: #A80036; stroke-width: 1.5;" x1="1573" x2="1681" y1="270.5" y2="270.5"/><text fill="#000000" font-family="sans-serif" font-size="11" lengthAdjust="spacingAndGlyphs" textLength="62" x="1578" y="284.7104">+ID: String</text><text fill="#000000" font-family="sans-serif" font-size="11" lengthAdjust="spacingAndGlyphs" textLength="62" x="1578" y="297.5151">-PW: String</text><text fill="#000000" font-family="sans-serif" font-size="11" lengthAdjust="spacingAndGlyphs" textLength="98" x="1578" y="310.3198">-access_level: Int</text><line style="stroke: #A80036; stroke-width: 1.5;" x1="1573" x2="1681" y1="316.9141" y2="316.9141"/><text fill="#000000" font-family="sans-serif" font-size="11" lengthAdjust="spacingAndGlyphs" textLength="79" x="1578" y="331.1245">-create(): void</text><text fill="#000000" font-family="sans-serif" font-size="11" lengthAdjust="spacingAndGlyphs" textLength="78" x="1578" y="343.9292">-delete(): void</text><text fill="#000000" font-family="sans-serif" font-size="11" lengthAdjust="spacingAndGlyphs" textLength="75" x="1578" y="356.7339">~login(): void</text><text fill="#000000" font-family="sans-serif" font-size="11" lengthAdjust="spacingAndGlyphs" textLength="83" x="1578" y="369.5386">~logout(): void</text><!--class DashboardNode--><rect fill="#FEFECE" filter="url(#f12qcegz9a2gof)" height="124.8281" id="DashboardNode" style="stroke: #A80036; stroke-width: 1.5;" width="150" x="1552" y="506"/><ellipse cx="1574.2" cy="522" fill="#ADD1B2" rx="11" ry="11" style="stroke: #A80036; stroke-width: 1.0;"/><path d="M1576.5438,517.6719 L1576.7156,517.75 C1576.9344,517.4375 1577.1375,517.3438 1577.4344,517.3438 C1577.7313,517.3438 1578.0125,517.4844 1578.1688,517.75 C1578.2625,517.9063 1578.2781,518.0313 1578.2781,518.4688 L1578.2781,519.8906 C1578.2781,520.3125 1578.2469,520.5 1578.1375,520.6563 C1577.9656,520.875 1577.7,521.0156 1577.4344,521.0156 C1577.2156,521.0156 1576.9813,520.9063 1576.8406,520.7656 C1576.7,520.6406 1576.6688,520.5156 1576.6063,520.1094 C1576.5125,519.7031 1576.3406,519.4844 1575.8563,519.2031 C1575.3875,518.9531 1574.7781,518.7969 1574.2,518.7969 C1572.4656,518.7969 1571.2156,520.1094 1571.2156,521.8906 L1571.2156,522.9844 C1571.2156,524.6875 1572.5125,525.7813 1574.5594,525.7813 C1575.325,525.7813 1576.0125,525.6563 1576.4344,525.3906 C1576.6219,525.2969 1576.6219,525.2969 1577.075,524.8125 C1577.2625,524.625 1577.4656,524.5469 1577.6844,524.5469 C1578.1531,524.5469 1578.5438,524.9375 1578.5438,525.3906 C1578.5438,525.7813 1578.2156,526.2344 1577.6375,526.6406 C1576.8875,527.1875 1575.7313,527.4844 1574.5125,527.4844 C1571.6219,527.4844 1569.5125,525.5938 1569.5125,523.0156 L1569.5125,521.8906 C1569.5125,519.1719 1571.5125,517.0938 1574.1375,517.0938 C1575.0125,517.0938 1575.6063,517.2344 1576.5438,517.6719 Z "/><text fill="#000000" font-family="sans-serif" font-size="12" lengthAdjust="spacingAndGlyphs" textLength="102" x="1589.8" y="526.1543">DashboardNode</text><line style="stroke: #A80036; stroke-width: 1.5;" x1="1553" x2="1701" y1="538" y2="538"/><text fill="#000000" font-family="sans-serif" font-size="11" lengthAdjust="spacingAndGlyphs" textLength="78" x="1558" y="552.2104">+topic: String</text><text fill="#000000" font-family="sans-serif" font-size="11" lengthAdjust="spacingAndGlyphs" textLength="86" x="1558" y="565.0151">+frame: Image</text><line style="stroke: #A80036; stroke-width: 1.5;" x1="1553" x2="1701" y1="571.6094" y2="571.6094"/><text fill="#000000" font-family="sans-serif" font-size="11" lengthAdjust="spacingAndGlyphs" textLength="97" x="1558" y="585.8198">~startSub(): void</text><text fill="#000000" font-family="sans-serif" font-size="11" lengthAdjust="spacingAndGlyphs" textLength="95" x="1558" y="598.6245">~stopSub(): void</text><text fill="#000000" font-family="sans-serif" font-size="11" lengthAdjust="spacingAndGlyphs" textLength="138" x="1558" y="611.4292">~report(): CustomStruct</text><text fill="#000000" font-family="sans-serif" font-size="11" lengthAdjust="spacingAndGlyphs" textLength="125" x="1558" y="624.2339">~screenShot(): Image</text><!--class Prototype--><rect fill="#FEFECE" filter="url(#f12qcegz9a2gof)" height="112.0234" id="Prototype" style="stroke: #A80036; stroke-width: 1.5;" width="105" x="722.5" y="785"/><ellipse cx="742.9" cy="801" fill="#ADD1B2" rx="11" ry="11" style="stroke: #A80036; stroke-width: 1.0;"/><path d="M745.2438,796.6719 L745.4156,796.75 C745.6344,796.4375 745.8375,796.3438 746.1344,796.3438 C746.4313,796.3438 746.7125,796.4844 746.8688,796.75 C746.9625,796.9063 746.9781,797.0313 746.9781,797.4688 L746.9781,798.8906 C746.9781,799.3125 746.9469,799.5 746.8375,799.6563 C746.6656,799.875 746.4,800.0156 746.1344,800.0156 C745.9156,800.0156 745.6813,799.9063 745.5406,799.7656 C745.4,799.6406 745.3688,799.5156 745.3063,799.1094 C745.2125,798.7031 745.0406,798.4844 744.5563,798.2031 C744.0875,797.9531 743.4781,797.7969 742.9,797.7969 C741.1656,797.7969 739.9156,799.1094 739.9156,800.8906 L739.9156,801.9844 C739.9156,803.6875 741.2125,804.7813 743.2594,804.7813 C744.025,804.7813 744.7125,804.6563 745.1344,804.3906 C745.3219,804.2969 745.3219,804.2969 745.775,803.8125 C745.9625,803.625 746.1656,803.5469 746.3844,803.5469 C746.8531,803.5469 747.2438,803.9375 747.2438,804.3906 C747.2438,804.7813 746.9156,805.2344 746.3375,805.6406 C745.5875,806.1875 744.4313,806.4844 743.2125,806.4844 C740.3219,806.4844 738.2125,804.5938 738.2125,802.0156 L738.2125,800.8906 C738.2125,798.1719 740.2125,796.0938 742.8375,796.0938 C743.7125,796.0938 744.3063,796.2344 745.2438,796.6719 Z "/><text fill="#000000" font-family="sans-serif" font-size="12" lengthAdjust="spacingAndGlyphs" textLength="61" x="758.1" y="805.1543">Prototype</text><line style="stroke: #A80036; stroke-width: 1.5;" x1="723.5" x2="826.5" y1="817" y2="817"/><text fill="#000000" font-family="sans-serif" font-size="11" lengthAdjust="spacingAndGlyphs" textLength="70" x="728.5" y="831.2104">-type: String</text><text fill="#000000" font-family="sans-serif" font-size="11" lengthAdjust="spacingAndGlyphs" textLength="56" x="728.5" y="844.0151">-value: int</text><line style="stroke: #A80036; stroke-width: 1.5;" x1="723.5" x2="826.5" y1="850.6094" y2="850.6094"/><text fill="#000000" font-family="sans-serif" font-size="11" lengthAdjust="spacingAndGlyphs" textLength="69" x="728.5" y="864.8198">clone(): void</text><text fill="#000000" font-family="sans-serif" font-size="11" lengthAdjust="spacingAndGlyphs" textLength="87" x="728.5" y="877.6245">get_type(): void</text><text fill="#000000" font-family="sans-serif" font-size="11" lengthAdjust="spacingAndGlyphs" textLength="93" x="728.5" y="890.4292">get_value(): void</text><!--class YOLO--><rect fill="#FEFECE" filter="url(#f12qcegz9a2gof)" height="99.2188" id="YOLO" style="stroke: #A80036; stroke-width: 1.5;" width="141" x="676.5" y="993"/><ellipse cx="727.25" cy="1009" fill="#ADD1B2" rx="11" ry="11" style="stroke: #A80036; stroke-width: 1.0;"/><path d="M729.5938,1004.6719 L729.7656,1004.75 C729.9844,1004.4375 730.1875,1004.3438 730.4844,1004.3438 C730.7813,1004.3438 731.0625,1004.4844 731.2188,1004.75 C731.3125,1004.9063 731.3281,1005.0313 731.3281,1005.4688 L731.3281,1006.8906 C731.3281,1007.3125 731.2969,1007.5 731.1875,1007.6563 C731.0156,1007.875 730.75,1008.0156 730.4844,1008.0156 C730.2656,1008.0156 730.0313,1007.9063 729.8906,1007.7656 C729.75,1007.6406 729.7188,1007.5156 729.6563,1007.1094 C729.5625,1006.7031 729.3906,1006.4844 728.9063,1006.2031 C728.4375,1005.9531 727.8281,1005.7969 727.25,1005.7969 C725.5156,1005.7969 724.2656,1007.1094 724.2656,1008.8906 L724.2656,1009.9844 C724.2656,1011.6875 725.5625,1012.7813 727.6094,1012.7813 C728.375,1012.7813 729.0625,1012.6563 729.4844,1012.3906 C729.6719,1012.2969 729.6719,1012.2969 730.125,1011.8125 C730.3125,1011.625 730.5156,1011.5469 730.7344,1011.5469 C731.2031,1011.5469 731.5938,1011.9375 731.5938,1012.3906 C731.5938,1012.7813 731.2656,1013.2344 730.6875,1013.6406 C729.9375,1014.1875 728.7813,1014.4844 727.5625,1014.4844 C724.6719,1014.4844 722.5625,1012.5938 722.5625,1010.0156 L722.5625,1008.8906 C722.5625,1006.1719 724.5625,1004.0938 727.1875,1004.0938 C728.0625,1004.0938 728.6563,1004.2344 729.5938,1004.6719 Z "/><text fill="#000000" font-family="sans-serif" font-size="12" lengthAdjust="spacingAndGlyphs" textLength="31" x="747.75" y="1013.1543">YOLO</text><line style="stroke: #A80036; stroke-width: 1.5;" x1="677.5" x2="816.5" y1="1025" y2="1025"/><text fill="#000000" font-family="sans-serif" font-size="11" lengthAdjust="spacingAndGlyphs" textLength="70" x="682.5" y="1039.2104">-type: String</text><text fill="#000000" font-family="sans-serif" font-size="11" lengthAdjust="spacingAndGlyphs" textLength="56" x="682.5" y="1052.0151">-value: int</text><line style="stroke: #A80036; stroke-width: 1.5;" x1="677.5" x2="816.5" y1="1058.6094" y2="1058.6094"/><text fill="#000000" font-family="sans-serif" font-size="11" lengthAdjust="spacingAndGlyphs" textLength="77" x="682.5" y="1072.8198">clone(): YOLO</text><text fill="#000000" font-family="sans-serif" font-size="11" lengthAdjust="spacingAndGlyphs" textLength="129" x="682.5" y="1085.6245">~detect(frame): Image</text><!--class SSD--><rect fill="#FEFECE" filter="url(#f12qcegz9a2gof)" height="86.4141" id="SSD" style="stroke: #A80036; stroke-width: 1.5;" width="82" x="853" y="999.5"/><ellipse cx="879.25" cy="1015.5" fill="#ADD1B2" rx="11" ry="11" style="stroke: #A80036; stroke-width: 1.0;"/><path d="M881.5938,1011.1719 L881.7656,1011.25 C881.9844,1010.9375 882.1875,1010.8438 882.4844,1010.8438 C882.7813,1010.8438 883.0625,1010.9844 883.2188,1011.25 C883.3125,1011.4063 883.3281,1011.5313 883.3281,1011.9688 L883.3281,1013.3906 C883.3281,1013.8125 883.2969,1014 883.1875,1014.1563 C883.0156,1014.375 882.75,1014.5156 882.4844,1014.5156 C882.2656,1014.5156 882.0313,1014.4063 881.8906,1014.2656 C881.75,1014.1406 881.7188,1014.0156 881.6563,1013.6094 C881.5625,1013.2031 881.3906,1012.9844 880.9063,1012.7031 C880.4375,1012.4531 879.8281,1012.2969 879.25,1012.2969 C877.5156,1012.2969 876.2656,1013.6094 876.2656,1015.3906 L876.2656,1016.4844 C876.2656,1018.1875 877.5625,1019.2813 879.6094,1019.2813 C880.375,1019.2813 881.0625,1019.1563 881.4844,1018.8906 C881.6719,1018.7969 881.6719,1018.7969 882.125,1018.3125 C882.3125,1018.125 882.5156,1018.0469 882.7344,1018.0469 C883.2031,1018.0469 883.5938,1018.4375 883.5938,1018.8906 C883.5938,1019.2813 883.2656,1019.7344 882.6875,1020.1406 C881.9375,1020.6875 880.7813,1020.9844 879.5625,1020.9844 C876.6719,1020.9844 874.5625,1019.0938 874.5625,1016.5156 L874.5625,1015.3906 C874.5625,1012.6719 876.5625,1010.5938 879.1875,1010.5938 C880.0625,1010.5938 880.6563,1010.7344 881.5938,1011.1719 Z "/><text fill="#000000" font-family="sans-serif" font-size="12" lengthAdjust="spacingAndGlyphs" textLength="25" x="895.75" y="1019.6543">SSD</text><line style="stroke: #A80036; stroke-width: 1.5;" x1="854" x2="934" y1="1031.5" y2="1031.5"/><text fill="#000000" font-family="sans-serif" font-size="11" lengthAdjust="spacingAndGlyphs" textLength="70" x="859" y="1045.7104">-type: String</text><text fill="#000000" font-family="sans-serif" font-size="11" lengthAdjust="spacingAndGlyphs" textLength="56" x="859" y="1058.5151">-value: int</text><line style="stroke: #A80036; stroke-width: 1.5;" x1="854" x2="934" y1="1065.1094" y2="1065.1094"/><text fill="#000000" font-family="sans-serif" font-size="11" lengthAdjust="spacingAndGlyphs" textLength="70" x="859" y="1079.3198">clone(): SSD</text><!--class RCNN--><rect fill="#FEFECE" filter="url(#f12qcegz9a2gof)" height="86.4141" id="RCNN" style="stroke: #A80036; stroke-width: 1.5;" width="89" x="970.5" y="999.5"/><ellipse cx="995.85" cy="1015.5" fill="#ADD1B2" rx="11" ry="11" style="stroke: #A80036; stroke-width: 1.0;"/><path d="M998.1938,1011.1719 L998.3656,1011.25 C998.5844,1010.9375 998.7875,1010.8438 999.0844,1010.8438 C999.3813,1010.8438 999.6625,1010.9844 999.8188,1011.25 C999.9125,1011.4063 999.9281,1011.5313 999.9281,1011.9688 L999.9281,1013.3906 C999.9281,1013.8125 999.8969,1014 999.7875,1014.1563 C999.6156,1014.375 999.35,1014.5156 999.0844,1014.5156 C998.8656,1014.5156 998.6313,1014.4063 998.4906,1014.2656 C998.35,1014.1406 998.3188,1014.0156 998.2563,1013.6094 C998.1625,1013.2031 997.9906,1012.9844 997.5063,1012.7031 C997.0375,1012.4531 996.4281,1012.2969 995.85,1012.2969 C994.1156,1012.2969 992.8656,1013.6094 992.8656,1015.3906 L992.8656,1016.4844 C992.8656,1018.1875 994.1625,1019.2813 996.2094,1019.2813 C996.975,1019.2813 997.6625,1019.1563 998.0844,1018.8906 C998.2719,1018.7969 998.2719,1018.7969 998.725,1018.3125 C998.9125,1018.125 999.1156,1018.0469 999.3344,1018.0469 C999.8031,1018.0469 1000.1938,1018.4375 1000.1938,1018.8906 C1000.1938,1019.2813 999.8656,1019.7344 999.2875,1020.1406 C998.5375,1020.6875 997.3813,1020.9844 996.1625,1020.9844 C993.2719,1020.9844 991.1625,1019.0938 991.1625,1016.5156 L991.1625,1015.3906 C991.1625,1012.6719 993.1625,1010.5938 995.7875,1010.5938 C996.6625,1010.5938 997.2563,1010.7344 998.1938,1011.1719 Z "/><text fill="#000000" font-family="sans-serif" font-size="12" lengthAdjust="spacingAndGlyphs" textLength="34" x="1012.15" y="1019.6543">RCNN</text><line style="stroke: #A80036; stroke-width: 1.5;" x1="971.5" x2="1058.5" y1="1031.5" y2="1031.5"/><text fill="#000000" font-family="sans-serif" font-size="11" lengthAdjust="spacingAndGlyphs" textLength="70" x="976.5" y="1045.7104">-type: String</text><text fill="#000000" font-family="sans-serif" font-size="11" lengthAdjust="spacingAndGlyphs" textLength="56" x="976.5" y="1058.5151">-value: int</text><line style="stroke: #A80036; stroke-width: 1.5;" x1="971.5" x2="1058.5" y1="1065.1094" y2="1065.1094"/><text fill="#000000" font-family="sans-serif" font-size="11" lengthAdjust="spacingAndGlyphs" textLength="77" x="976.5" y="1079.3198">clone(): RCNN</text><!--class DetectorFactory--><rect fill="#FEFECE" filter="url(#f12qcegz9a2gof)" height="150.4375" id="DetectorFactory" style="stroke: #A80036; stroke-width: 1.5;" width="133" x="926.5" y="766"/><ellipse cx="941.5" cy="782" fill="#ADD1B2" rx="11" ry="11" style="stroke: #A80036; stroke-width: 1.0;"/><path d="M943.8438,777.6719 L944.0156,777.75 C944.2344,777.4375 944.4375,777.3438 944.7344,777.3438 C945.0313,777.3438 945.3125,777.4844 945.4688,777.75 C945.5625,777.9063 945.5781,778.0313 945.5781,778.4688 L945.5781,779.8906 C945.5781,780.3125 945.5469,780.5 945.4375,780.6563 C945.2656,780.875 945,781.0156 944.7344,781.0156 C944.5156,781.0156 944.2813,780.9063 944.1406,780.7656 C944,780.6406 943.9688,780.5156 943.9063,780.1094 C943.8125,779.7031 943.6406,779.4844 943.1563,779.2031 C942.6875,778.9531 942.0781,778.7969 941.5,778.7969 C939.7656,778.7969 938.5156,780.1094 938.5156,781.8906 L938.5156,782.9844 C938.5156,784.6875 939.8125,785.7813 941.8594,785.7813 C942.625,785.7813 943.3125,785.6563 943.7344,785.3906 C943.9219,785.2969 943.9219,785.2969 944.375,784.8125 C944.5625,784.625 944.7656,784.5469 944.9844,784.5469 C945.4531,784.5469 945.8438,784.9375 945.8438,785.3906 C945.8438,785.7813 945.5156,786.2344 944.9375,786.6406 C944.1875,787.1875 943.0313,787.4844 941.8125,787.4844 C938.9219,787.4844 936.8125,785.5938 936.8125,783.0156 L936.8125,781.8906 C936.8125,779.1719 938.8125,777.0938 941.4375,777.0938 C942.3125,777.0938 942.9063,777.2344 943.8438,777.6719 Z "/><text fill="#000000" font-family="sans-serif" font-size="12" lengthAdjust="spacingAndGlyphs" textLength="101" x="955.5" y="786.1543">DetectorFactory</text><line style="stroke: #A80036; stroke-width: 1.5;" x1="927.5" x2="1058.5" y1="798" y2="798"/><text fill="#000000" font-family="sans-serif" font-size="11" lengthAdjust="spacingAndGlyphs" textLength="78" x="932.5" y="812.2104">~yolo2: YOLO</text><text fill="#000000" font-family="sans-serif" font-size="11" lengthAdjust="spacingAndGlyphs" textLength="78" x="932.5" y="825.0151">~yolo3: YOLO</text><text fill="#000000" font-family="sans-serif" font-size="11" lengthAdjust="spacingAndGlyphs" textLength="65" x="932.5" y="837.8198">~SSD: SSD</text><text fill="#000000" font-family="sans-serif" font-size="11" lengthAdjust="spacingAndGlyphs" textLength="79" x="932.5" y="850.6245">~RCNN: RCNN</text><line style="stroke: #A80036; stroke-width: 1.5;" x1="927.5" x2="1058.5" y1="857.2188" y2="857.2188"/><text fill="#000000" font-family="sans-serif" font-size="11" lengthAdjust="spacingAndGlyphs" textLength="103" x="932.5" y="871.4292">getYOLO2(): YOLO</text><text fill="#000000" font-family="sans-serif" font-size="11" lengthAdjust="spacingAndGlyphs" textLength="103" x="932.5" y="884.2339">getYOLO3(): YOLO</text><text fill="#000000" font-family="sans-serif" font-size="11" lengthAdjust="spacingAndGlyphs" textLength="82" x="932.5" y="897.0386">getSSD(): SSD</text><text fill="#000000" font-family="sans-serif" font-size="11" lengthAdjust="spacingAndGlyphs" textLength="96" x="932.5" y="909.8433">getRCNN(): RCNN</text><!--class CamerasPool--><rect fill="#FEFECE" filter="url(#f12qcegz9a2gof)" height="86.4141" id="CamerasPool" style="stroke: #A80036; stroke-width: 1.5;" width="138" x="1333" y="525.5"/><ellipse cx="1358.8" cy="541.5" fill="#ADD1B2" rx="11" ry="11" style="stroke: #A80036; stroke-width: 1.0;"/><path d="M1361.1438,537.1719 L1361.3156,537.25 C1361.5344,536.9375 1361.7375,536.8438 1362.0344,536.8438 C1362.3313,536.8438 1362.6125,536.9844 1362.7688,537.25 C1362.8625,537.4063 1362.8781,537.5313 1362.8781,537.9688 L1362.8781,539.3906 C1362.8781,539.8125 1362.8469,540 1362.7375,540.1563 C1362.5656,540.375 1362.3,540.5156 1362.0344,540.5156 C1361.8156,540.5156 1361.5813,540.4063 1361.4406,540.2656 C1361.3,540.1406 1361.2688,540.0156 1361.2063,539.6094 C1361.1125,539.2031 1360.9406,538.9844 1360.4563,538.7031 C1359.9875,538.4531 1359.3781,538.2969 1358.8,538.2969 C1357.0656,538.2969 1355.8156,539.6094 1355.8156,541.3906 L1355.8156,542.4844 C1355.8156,544.1875 1357.1125,545.2813 1359.1594,545.2813 C1359.925,545.2813 1360.6125,545.1563 1361.0344,544.8906 C1361.2219,544.7969 1361.2219,544.7969 1361.675,544.3125 C1361.8625,544.125 1362.0656,544.0469 1362.2844,544.0469 C1362.7531,544.0469 1363.1438,544.4375 1363.1438,544.8906 C1363.1438,545.2813 1362.8156,545.7344 1362.2375,546.1406 C1361.4875,546.6875 1360.3313,546.9844 1359.1125,546.9844 C1356.2219,546.9844 1354.1125,545.0938 1354.1125,542.5156 L1354.1125,541.3906 C1354.1125,538.6719 1356.1125,536.5938 1358.7375,536.5938 C1359.6125,536.5938 1360.2063,536.7344 1361.1438,537.1719 Z "/><text fill="#000000" font-family="sans-serif" font-size="12" lengthAdjust="spacingAndGlyphs" textLength="82" x="1375.2" y="545.6543">CamerasPool</text><line style="stroke: #A80036; stroke-width: 1.5;" x1="1334" x2="1470" y1="557.5" y2="557.5"/><text fill="#000000" font-family="sans-serif" font-size="11" lengthAdjust="spacingAndGlyphs" textLength="126" x="1339" y="571.7104">-reusables: Camera []</text><line style="stroke: #A80036; stroke-width: 1.5;" x1="1334" x2="1470" y1="578.3047" y2="578.3047"/><text fill="#000000" font-family="sans-serif" font-size="11" lengthAdjust="spacingAndGlyphs" textLength="112" x="1339" y="592.5151">~aqcuire(): Camera</text><text fill="#000000" font-family="sans-serif" font-size="11" lengthAdjust="spacingAndGlyphs" textLength="91" x="1339" y="605.3198">~release(): void</text><!--class Camera--><rect fill="#FEFECE" filter="url(#f12qcegz9a2gof)" height="150.4375" id="Camera" style="stroke: #A80036; stroke-width: 1.5;" width="146" x="1127" y="493.5"/><ellipse cx="1171.75" cy="509.5" fill="#ADD1B2" rx="11" ry="11" style="stroke: #A80036; stroke-width: 1.0;"/><path d="M1174.0938,505.1719 L1174.2656,505.25 C1174.4844,504.9375 1174.6875,504.8438 1174.9844,504.8438 C1175.2813,504.8438 1175.5625,504.9844 1175.7188,505.25 C1175.8125,505.4063 1175.8281,505.5313 1175.8281,505.9688 L1175.8281,507.3906 C1175.8281,507.8125 1175.7969,508 1175.6875,508.1563 C1175.5156,508.375 1175.25,508.5156 1174.9844,508.5156 C1174.7656,508.5156 1174.5313,508.4063 1174.3906,508.2656 C1174.25,508.1406 1174.2188,508.0156 1174.1563,507.6094 C1174.0625,507.2031 1173.8906,506.9844 1173.4063,506.7031 C1172.9375,506.4531 1172.3281,506.2969 1171.75,506.2969 C1170.0156,506.2969 1168.7656,507.6094 1168.7656,509.3906 L1168.7656,510.4844 C1168.7656,512.1875 1170.0625,513.2813 1172.1094,513.2813 C1172.875,513.2813 1173.5625,513.1563 1173.9844,512.8906 C1174.1719,512.7969 1174.1719,512.7969 1174.625,512.3125 C1174.8125,512.125 1175.0156,512.0469 1175.2344,512.0469 C1175.7031,512.0469 1176.0938,512.4375 1176.0938,512.8906 C1176.0938,513.2813 1175.7656,513.7344 1175.1875,514.1406 C1174.4375,514.6875 1173.2813,514.9844 1172.0625,514.9844 C1169.1719,514.9844 1167.0625,513.0938 1167.0625,510.5156 L1167.0625,509.3906 C1167.0625,506.6719 1169.0625,504.5938 1171.6875,504.5938 C1172.5625,504.5938 1173.1563,504.7344 1174.0938,505.1719 Z "/><text fill="#000000" font-family="sans-serif" font-size="12" lengthAdjust="spacingAndGlyphs" textLength="48" x="1192.25" y="513.6543">Camera</text><line style="stroke: #A80036; stroke-width: 1.5;" x1="1128" x2="1272" y1="525.5" y2="525.5"/><text fill="#000000" font-family="sans-serif" font-size="11" lengthAdjust="spacingAndGlyphs" textLength="41" x="1133" y="539.7104">-ID:  Int</text><text fill="#000000" font-family="sans-serif" font-size="11" lengthAdjust="spacingAndGlyphs" textLength="134" x="1133" y="552.5151">-params: CustomStruct</text><text fill="#000000" font-family="sans-serif" font-size="11" lengthAdjust="spacingAndGlyphs" textLength="81" x="1133" y="565.3198">-frame: Image</text><line style="stroke: #A80036; stroke-width: 1.5;" x1="1128" x2="1272" y1="571.9141" y2="571.9141"/><text fill="#000000" font-family="sans-serif" font-size="11" lengthAdjust="spacingAndGlyphs" textLength="75" x="1133" y="586.1245">~start(): void</text><text fill="#000000" font-family="sans-serif" font-size="11" lengthAdjust="spacingAndGlyphs" textLength="73" x="1133" y="598.9292">~stop(): void</text><text fill="#000000" font-family="sans-serif" font-size="11" lengthAdjust="spacingAndGlyphs" textLength="93" x="1133" y="611.7339">~get_id(): String</text><text fill="#000000" font-family="sans-serif" font-size="11" lengthAdjust="spacingAndGlyphs" textLength="111" x="1133" y="624.5386">~new_frame(): void</text><text fill="#000000" font-family="sans-serif" font-size="11" lengthAdjust="spacingAndGlyphs" textLength="118" x="1133" y="637.3433">~get_frame(): Image</text><!--class DetectedObjects--><rect fill="#FEFECE" filter="url(#f12qcegz9a2gof)" height="86.4141" id="DetectedObjects" style="stroke: #A80036; stroke-width: 1.5;" width="137" x="1127.5" y="999.5"/><ellipse cx="1142.5" cy="1015.5" fill="#ADD1B2" rx="11" ry="11" style="stroke: #A80036; stroke-width: 1.0;"/><path d="M1144.8438,1011.1719 L1145.0156,1011.25 C1145.2344,1010.9375 1145.4375,1010.8438 1145.7344,1010.8438 C1146.0313,1010.8438 1146.3125,1010.9844 1146.4688,1011.25 C1146.5625,1011.4063 1146.5781,1011.5313 1146.5781,1011.9688 L1146.5781,1013.3906 C1146.5781,1013.8125 1146.5469,1014 1146.4375,1014.1563 C1146.2656,1014.375 1146,1014.5156 1145.7344,1014.5156 C1145.5156,1014.5156 1145.2813,1014.4063 1145.1406,1014.2656 C1145,1014.1406 1144.9688,1014.0156 1144.9063,1013.6094 C1144.8125,1013.2031 1144.6406,1012.9844 1144.1563,1012.7031 C1143.6875,1012.4531 1143.0781,1012.2969 1142.5,1012.2969 C1140.7656,1012.2969 1139.5156,1013.6094 1139.5156,1015.3906 L1139.5156,1016.4844 C1139.5156,1018.1875 1140.8125,1019.2813 1142.8594,1019.2813 C1143.625,1019.2813 1144.3125,1019.1563 1144.7344,1018.8906 C1144.9219,1018.7969 1144.9219,1018.7969 1145.375,1018.3125 C1145.5625,1018.125 1145.7656,1018.0469 1145.9844,1018.0469 C1146.4531,1018.0469 1146.8438,1018.4375 1146.8438,1018.8906 C1146.8438,1019.2813 1146.5156,1019.7344 1145.9375,1020.1406 C1145.1875,1020.6875 1144.0313,1020.9844 1142.8125,1020.9844 C1139.9219,1020.9844 1137.8125,1019.0938 1137.8125,1016.5156 L1137.8125,1015.3906 C1137.8125,1012.6719 1139.8125,1010.5938 1142.4375,1010.5938 C1143.3125,1010.5938 1143.9063,1010.7344 1144.8438,1011.1719 Z "/><text fill="#000000" font-family="sans-serif" font-size="12" lengthAdjust="spacingAndGlyphs" textLength="105" x="1156.5" y="1019.6543">DetectedObjects</text><line style="stroke: #A80036; stroke-width: 1.5;" x1="1128.5" x2="1263.5" y1="1031.5" y2="1031.5"/><text fill="#000000" font-family="sans-serif" font-size="11" lengthAdjust="spacingAndGlyphs" textLength="63" x="1133.5" y="1045.7104">-list: String</text><line style="stroke: #A80036; stroke-width: 1.5;" x1="1128.5" x2="1263.5" y1="1052.3047" y2="1052.3047"/><text fill="#000000" font-family="sans-serif" font-size="11" lengthAdjust="spacingAndGlyphs" textLength="66" x="1133.5" y="1066.5151">+set(): void</text><text fill="#000000" font-family="sans-serif" font-size="11" lengthAdjust="spacingAndGlyphs" textLength="77" x="1133.5" y="1079.3198">+get(): String</text><!--class Iterator--><rect fill="#FEFECE" filter="url(#f12qcegz9a2gof)" height="99.2188" id="Iterator" style="stroke: #A80036; stroke-width: 1.5;" width="110" x="1141" y="1155"/><ellipse cx="1169.95" cy="1171" fill="#ADD1B2" rx="11" ry="11" style="stroke: #A80036; stroke-width: 1.0;"/><path d="M1172.2938,1166.6719 L1172.4656,1166.75 C1172.6844,1166.4375 1172.8875,1166.3438 1173.1844,1166.3438 C1173.4813,1166.3438 1173.7625,1166.4844 1173.9188,1166.75 C1174.0125,1166.9063 1174.0281,1167.0313 1174.0281,1167.4688 L1174.0281,1168.8906 C1174.0281,1169.3125 1173.9969,1169.5 1173.8875,1169.6563 C1173.7156,1169.875 1173.45,1170.0156 1173.1844,1170.0156 C1172.9656,1170.0156 1172.7313,1169.9063 1172.5906,1169.7656 C1172.45,1169.6406 1172.4188,1169.5156 1172.3563,1169.1094 C1172.2625,1168.7031 1172.0906,1168.4844 1171.6063,1168.2031 C1171.1375,1167.9531 1170.5281,1167.7969 1169.95,1167.7969 C1168.2156,1167.7969 1166.9656,1169.1094 1166.9656,1170.8906 L1166.9656,1171.9844 C1166.9656,1173.6875 1168.2625,1174.7813 1170.3094,1174.7813 C1171.075,1174.7813 1171.7625,1174.6563 1172.1844,1174.3906 C1172.3719,1174.2969 1172.3719,1174.2969 1172.825,1173.8125 C1173.0125,1173.625 1173.2156,1173.5469 1173.4344,1173.5469 C1173.9031,1173.5469 1174.2938,1173.9375 1174.2938,1174.3906 C1174.2938,1174.7813 1173.9656,1175.2344 1173.3875,1175.6406 C1172.6375,1176.1875 1171.4813,1176.4844 1170.2625,1176.4844 C1167.3719,1176.4844 1165.2625,1174.5938 1165.2625,1172.0156 L1165.2625,1170.8906 C1165.2625,1168.1719 1167.2625,1166.0938 1169.8875,1166.0938 C1170.7625,1166.0938 1171.3563,1166.2344 1172.2938,1166.6719 Z "/><text fill="#000000" font-family="sans-serif" font-size="12" lengthAdjust="spacingAndGlyphs" textLength="47" x="1187.05" y="1175.1543">Iterator</text><line style="stroke: #A80036; stroke-width: 1.5;" x1="1142" x2="1250" y1="1187" y2="1187"/><text fill="#000000" font-family="sans-serif" font-size="11" lengthAdjust="spacingAndGlyphs" textLength="63" x="1147" y="1201.2104">-list: String</text><text fill="#000000" font-family="sans-serif" font-size="11" lengthAdjust="spacingAndGlyphs" textLength="49" x="1147" y="1214.0151">-Size: int</text><text fill="#000000" font-family="sans-serif" font-size="11" lengthAdjust="spacingAndGlyphs" textLength="56" x="1147" y="1226.8198">-Index: int</text><line style="stroke: #A80036; stroke-width: 1.5;" x1="1142" x2="1250" y1="1233.4141" y2="1233.4141"/><text fill="#000000" font-family="sans-serif" font-size="11" lengthAdjust="spacingAndGlyphs" textLength="98" x="1147" y="1247.6245">__next__(): String</text><!--class ObjectDetector--><rect fill="#FEFECE" filter="url(#f12qcegz9a2gof)" height="73.6094" id="ObjectDetector" style="stroke: #A80036; stroke-width: 1.5;" width="141" x="1125.5" y="804"/><ellipse cx="1146.8" cy="820" fill="#ADD1B2" rx="11" ry="11" style="stroke: #A80036; stroke-width: 1.0;"/><path d="M1149.1438,815.6719 L1149.3156,815.75 C1149.5344,815.4375 1149.7375,815.3438 1150.0344,815.3438 C1150.3313,815.3438 1150.6125,815.4844 1150.7688,815.75 C1150.8625,815.9063 1150.8781,816.0313 1150.8781,816.4688 L1150.8781,817.8906 C1150.8781,818.3125 1150.8469,818.5 1150.7375,818.6563 C1150.5656,818.875 1150.3,819.0156 1150.0344,819.0156 C1149.8156,819.0156 1149.5813,818.9063 1149.4406,818.7656 C1149.3,818.6406 1149.2688,818.5156 1149.2063,818.1094 C1149.1125,817.7031 1148.9406,817.4844 1148.4563,817.2031 C1147.9875,816.9531 1147.3781,816.7969 1146.8,816.7969 C1145.0656,816.7969 1143.8156,818.1094 1143.8156,819.8906 L1143.8156,820.9844 C1143.8156,822.6875 1145.1125,823.7813 1147.1594,823.7813 C1147.925,823.7813 1148.6125,823.6563 1149.0344,823.3906 C1149.2219,823.2969 1149.2219,823.2969 1149.675,822.8125 C1149.8625,822.625 1150.0656,822.5469 1150.2844,822.5469 C1150.7531,822.5469 1151.1438,822.9375 1151.1438,823.3906 C1151.1438,823.7813 1150.8156,824.2344 1150.2375,824.6406 C1149.4875,825.1875 1148.3313,825.4844 1147.1125,825.4844 C1144.2219,825.4844 1142.1125,823.5938 1142.1125,821.0156 L1142.1125,819.8906 C1142.1125,817.1719 1144.1125,815.0938 1146.7375,815.0938 C1147.6125,815.0938 1148.2063,815.2344 1149.1438,815.6719 Z "/><text fill="#000000" font-family="sans-serif" font-size="12" lengthAdjust="spacingAndGlyphs" textLength="95" x="1162.2" y="824.1543">ObjectDetector</text><line style="stroke: #A80036; stroke-width: 1.5;" x1="1126.5" x2="1265.5" y1="836" y2="836"/><text fill="#000000" font-family="sans-serif" font-size="11" lengthAdjust="spacingAndGlyphs" textLength="90" x="1131.5" y="850.2104">+frame:  Image</text><line style="stroke: #A80036; stroke-width: 1.5;" x1="1126.5" x2="1265.5" y1="856.8047" y2="856.8047"/><text fill="#000000" font-family="sans-serif" font-size="11" lengthAdjust="spacingAndGlyphs" textLength="129" x="1131.5" y="871.0151">~detect(frame): Image</text><!--class CameraNode--><rect fill="#FEFECE" filter="url(#f12qcegz9a2gof)" height="86.4141" id="CameraNode" style="stroke: #A80036; stroke-width: 1.5;" width="113" x="1358.5" y="798"/><ellipse cx="1373.5" cy="814" fill="#ADD1B2" rx="11" ry="11" style="stroke: #A80036; stroke-width: 1.0;"/><path d="M1375.8438,809.6719 L1376.0156,809.75 C1376.2344,809.4375 1376.4375,809.3438 1376.7344,809.3438 C1377.0313,809.3438 1377.3125,809.4844 1377.4688,809.75 C1377.5625,809.9063 1377.5781,810.0313 1377.5781,810.4688 L1377.5781,811.8906 C1377.5781,812.3125 1377.5469,812.5 1377.4375,812.6563 C1377.2656,812.875 1377,813.0156 1376.7344,813.0156 C1376.5156,813.0156 1376.2813,812.9063 1376.1406,812.7656 C1376,812.6406 1375.9688,812.5156 1375.9063,812.1094 C1375.8125,811.7031 1375.6406,811.4844 1375.1563,811.2031 C1374.6875,810.9531 1374.0781,810.7969 1373.5,810.7969 C1371.7656,810.7969 1370.5156,812.1094 1370.5156,813.8906 L1370.5156,814.9844 C1370.5156,816.6875 1371.8125,817.7813 1373.8594,817.7813 C1374.625,817.7813 1375.3125,817.6563 1375.7344,817.3906 C1375.9219,817.2969 1375.9219,817.2969 1376.375,816.8125 C1376.5625,816.625 1376.7656,816.5469 1376.9844,816.5469 C1377.4531,816.5469 1377.8438,816.9375 1377.8438,817.3906 C1377.8438,817.7813 1377.5156,818.2344 1376.9375,818.6406 C1376.1875,819.1875 1375.0313,819.4844 1373.8125,819.4844 C1370.9219,819.4844 1368.8125,817.5938 1368.8125,815.0156 L1368.8125,813.8906 C1368.8125,811.1719 1370.8125,809.0938 1373.4375,809.0938 C1374.3125,809.0938 1374.9063,809.2344 1375.8438,809.6719 Z "/><text fill="#000000" font-family="sans-serif" font-size="12" lengthAdjust="spacingAndGlyphs" textLength="81" x="1387.5" y="818.1543">CameraNode</text><line style="stroke: #A80036; stroke-width: 1.5;" x1="1359.5" x2="1470.5" y1="830" y2="830"/><text fill="#000000" font-family="sans-serif" font-size="11" lengthAdjust="spacingAndGlyphs" textLength="82" x="1364.5" y="844.2104">+topic:  String</text><line style="stroke: #A80036; stroke-width: 1.5;" x1="1359.5" x2="1470.5" y1="850.8047" y2="850.8047"/><text fill="#000000" font-family="sans-serif" font-size="11" lengthAdjust="spacingAndGlyphs" textLength="96" x="1364.5" y="865.0151">~startPub(): void</text><text fill="#000000" font-family="sans-serif" font-size="11" lengthAdjust="spacingAndGlyphs" textLength="94" x="1364.5" y="877.8198">~stopPub(): void</text><!--link Window to GtkLayersWindow--><path d="M200.427,363.792 C181.569,419.932 153.278,504.156 139.747,544.437 " fill="none" id="Window-GtkLayersWindow" style="stroke: #A80036; stroke-width: 1.0;"/><polygon fill="none" points="193.899,361.243,206.903,344.513,207.17,365.701,193.899,361.243" style="stroke: #A80036; stroke-width: 1.0;"/><text fill="#000000" font-family="sans-serif" font-size="13" lengthAdjust="spacingAndGlyphs" textLength="47" x="187" y="419.5669">inherits</text><!--link Window to GtkMainWindow--><path d="M236.719,363.792 C254.71,419.932 281.701,504.156 294.609,544.437 " fill="none" id="Window-GtkMainWindow" style="stroke: #A80036; stroke-width: 1.0;"/><polygon fill="none" points="229.978,365.695,230.541,344.513,243.31,361.423,229.978,365.695" style="stroke: #A80036; stroke-width: 1.0;"/><text fill="#000000" font-family="sans-serif" font-size="13" lengthAdjust="spacingAndGlyphs" textLength="47" x="257" y="419.5669">inherits</text><!--link Window to GtkToolboxWindow--><path d="M272.262,358.253 C279.729,364.603 287.438,370.849 295,376.5 C332.249,404.333 350.449,399.305 384,431.5 C419.377,465.448 448.746,515.171 464.211,544.147 " fill="none" id="Window-GtkToolboxWindow" style="stroke: #A80036; stroke-width: 1.0;"/><polygon fill="none" points="267.356,363.262,256.933,344.813,276.586,352.735,267.356,363.262" style="stroke: #A80036; stroke-width: 1.0;"/><text fill="#000000" font-family="sans-serif" font-size="13" lengthAdjust="spacingAndGlyphs" textLength="47" x="376" y="419.5669">inherits</text><!--link Window to QtLayersWindow--><path d="M266.999,358.087 C275.756,365.115 285.232,371.603 295,376.5 C405.256,431.774 465.616,361.265 567,431.5 C607.397,459.486 632.495,513.529 644.187,544.396 " fill="none" id="Window-QtLayersWindow" style="stroke: #A80036; stroke-width: 1.0;"/><polygon fill="none" points="262.075,363.08,251.638,344.639,271.297,352.546,262.075,363.08" style="stroke: #A80036; stroke-width: 1.0;"/><text fill="#000000" font-family="sans-serif" font-size="13" lengthAdjust="spacingAndGlyphs" textLength="47" x="557" y="419.5669">inherits</text><!--link Window to QtMainWindow--><path d="M265.103,357.818 C274.309,365.203 284.426,371.879 295,376.5 C475.992,455.591 575.536,316.327 736,431.5 C775.153,459.602 797.87,513.601 808.204,544.429 " fill="none" id="Window-QtMainWindow" style="stroke: #A80036; stroke-width: 1.0;"/><polygon fill="none" points="260.411,363.013,250.085,344.509,269.696,352.535,260.411,363.013" style="stroke: #A80036; stroke-width: 1.0;"/><text fill="#000000" font-family="sans-serif" font-size="13" lengthAdjust="spacingAndGlyphs" textLength="47" x="719" y="419.5669">inherits</text><!--link Window to QtToolboxWindow--><path d="M264.983,358.098 C274.202,365.453 284.354,372.047 295,376.5 C418.114,427.995 782.863,356.143 893,431.5 C934.104,459.624 960.835,513.614 973.474,544.436 " fill="none" id="Window-QtToolboxWindow" style="stroke: #A80036; stroke-width: 1.0;"/><polygon fill="none" points="260.293,363.295,249.963,344.794,269.576,352.815,260.293,363.295" style="stroke: #A80036; stroke-width: 1.0;"/><text fill="#000000" font-family="sans-serif" font-size="13" lengthAdjust="spacingAndGlyphs" textLength="47" x="880" y="419.5669">inherits</text><!--link UIFactory to GtkUIFactory--><path d="M425.129,249.43 C453.313,221.3 491.02,190.44 532,175.5 C643.073,135.01 688.442,131.07 798,175.5 C842.061,193.37 879.712,233.12 904.151,264.36 " fill="none" id="UIFactory-GtkUIFactory" style="stroke: #A80036; stroke-width: 1.0; stroke-dasharray: 7.0,7.0;"/><polygon fill="none" points="429.804,254.66,410.892,264.22,419.717,244.96,429.804,254.66" style="stroke: #A80036; stroke-width: 1.0;"/><text fill="#000000" font-family="sans-serif" font-size="13" lengthAdjust="spacingAndGlyphs" textLength="76" x="588" y="148.5669">implements</text><!--link UIFactory to QtUIFactory--><path d="M457.257,307.5 C485.882,307.5 518.549,307.5 549.368,307.5 " fill="none" id="UIFactory-QtUIFactory" style="stroke: #A80036; stroke-width: 1.0; stroke-dasharray: 7.0,7.0;"/><polygon fill="none" points="457.212,314.5,437.212,307.5,457.212,300.5,457.212,314.5" style="stroke: #A80036; stroke-width: 1.0;"/><text fill="#000000" font-family="sans-serif" font-size="13" lengthAdjust="spacingAndGlyphs" textLength="76" x="455.25" y="300.5669">implements</text><!--link Abstract_Coffee to Abstract_Coffee_Decorator--><path d="M1988.48,368.448 C2013.71,416.502 2048.48,482.723 2070.86,525.329 " fill="none" id="Abstract_Coffee-Abstract_Coffee_Decorator" style="stroke: #A80036; stroke-width: 1.0;"/><polygon fill="none" points="1982.25,371.651,1979.15,350.689,1994.65,365.142,1982.25,371.651" style="stroke: #A80036; stroke-width: 1.0;"/><text fill="#000000" font-family="sans-serif" font-size="13" lengthAdjust="spacingAndGlyphs" textLength="47" x="2017" y="419.5669">inherits</text><!--link Abstract_Coffee to Concrete_Coffee--><path d="M1938.27,369.899 C1922.96,420.107 1901.82,489.404 1889.08,531.187 " fill="none" id="Abstract_Coffee-Concrete_Coffee" style="stroke: #A80036; stroke-width: 1.0;"/><polygon fill="none" points="1931.6,367.777,1944.13,350.689,1944.99,371.861,1931.6,367.777" style="stroke: #A80036; stroke-width: 1.0;"/><text fill="#000000" font-family="sans-serif" font-size="13" lengthAdjust="spacingAndGlyphs" textLength="47" x="1928" y="419.5669">inherits</text><!--link Abstract_Coffee_Decorator to Milk--><path d="M2040.55,626.705 C2019.61,650.199 1995.63,677.957 1975,704 C1948.98,736.852 1921.43,775.947 1902.37,803.772 " fill="none" id="Abstract_Coffee_Decorator-Milk" style="stroke: #A80036; stroke-width: 1.0;"/><polygon fill="none" points="2035.57,621.773,2054.14,611.57,2045.99,631.127,2035.57,621.773" style="stroke: #A80036; stroke-width: 1.0;"/><text fill="#000000" font-family="sans-serif" font-size="13" lengthAdjust="spacingAndGlyphs" textLength="47" x="1995" y="692.0669">inherits</text><!--link Abstract_Coffee_Decorator to Sugar--><path d="M2088.14,632.048 C2084.01,685.239 2078.23,759.775 2074.82,803.66 " fill="none" id="Abstract_Coffee_Decorator-Sugar" style="stroke: #A80036; stroke-width: 1.0;"/><polygon fill="none" points="2081.19,631.164,2089.72,611.766,2095.15,632.247,2081.19,631.164" style="stroke: #A80036; stroke-width: 1.0;"/><text fill="#000000" font-family="sans-serif" font-size="13" lengthAdjust="spacingAndGlyphs" textLength="47" x="2085" y="692.0669">inherits</text><!--link Abstract_Coffee_Decorator to Vanilla--><path d="M2130.98,628.89 C2165.11,682.252 2214.13,758.899 2242.76,803.66 " fill="none" id="Abstract_Coffee_Decorator-Vanilla" style="stroke: #A80036; stroke-width: 1.0;"/><polygon fill="none" points="2124.91,632.386,2120.03,611.766,2136.7,624.843,2124.91,632.386" style="stroke: #A80036; stroke-width: 1.0;"/><text fill="#000000" font-family="sans-serif" font-size="13" lengthAdjust="spacingAndGlyphs" textLength="47" x="2170" y="692.0669">inherits</text><!--link Admin to DashboardNode--><path d="M1627,376.549 C1627,412.19 1627,455.914 1627,492.525 " fill="none" id="Admin-DashboardNode" style="stroke: #A80036; stroke-width: 1.0;"/><polygon fill="#FFFFFF" points="1627,505.664,1631,499.664,1627,493.664,1623,499.664,1627,505.664" style="stroke: #A80036; stroke-width: 1.0;"/><text fill="#000000" font-family="sans-serif" font-size="13" lengthAdjust="spacingAndGlyphs" textLength="23" x="1628" y="419.5669">has</text><!--link Prototype to YOLO--><path d="M764.45,917.166 C760.899,942.473 757.031,970.031 753.841,992.757 " fill="none" id="Prototype-YOLO" style="stroke: #A80036; stroke-width: 1.0;"/><polygon fill="none" points="757.563,915.875,767.275,897.042,771.427,917.821,757.563,915.875" style="stroke: #A80036; stroke-width: 1.0;"/><text fill="#000000" font-family="sans-serif" font-size="13" lengthAdjust="spacingAndGlyphs" textLength="47" x="762" y="959.0669">inherits</text><!--link Prototype to SSD--><path d="M818.126,914.299 C835.15,942.839 854.112,974.63 868.822,999.29 " fill="none" id="Prototype-SSD" style="stroke: #A80036; stroke-width: 1.0;"/><polygon fill="none" points="812.066,917.805,807.832,897.042,824.09,910.633,812.066,917.805" style="stroke: #A80036; stroke-width: 1.0;"/><text fill="#000000" font-family="sans-serif" font-size="13" lengthAdjust="spacingAndGlyphs" textLength="47" x="847" y="959.0669">inherits</text><!--link Prototype to RCNN--><path d="M843.335,897.024 C862.698,912.751 883.744,929.972 903,946 C925.291,964.555 949.832,985.429 970.246,1002.919 " fill="none" id="Prototype-RCNN" style="stroke: #A80036; stroke-width: 1.0;"/><polygon fill="none" points="838.672,902.256,827.542,884.225,847.487,891.379,838.672,902.256" style="stroke: #A80036; stroke-width: 1.0;"/><text fill="#000000" font-family="sans-serif" font-size="13" lengthAdjust="spacingAndGlyphs" textLength="47" x="923" y="959.0669">inherits</text><!--link Prototype to DetectorFactory--><path d="M833.053,841 C861.729,841 896.475,841 926.246,841 " fill="none" id="Prototype-DetectorFactory" style="stroke: #A80036; stroke-width: 1.0;"/><polygon fill="#A80036" points="827.772,841,836.772,845,832.772,841,836.772,837,827.772,841" style="stroke: #A80036; stroke-width: 1.0;"/><text fill="#000000" font-family="sans-serif" font-size="13" lengthAdjust="spacingAndGlyphs" textLength="62" x="846" y="834.0669">prototype</text><!--link Camera to CamerasPool--><path d="M1273.21,568.5 C1288.23,568.5 1304.14,568.5 1319.46,568.5 " fill="none" id="Camera-CamerasPool" style="stroke: #A80036; stroke-width: 1.0;"/><polygon fill="#FFFFFF" points="1332.74,568.5,1326.74,564.5,1320.74,568.5,1326.74,572.5,1332.74,568.5" style="stroke: #A80036; stroke-width: 1.0;"/><text fill="#000000" font-family="sans-serif" font-size="13" lengthAdjust="spacingAndGlyphs" textLength="23" x="1291.5" y="561.5669">has</text><!--link CamerasPool to CameraNode--><path d="M1404.28,616.922 C1406.73,668.003 1410.6,748.535 1412.96,797.586 " fill="none" id="CamerasPool-CameraNode" style="stroke: #A80036; stroke-width: 1.0;"/><polygon fill="#A80036" points="1404.03,611.766,1400.4661,620.9474,1404.2697,616.7602,1408.4569,620.5639,1404.03,611.766" style="stroke: #A80036; stroke-width: 1.0;"/><text fill="#000000" font-family="sans-serif" font-size="13" lengthAdjust="spacingAndGlyphs" textLength="103" x="1409" y="692.0669">asks for camera</text><!--link Camera to CameraNode--><path d="M1262.29,647.87 C1301.18,696.804 1349.73,757.884 1381.51,797.866 " fill="none" id="Camera-CameraNode" style="stroke: #A80036; stroke-width: 1.0;"/><polygon fill="#A80036" points="1259.03,643.773,1261.499,653.3074,1262.1413,647.6871,1267.7615,648.3293,1259.03,643.773" style="stroke: #A80036; stroke-width: 1.0;"/><text fill="#000000" font-family="sans-serif" font-size="13" lengthAdjust="spacingAndGlyphs" textLength="30" x="1296" y="692.0669">uses</text><!--link ObjectDetector to CameraNode--><path d="M1272.05,841 C1300.38,841 1332.01,841 1358.3,841 " fill="none" id="ObjectDetector-CameraNode" style="stroke: #A80036; stroke-width: 1.0; stroke-dasharray: 7.0,7.0;"/><polygon fill="#A80036" points="1266.8,841,1275.8,845,1271.8,841,1275.8,837,1266.8,841" style="stroke: #A80036; stroke-width: 1.0;"/><text fill="#000000" font-family="sans-serif" font-size="13" lengthAdjust="spacingAndGlyphs" textLength="55" x="1285" y="834.0669">depends</text><!--link ObjectDetector to DetectedObjects--><path d="M1196,891.222 C1196,924.438 1196,967.812 1196,999.42 " fill="none" id="ObjectDetector-DetectedObjects" style="stroke: #A80036; stroke-width: 1.0;"/><polygon fill="#FFFFFF" points="1196,878.128,1192,884.128,1196,890.128,1200,884.128,1196,878.128" style="stroke: #A80036; stroke-width: 1.0;"/><text fill="#000000" font-family="sans-serif" font-size="13" lengthAdjust="spacingAndGlyphs" textLength="23" x="1197" y="959.0669">has</text><!--link DetectedObjects to Iterator--><path d="M1196,1085.538 C1196,1106.833 1196,1132.801 1196,1154.945 " fill="none" id="DetectedObjects-Iterator" style="stroke: #A80036; stroke-width: 1.0;"/><!--link ObjectDetector to DetectorFactory--><path d="M1125.37,841 C1105.83,841 1084.59,841 1064.97,841 " fill="none" id="ObjectDetector-DetectorFactory" style="stroke: #A80036; stroke-width: 1.0;"/><polygon fill="#A80036" points="1059.75,841,1068.75,845,1064.75,841,1068.75,837,1059.75,841" style="stroke: #A80036; stroke-width: 1.0;"/><text fill="#000000" font-family="sans-serif" font-size="13" lengthAdjust="spacingAndGlyphs" textLength="29" x="1078" y="834.0669">asks</text><!--link DashboardNode to CameraNode--><path d="M1578.63,631.219 C1538.67,682.208 1483.01,753.228 1448,797.895 " fill="none" id="DashboardNode-CameraNode" style="stroke: #A80036; stroke-width: 1.0;"/><text fill="#000000" font-family="sans-serif" font-size="13" lengthAdjust="spacingAndGlyphs" textLength="24" x="1548.027" y="650.9828">0..1</text><text fill="#000000" font-family="sans-serif" font-size="13" lengthAdjust="spacingAndGlyphs" textLength="23" x="1428.4266" y="786.8743">1..*</text><!--link Subscriber to Gui--><path d="M1519.5129,303.4255 C1519.1195,303.2388 1518.7129,303.046 1518.2934,302.8475 C1516.6155,302.0531 1514.7305,301.1649 1512.6466,300.1888 C1504.3112,296.2845 1492.7945,290.975 1478.6259,284.6507 C1450.2888,272.002 1411.3438,255.2938 1366.025,237.648 C1275.3875,202.3565 1159.255,163.315 1051.5,145.5 C997.346,136.55 114.979,126.46 63.5,145.5 C30.3885,157.75 23.371,196.141 24.9375,232.4749 C25.3291,241.5583 26.2572,250.5132 27.4483,258.899 C28.0438,263.0918 28.705,267.1424 29.3978,270.9956 C29.571,271.9589 29.7462,272.9099 29.9228,273.8477 " fill="none" id="Subscriber-Gui" style="stroke: #A80036; stroke-width: 1.0;"/><!--link Subscriber to CoffeeMachine--><path d="M1519.9237,273.8477 C1519.7471,272.9099 1519.5719,271.9589 1519.3987,270.9956 C1518.706,267.1424 1518.0448,263.0918 1517.4493,258.899 C1516.2584,250.5132 1515.3303,241.5583 1514.9388,232.4749 C1513.3725,196.141 1520.39,157.75 1553.5,145.5 C1584.14,134.17 1669.86,134.17 1700.5,145.5 C1736.42,158.785 1754.7875,197.2085 1764.1788,233.3006 C1764.7657,235.5564 1765.3176,237.803 1765.8365,240.0339 " fill="none" id="Subscriber-CoffeeMachine" style="stroke: #A80036; stroke-width: 1.0;"/><!--
@startuml
skinparam classAttributeIconSize 0
package Gui #DD00DD {
 class UIFactory{
 getLayersWindow()
 getMainWindow()
 getToolboxWindow()
 }

 class GtkUIFactory{
 getLayersWindow(): GtkLayersWindow
 getMainWindow(): GtkMainWindow
 getToolboxWindow(): GtkToolboxWindow
 }

 class QtUIFactory{
 getLayersWindow(): QtLayersWindow
 getMainWindow(): QtMainWindow
 getToolboxWindow(): QtToolboxWindow
 }

 class Window{
 getToolkit(): String
 getType(): String
 }

 class GtkLayersWindow{
 }
 class GtkMainWindow{
 }
 class GtkToolboxWindow{
 }

 class QtLayersWindow{
 }
 class QtMainWindow{
 }
 class QtToolboxWindow{
 }

 Window <|- - GtkLayersWindow: inherits
 Window <|- - GtkMainWindow: inherits
 Window <|- - GtkToolboxWindow: inherits
 Window <|- - QtLayersWindow: inherits
 Window <|- - QtMainWindow: inherits
 Window <|- - QtToolboxWindow: inherits

 UIFactory <|. GtkUIFactory: implements
 UIFactory <|. QtUIFactory: implements
}

package CoffeeMachine #0000DD {

 class Abstract_Coffee{
 +get_cost(): void
 +get_ingredients(): void
 +get_tax(): void
}

 class Concrete_Coffee{
 +get_cost(): float
 +get_ingredients(): String
}

 class Abstract_Coffee_Decorator{
 +decorated_coffee
 +get_cost(): float
 +get_ingredients(): String
}

 class Milk{
 +get_cost(): float
 +get_ingredients(): String
}

 class Sugar{
 +get_cost(): float
 +get_ingredients(): String
}

 class Vanilla{
 +get_cost(): float
 +get_ingredients(): String
}

 Abstract_Coffee <|- - Abstract_Coffee_Decorator: inherits
 Abstract_Coffee <|- - Concrete_Coffee: inherits
 Abstract_Coffee_Decorator <|- - Milk: inherits
 Abstract_Coffee_Decorator <|- - Sugar: inherits
 Abstract_Coffee_Decorator <|- - Vanilla: inherits

}


package Subscriber #DDDD00 {

 class Admin{
 +ID: String 
 -PW: String 
 -access_level: Int
 -create(): void
 -delete(): void
 ~login(): void
 ~logout(): void
} 
 class DashboardNode {
 +topic: String 
 +frame: Image
 ~startSub(): void
 ~stopSub(): void
 ~report(): CustomStruct
 ~screenShot(): Image
}

  Admin - -o DashboardNode: has
}

package Detector #00DD00 {

 class Prototype{
 -type: String
 -value: int
 clone(): void
 get_type(): void
 get_value(): void
}

 class YOLO{
 -type: String
 -value: int
 clone(): YOLO
 }

 class SSD{
 -type: String
 -value: int
 clone(): SSD
 }

 class RCNN{
 -type: String
 -value: int
 clone(): RCNN
 }

 class DetectorFactory{
 ~yolo2: YOLO
 ~yolo3: YOLO
 ~SSD: SSD
 ~RCNN: RCNN
 getYOLO2(): YOLO
 getYOLO3(): YOLO
 getSSD(): SSD
 getRCNN(): RCNN
 }

  Prototype <|- - YOLO: inherits
  Prototype <|- - SSD: inherits
  Prototype <|- - RCNN: inherits
  Prototype <- DetectorFactory: prototype
}

package Publisher #00DDDD {

 class CamerasPool{
 -reusables: Camera []
 ~aqcuire(): Camera
 ~release(): void

}
  class Camera{
 -ID:  Int
 -params: CustomStruct
 -frame: Image
 ~start(): void
 ~stop(): void
 ~get_id(): String
 ~new_frame(): void
 ~get_frame(): Image
}

  class YOLO{
 ~detect(frame): Image
}

  class DetectedObjects{
 -list: String
 +set(): void
 +get(): String
}
  
  class Iterator{
 -list: String
 -Size: int
 -Index: int
 __next__(): String
}

  class ObjectDetector{
 +frame:  Image
 ~detect(frame): Image
}

  class CameraNode{
 +topic:  String
 ~startPub(): void
 ~stopPub(): void
}

  Camera -o CamerasPool: has
  CamerasPool <- - CameraNode: asks for camera
  Camera <- - CameraNode: uses
  ObjectDetector <. CameraNode: depends
  ObjectDetector o- - DetectedObjects: has
  DetectedObjects - - Iterator
}

ObjectDetector  -> DetectorFactory: asks
DashboardNode "0..1" - - "1..*" CameraNode
Subscriber - Gui
Subscriber - CoffeeMachine
@enduml

PlantUML version 1.2019.07beta1(Unknown compile time)
(GPL source distribution)
Java Runtime: Java(TM) SE Runtime Environment
JVM: Java HotSpot(TM) 64-Bit Server VM
Java Version: 1.7.0_25-b15
Operating System: Linux
Default Encoding: UTF-8
Language: en
Country: US
--></g><style xmlns="" type="text/css" id="igtranslator-color"/></svg>